<?xml version="1.0" encoding="utf-8"?>
<!-- Generator: Adobe Illustrator 15.0.0, SVG Export Plug-In . SVG Version: 6.00 Build 0)  -->
<!DOCTYPE svg PUBLIC "-//W3C//DTD SVG 1.0//EN" "http://www.w3.org/TR/2001/REC-SVG-20010904/DTD/svg10.dtd">
<svg version="1.0" id="Layer_1" xmlns="http://www.w3.org/2000/svg" xmlns:xlink="http://www.w3.org/1999/xlink" x="0px" y="0px"
	 width="240px" height="434px" viewBox="0 0 240 434" enable-background="new 0 0 240 434" xml:space="preserve">
<path fill="#B2D3BD" d="M235.512,190.638c0,0,10.992,99.314-17.205,176.26c-1.918,8.201-8.843,17.207-8.602,0
	c0,0-13.957-172.598-4.398-171.258C214.865,196.98,235.512,190.638,235.512,190.638z"/>
<path fill="#5EABA8" d="M206.213,197.114l17.362-3.462c0,0-4.908,110.314-16.687,129.454
	C201.654,264.709,206.213,197.114,206.213,197.114z"/>
<path fill="#B2D3BD" d="M197.57,354.896c-19.145,83.813-122.519,120.239-167.044,5.177c-30.653-79.216-23.978-187.21-23.978-187.21
	h213.746C220.294,172.863,212.107,291.248,197.57,354.896z"/>
<path fill="#5EABA8" d="M219.509,174.397c-3.846,4.299-48.741,8.399-107.689,8.399c-58.946,0-103.97-4.101-105.775-8.399
	c-2.672-6.364,47.786-12.499,106.732-12.499C171.725,161.899,224.111,169.254,219.509,174.397z"/>
<path fill="#B2D3BD" d="M220.727,101.267c0,55.928-38.545,72.986-99.222,72.986C60.83,174.252,1,157.195,1,101.267
	C1,45.339,50.188,0,110.863,0C171.538,0,220.727,45.339,220.727,101.267z"/>
<path fill="#010101" d="M216.341,111.512c-0.784,30.164-41.462,37.679-79.438,37.679c-37.978,0-75.968-10.012-76.981-40.169
	C58.717,73.205,96.1,37.257,134.077,37.257C176.751,37.257,217.751,57.274,216.341,111.512z"/>
<ellipse id="BOTTOM_HIGHLIGHT" fill="#B2D3BD" cx="108.917" cy="60.309" rx="6.032" ry="2.221"/>
<path id="TOP_HIGHLIGHT" fill="#B2D3BD" d="M131.757,51.303c0,1.889-4.637,2.659-10.241,3.419c-7.291,0.989-10.24-1.531-10.24-3.419
	c0-1.888,6.106-4.062,11.742-4.527C129.971,46.202,131.757,49.416,131.757,51.303z"/>
<ellipse transform="matrix(0.2556 -0.9668 0.9668 0.2556 -8.2948 183.7184)" fill="#B2D3BD" cx="115.154" cy="97.246" rx="16.163" ry="23.257"/>
<g>
	<g>
		<defs>
			
				<ellipse id="SVGID_1_" transform="matrix(0.2556 -0.9668 0.9668 0.2556 -8.4427 183.5253)" cx="114.954" cy="97.245" rx="16.164" ry="23.258"/>
		</defs>
		<clipPath id="SVGID_2_">
			<use xlink:href="#SVGID_1_"  overflow="visible"/>
		</clipPath>
		
			<line clip-path="url(#SVGID_2_)" fill="none" stroke="#709B8B" stroke-width="2" x1="134.566" y1="110.939" x2="101.642" y2="110.939"/>
	</g>
	<g>
		<defs>
			
				<ellipse id="SVGID_3_" transform="matrix(0.2556 -0.9668 0.9668 0.2556 -8.4427 183.5253)" cx="114.954" cy="97.245" rx="16.164" ry="23.258"/>
		</defs>
		<clipPath id="SVGID_4_">
			<use xlink:href="#SVGID_3_"  overflow="visible"/>
		</clipPath>
		
			<line clip-path="url(#SVGID_4_)" fill="none" stroke="#709B8B" stroke-width="2" x1="94.551" y1="107.122" x2="143.251" y2="107.122"/>
	</g>
	<g>
		<defs>
			
				<ellipse id="SVGID_5_" transform="matrix(0.2556 -0.9668 0.9668 0.2556 -8.4427 183.5253)" cx="114.954" cy="97.245" rx="16.164" ry="23.258"/>
		</defs>
		<clipPath id="SVGID_6_">
			<use xlink:href="#SVGID_5_"  overflow="visible"/>
		</clipPath>
		
			<line clip-path="url(#SVGID_6_)" fill="none" stroke="#709B8B" stroke-width="2" x1="146.225" y1="102.973" x2="90.208" y2="102.973"/>
	</g>
	<g>
		<defs>
			
				<ellipse id="SVGID_7_" transform="matrix(0.2556 -0.9668 0.9668 0.2556 -8.4427 183.5253)" cx="114.954" cy="97.245" rx="16.164" ry="23.258"/>
		</defs>
		<clipPath id="SVGID_8_">
			<use xlink:href="#SVGID_7_"  overflow="visible"/>
		</clipPath>
		
			<line clip-path="url(#SVGID_8_)" fill="none" stroke="#709B8B" stroke-width="2" x1="85.634" y1="99.487" x2="146.225" y2="99.487"/>
	</g>
	<g>
		<defs>
			
				<ellipse id="SVGID_9_" transform="matrix(0.2556 -0.9668 0.9668 0.2556 -8.4427 183.5253)" cx="114.954" cy="97.245" rx="16.164" ry="23.258"/>
		</defs>
		<clipPath id="SVGID_10_">
			<use xlink:href="#SVGID_9_"  overflow="visible"/>
		</clipPath>
		
			<line clip-path="url(#SVGID_10_)" fill="none" stroke="#709B8B" stroke-width="2" x1="144.164" y1="95.668" x2="84.49" y2="95.668"/>
	</g>
	<g>
		<defs>
			
				<ellipse id="SVGID_11_" transform="matrix(0.2556 -0.9668 0.9668 0.2556 -8.4427 183.5253)" cx="114.954" cy="97.245" rx="16.164" ry="23.258"/>
		</defs>
		<clipPath id="SVGID_12_">
			<use xlink:href="#SVGID_11_"  overflow="visible"/>
		</clipPath>
		
			<line clip-path="url(#SVGID_12_)" fill="none" stroke="#709B8B" stroke-width="2" x1="83.577" y1="91.354" x2="140.964" y2="91.354"/>
	</g>
	<g>
		<defs>
			
				<ellipse id="SVGID_13_" transform="matrix(0.2556 -0.9668 0.9668 0.2556 -8.4427 183.5253)" cx="114.954" cy="97.245" rx="16.164" ry="23.258"/>
		</defs>
		<clipPath id="SVGID_14_">
			<use xlink:href="#SVGID_13_"  overflow="visible"/>
		</clipPath>
		
			<line clip-path="url(#SVGID_14_)" fill="none" stroke="#709B8B" stroke-width="2" x1="133.648" y1="87.204" x2="85.634" y2="87.204"/>
	</g>
	<g>
		<defs>
			
				<ellipse id="SVGID_15_" transform="matrix(0.2556 -0.9668 0.9668 0.2556 -8.4427 183.5253)" cx="114.954" cy="97.245" rx="16.164" ry="23.258"/>
		</defs>
		<clipPath id="SVGID_16_">
			<use xlink:href="#SVGID_15_"  overflow="visible"/>
		</clipPath>
		
			<line clip-path="url(#SVGID_16_)" fill="none" stroke="#709B8B" stroke-width="2" x1="92.951" y1="83.552" x2="126.559" y2="83.552"/>
	</g>
</g>
<path fill="#B2D3BD" d="M158.007,101.544c2.072,7.838,12.896,11.775,24.171,8.793c11.279-2.982,18.742-11.752,16.672-19.591
	c-2.074-7.838-12.896-11.774-24.176-8.793C163.396,84.935,155.936,93.707,158.007,101.544z"/>
<g>
	<g>
		<defs>
			<path id="SVGID_17_" d="M158.007,101.544c2.072,7.838,12.896,11.775,24.171,8.793c11.279-2.982,18.742-11.752,16.672-19.591
				c-2.074-7.838-12.896-11.774-24.176-8.793C163.396,84.935,155.936,93.707,158.007,101.544z"/>
		</defs>
		<clipPath id="SVGID_18_">
			<use xlink:href="#SVGID_17_"  overflow="visible"/>
		</clipPath>
		<path clip-path="url(#SVGID_18_)" fill="none" stroke="#709B8B" stroke-width="2" d="M145.889,102.56"/>
	</g>
	<g>
		<defs>
			<path id="SVGID_19_" d="M158.007,101.544c2.072,7.838,12.896,11.775,24.171,8.793c11.279-2.982,18.742-11.752,16.672-19.591
				c-2.074-7.838-12.896-11.774-24.176-8.793C163.396,84.935,155.936,93.707,158.007,101.544z"/>
		</defs>
		<clipPath id="SVGID_20_">
			<use xlink:href="#SVGID_19_"  overflow="visible"/>
		</clipPath>
		<path clip-path="url(#SVGID_20_)" fill="none" stroke="#709B8B" stroke-width="2" d="M145.889,99.074"/>
	</g>
	<g>
		<defs>
			<path id="SVGID_21_" d="M158.007,101.544c2.072,7.838,12.896,11.775,24.171,8.793c11.279-2.982,18.742-11.752,16.672-19.591
				c-2.074-7.838-12.896-11.774-24.176-8.793C163.396,84.935,155.936,93.707,158.007,101.544z"/>
		</defs>
		<clipPath id="SVGID_22_">
			<use xlink:href="#SVGID_21_"  overflow="visible"/>
		</clipPath>
		
			<line clip-path="url(#SVGID_22_)" fill="none" stroke="#709B8B" stroke-width="2" x1="157.705" y1="109.898" x2="190.629" y2="109.898"/>
	</g>
	<g>
		<defs>
			<path id="SVGID_23_" d="M158.007,101.544c2.072,7.838,12.896,11.775,24.171,8.793c11.279-2.982,18.742-11.752,16.672-19.591
				c-2.074-7.838-12.896-11.774-24.176-8.793C163.396,84.935,155.936,93.707,158.007,101.544z"/>
		</defs>
		<clipPath id="SVGID_24_">
			<use xlink:href="#SVGID_23_"  overflow="visible"/>
		</clipPath>
		
			<line clip-path="url(#SVGID_24_)" fill="none" stroke="#709B8B" stroke-width="2" x1="197.721" y1="106.082" x2="149.021" y2="106.082"/>
	</g>
	<g>
		<defs>
			<path id="SVGID_25_" d="M158.007,101.544c2.072,7.838,12.896,11.775,24.171,8.793c11.279-2.982,18.742-11.752,16.672-19.591
				c-2.074-7.838-12.896-11.774-24.176-8.793C163.396,84.935,155.936,93.707,158.007,101.544z"/>
		</defs>
		<clipPath id="SVGID_26_">
			<use xlink:href="#SVGID_25_"  overflow="visible"/>
		</clipPath>
		
			<line clip-path="url(#SVGID_26_)" fill="none" stroke="#709B8B" stroke-width="2" x1="146.048" y1="101.932" x2="202.064" y2="101.932"/>
	</g>
	<g>
		<defs>
			<path id="SVGID_27_" d="M158.007,101.544c2.072,7.838,12.896,11.775,24.171,8.793c11.279-2.982,18.742-11.752,16.672-19.591
				c-2.074-7.838-12.896-11.774-24.176-8.793C163.396,84.935,155.936,93.707,158.007,101.544z"/>
		</defs>
		<clipPath id="SVGID_28_">
			<use xlink:href="#SVGID_27_"  overflow="visible"/>
		</clipPath>
		
			<line clip-path="url(#SVGID_28_)" fill="none" stroke="#709B8B" stroke-width="2" x1="206.637" y1="98.446" x2="146.048" y2="98.446"/>
	</g>
	<g>
		<defs>
			<path id="SVGID_29_" d="M158.007,101.544c2.072,7.838,12.896,11.775,24.171,8.793c11.279-2.982,18.742-11.752,16.672-19.591
				c-2.074-7.838-12.896-11.774-24.176-8.793C163.396,84.935,155.936,93.707,158.007,101.544z"/>
		</defs>
		<clipPath id="SVGID_30_">
			<use xlink:href="#SVGID_29_"  overflow="visible"/>
		</clipPath>
		
			<line clip-path="url(#SVGID_30_)" fill="none" stroke="#709B8B" stroke-width="2" x1="148.107" y1="94.628" x2="207.781" y2="94.628"/>
	</g>
	<g>
		<defs>
			<path id="SVGID_31_" d="M158.007,101.544c2.072,7.838,12.896,11.775,24.171,8.793c11.279-2.982,18.742-11.752,16.672-19.591
				c-2.074-7.838-12.896-11.774-24.176-8.793C163.396,84.935,155.936,93.707,158.007,101.544z"/>
		</defs>
		<clipPath id="SVGID_32_">
			<use xlink:href="#SVGID_31_"  overflow="visible"/>
		</clipPath>
		
			<line clip-path="url(#SVGID_32_)" fill="none" stroke="#709B8B" stroke-width="2" x1="208.693" y1="90.313" x2="151.307" y2="90.313"/>
	</g>
	<g>
		<defs>
			<path id="SVGID_33_" d="M158.007,101.544c2.072,7.838,12.896,11.775,24.171,8.793c11.279-2.982,18.742-11.752,16.672-19.591
				c-2.074-7.838-12.896-11.774-24.176-8.793C163.396,84.935,155.936,93.707,158.007,101.544z"/>
		</defs>
		<clipPath id="SVGID_34_">
			<use xlink:href="#SVGID_33_"  overflow="visible"/>
		</clipPath>
		
			<line clip-path="url(#SVGID_34_)" fill="none" stroke="#709B8B" stroke-width="2" x1="158.623" y1="86.163" x2="206.637" y2="86.163"/>
	</g>
	<g>
		<defs>
			<path id="SVGID_35_" d="M158.007,101.544c2.072,7.838,12.896,11.775,24.171,8.793c11.279-2.982,18.742-11.752,16.672-19.591
				c-2.074-7.838-12.896-11.774-24.176-8.793C163.396,84.935,155.936,93.707,158.007,101.544z"/>
		</defs>
		<clipPath id="SVGID_36_">
			<use xlink:href="#SVGID_35_"  overflow="visible"/>
		</clipPath>
		
			<line clip-path="url(#SVGID_36_)" fill="none" stroke="#709B8B" stroke-width="2" x1="199.32" y1="82.512" x2="165.712" y2="82.512"/>
	</g>
</g>
<path fill="none" stroke="#5EABA8" d="M208.766,289.716c-5.938,41.651-18.094,75.858-62.947,80.111
	c-31.673,3.001-51.777-35.297-53.81-79.526c-2.827-61.555,17.811-75.69,54.208-79.222
	C228.316,203.113,215.719,240.932,208.766,289.716z"/>
<path fill="none" stroke="#5EABA8" d="M169.859,210.54c0,0,9.875,92.969-17.147,158.055"/>
<path fill="none" stroke="#5EABA8" d="M171.619,250.846c0,0,25.633,10.963,42.354-9.77"/>
</svg>
