<?xml version="1.0" encoding="utf-8"?>
<!-- Generator: Adobe Illustrator 15.0.0, SVG Export Plug-In . SVG Version: 6.00 Build 0)  -->
<!DOCTYPE svg PUBLIC "-//W3C//DTD SVG 1.0//EN" "http://www.w3.org/TR/2001/REC-SVG-20010904/DTD/svg10.dtd">
<svg version="1.0" id="Layer_1" xmlns="http://www.w3.org/2000/svg" xmlns:xlink="http://www.w3.org/1999/xlink" x="0px" y="0px"
	 width="250px" height="50px" viewBox="0 0 250 50" enable-background="new 0 0 250 50" xml:space="preserve">
<polygon fill="#FEFAD6" points="76,47.75 1.25,47.75 1.25,3 76,3 76,13 14,13.083 14,20 76.042,19.958 76,29.958 14,30.083 
	13.958,37 76,37 "/>
<polygon fill="#FEFAD6" points="248,47.75 173.25,47.75 173.25,3 248,3 248,13 186,13.083 186,20 248.041,19.959 248,29.958 
	186,30.083 185.959,37 248,37 "/>
<polygon fill="#FEFAD6" points="132.5,47.75 116,47.75 82,3 99,3 125,35 150.5,3 167.5,3 "/>
<polyline fill="#9DD195" points="124.75,17.125 113.75,3 135.75,3 "/>
</svg>
