<?xml version="1.0" encoding="utf-8"?>
<!-- Generator: Adobe Illustrator 15.0.0, SVG Export Plug-In . SVG Version: 6.00 Build 0)  -->
<!DOCTYPE svg PUBLIC "-//W3C//DTD SVG 1.1//EN" "http://www.w3.org/Graphics/SVG/1.1/DTD/svg11.dtd">
<svg version="1.1" id="Layer_1" xmlns="http://www.w3.org/2000/svg" xmlns:xlink="http://www.w3.org/1999/xlink" x="0px" y="0px"
	 width="625px" height="95px" viewBox="0 0 625 95" enable-background="new 0 0 625 95" xml:space="preserve">
<g>
	<path fill="#F9EFD3" d="M33.513,3.002v11.638h-7.402v75.865H10.982V14.641H3.581V3.002H33.513z"/>
	<path fill="#F9EFD3" d="M53.319,3.002v33.407h4.897V3.002h15.022v87.503H58.217V47.94h-4.897v42.566H38.298V3.002H53.319z"/>
	<path fill="#F9EFD3" d="M105.015,3.002v11.423H95.98v22.308h9.034v11.528H95.98v30.713h9.034v11.531H80.851V3.002H105.015z"/>
	<path fill="#F9EFD3" d="M157.363,3.002v11.423h-9.034v22.308h9.034v11.528h-9.034v42.244h-15.13V3.002H157.363z"/>
	<path fill="#F9EFD3" d="M178.693,3.002v72.739c0,2.479,0.544,3.771,2.394,3.771c1.851,0,2.287-1.292,2.287-3.771V3.002h15.129
		v70.692c0,14.763-2.068,17.457-17.306,17.457c-15.457,0-17.634-2.477-17.634-17.457V3.002H178.693z"/>
	<path fill="#F9EFD3" d="M232.893,3.002v11.638h-7.402v75.865h-15.129V14.641h-7.402V3.002H232.893z"/>
	<path fill="#F9EFD3" d="M252.481,3.002v72.739c0,2.479,0.544,3.771,2.394,3.771c1.851,0,2.287-1.292,2.287-3.771V3.002h15.129
		v70.692c0,14.763-2.067,17.457-17.306,17.457c-15.456,0-17.633-2.477-17.633-17.457V3.002H252.481z"/>
	<path fill="#F9EFD3" d="M298.083,3.002c14.258,0,16.435,3.988,16.435,17.782v11.421c0,7.867-0.652,12.285-6.857,15.088
		c5.552,2.154,6.857,6.248,6.857,13.469v29.743h-15.021V58.069c0-2.802-0.979-3.988-3.591-3.988c-0.437,0-0.762,0.109-1.198,0.109
		v36.315h-15.13V3.002H298.083z M294.708,41.15c0.436,0,0.979,0.107,1.306,0.107c2.831,0,3.483-1.078,3.483-4.524V19.921
		c0-4.203,0-5.495-3.809-5.495c-0.326,0-0.653,0-0.979,0V41.15z"/>
	<path fill="#F9EFD3" d="M346.078,3.002v11.423h-9.035v22.308h9.035v11.528h-9.035v30.713h9.035v11.531h-24.165V3.002H346.078z"/>
	<path fill="#F9EFD3" d="M389.174,3.002v87.503h-15.13V3.002H389.174z"/>
	<path fill="#F9EFD3" d="M431.079,33.176h-15.023v-15.41c0-2.586-0.652-3.664-2.502-3.664c-1.742,0-2.179,1.292-2.179,3.664v13.577
		c0,2.804,0.329,3.881,3.376,5.604l9.252,5.281c5.985,3.339,7.076,7.542,7.076,13.254v18.212c0,14.98-1.743,17.457-17.525,17.457
		c-15.239,0-17.415-2.694-17.415-17.457V54.405h15.236v21.336c0,2.479,0.655,3.771,2.505,3.771c1.633,0,2.176-1.292,2.176-3.771
		V57.206c0-2.801-0.217-3.664-3.373-5.495l-9.688-5.604c-5.659-3.233-6.856-7.543-6.856-13.685V19.921
		c0-14.871,2.285-17.458,17.524-17.458c15.673,0,17.416,2.802,17.416,17.458V33.176z"/>
	<path fill="#ADD492" d="M478.963,3.002l1.631,43.643h0.98l6.313-43.643h12.843L487.56,90.506h-13.168l-1.634-44.829h-0.871
		l-6.53,44.829h-12.844l13.169-87.503H478.963z"/>
	<path fill="#ADD492" d="M525.323,2.463c10.776,0,15.674,0.97,15.674,9.052c0,1.94-0.325,4.634-0.871,8.405l-8.164,53.666
		c-2.175,14.655-4.353,17.564-19.7,17.564c-10.886,0-15.783-1.185-15.783-8.944c0-1.4,0.218-4.311,0.873-8.62l8.053-53.666
		C507.69,5.05,509.867,2.463,525.323,2.463z M511.826,75.741c-0.107,0.539-0.107,0.863-0.107,1.186c0,1.726,0.652,2.479,2.177,2.479
		c1.959,0,2.611-1.292,2.937-3.665l8.71-57.868c0.109-0.97,0.216-1.509,0.216-1.616c0-1.292-0.868-2.155-2.285-2.155
		c-1.85,0-2.502,1.401-2.83,3.771L511.826,75.741z"/>
	<path fill="#ADD492" d="M559.714,3.002l-4.464,51.51h0.98l11.863-51.51h12.954l-3.156,51.51h0.978l10.56-51.51h14.042
		l-21.66,87.503h-15.349l3.482-51.403h-0.978l-12.083,51.403h-15.457l3.81-87.503H559.714z"/>
	<path fill="#ADD492" d="M609.885,75.741l-2.178,14.765h-14.91l2.285-14.765H609.885z M620.878,3.002l-12.516,66.38h-9.797
		l7.509-66.38H620.878z"/>
</g>
</svg>
