<?xml version="1.0" encoding="utf-8"?>
<!-- Generator: Adobe Illustrator 15.0.0, SVG Export Plug-In . SVG Version: 6.00 Build 0)  -->
<!DOCTYPE svg PUBLIC "-//W3C//DTD SVG 1.0//EN" "http://www.w3.org/TR/2001/REC-SVG-20010904/DTD/svg10.dtd">
<svg version="1.0" id="Layer_1" xmlns="http://www.w3.org/2000/svg" xmlns:xlink="http://www.w3.org/1999/xlink" x="0px" y="0px"
	 width="72px" height="130px" viewBox="0 0 72 130" enable-background="new 0 0 72 130" xml:space="preserve">
<path fill="#2F979D" d="M70.445,57.266c0,0,3.302,29.832-5.168,52.946c-0.577,2.464-2.657,5.169-2.585,0
	c0,0-4.193-51.847-1.322-51.443C64.243,59.171,70.445,57.266,70.445,57.266z"/>
<path fill="#03594E" d="M61.643,59.211l5.216-1.04c0,0-1.475,33.138-5.011,38.886C60.275,79.516,61.643,59.211,61.643,59.211z"/>
<path fill="#2F979D" d="M59.047,106.606c-5.75,25.176-36.802,36.119-50.178,1.556c-9.208-23.796-7.203-56.236-7.203-56.236h64.208
	C65.874,51.926,63.414,87.487,59.047,106.606z"/>
<path fill="#03594E" d="M65.637,52.387c-1.154,1.292-14.642,2.523-32.348,2.523c-17.707,0-31.231-1.232-31.773-2.523
	c-0.803-1.912,14.354-3.754,32.061-3.754S67.021,50.842,65.637,52.387z"/>
<path fill="#2F979D" d="M66.004,30.42c0,16.799-11.579,21.924-29.805,21.924C17.972,52.344,0,47.219,0,30.42
	C0,13.62,14.775,0,33.001,0S66.004,13.62,66.004,30.42z"/>
<path fill-rule="evenodd" clip-rule="evenodd" fill="#010101" d="M64.686,33.497c-0.235,9.061-12.454,11.318-23.863,11.318
	c-11.407,0-22.819-3.008-23.123-12.066C17.337,21.99,28.567,11.192,39.974,11.192C52.794,11.192,65.108,17.205,64.686,33.497z"/>
<ellipse id="BOTTOM_HIGHLIGHT" fill-rule="evenodd" clip-rule="evenodd" fill="#2F979D" cx="32.417" cy="18.116" rx="1.812" ry="0.667"/>
<path id="TOP_HIGHLIGHT" fill-rule="evenodd" clip-rule="evenodd" fill="#2F979D" d="M39.277,15.411
	c0,0.567-1.393,0.798-3.077,1.027c-2.189,0.297-3.075-0.46-3.075-1.027s1.833-1.221,3.526-1.36
	C38.74,13.878,39.277,14.844,39.277,15.411z"/>
<ellipse transform="matrix(0.9668 0.2556 -0.2556 0.9668 8.6063 -7.7946)" fill="#F6EFCB" cx="34.29" cy="29.212" rx="6.987" ry="4.855"/>
<g>
	<defs>
		
			<ellipse id="SVGID_1_" transform="matrix(0.9668 0.2556 -0.2556 0.9668 8.6046 -7.7794)" cx="34.229" cy="29.212" rx="6.986" ry="4.855"/>
	</defs>
	<clipPath id="SVGID_2_">
		<use xlink:href="#SVGID_1_"  overflow="visible"/>
	</clipPath>
	
		<line clip-path="url(#SVGID_2_)" fill="none" stroke="#709B8B" stroke-width="2" x1="40.122" y1="33.325" x2="30.231" y2="33.325"/>
	
		<line clip-path="url(#SVGID_2_)" fill="none" stroke="#709B8B" stroke-width="2" x1="28.102" y1="32.178" x2="42.729" y2="32.178"/>
	
		<line clip-path="url(#SVGID_2_)" fill="none" stroke="#709B8B" stroke-width="2" x1="43.622" y1="30.932" x2="26.797" y2="30.932"/>
	
		<line clip-path="url(#SVGID_2_)" fill="none" stroke="#709B8B" stroke-width="2" x1="25.423" y1="29.885" x2="43.622" y2="29.885"/>
	
		<line clip-path="url(#SVGID_2_)" fill="none" stroke="#709B8B" stroke-width="2" x1="43.006" y1="28.737" x2="25.079" y2="28.737"/>
	
		<line clip-path="url(#SVGID_2_)" fill="none" stroke="#709B8B" stroke-width="2" x1="24.805" y1="27.441" x2="42.043" y2="27.441"/>
	
		<line clip-path="url(#SVGID_2_)" fill="none" stroke="#709B8B" stroke-width="2" x1="39.846" y1="26.195" x2="25.423" y2="26.195"/>
	
		<line clip-path="url(#SVGID_2_)" fill="none" stroke="#709B8B" stroke-width="2" x1="27.621" y1="25.098" x2="37.716" y2="25.098"/>
</g>
<ellipse transform="matrix(-0.9668 0.2556 -0.2556 -0.9668 112.2068 43.1765)" fill="#F6EFCB" cx="53.297" cy="28.881" rx="6.344" ry="4.409"/>
<g>
	<defs>
		
			<ellipse id="SVGID_3_" transform="matrix(-0.9668 0.2556 -0.2556 -0.9668 112.2068 43.1765)" cx="53.297" cy="28.881" rx="6.344" ry="4.409"/>
	</defs>
	<clipPath id="SVGID_4_">
		<use xlink:href="#SVGID_3_"  overflow="visible"/>
	</clipPath>
	<path clip-path="url(#SVGID_4_)" fill="none" stroke="#709B8B" stroke-width="2" d="M43.522,30.808"/>
	<path clip-path="url(#SVGID_4_)" fill="none" stroke="#709B8B" stroke-width="2" d="M43.522,29.761"/>
	
		<line clip-path="url(#SVGID_4_)" fill="none" stroke="#709B8B" stroke-width="2" x1="47.072" y1="33.012" x2="56.962" y2="33.012"/>
	
		<line clip-path="url(#SVGID_4_)" fill="none" stroke="#709B8B" stroke-width="2" x1="59.093" y1="31.866" x2="44.463" y2="31.866"/>
	
		<line clip-path="url(#SVGID_4_)" fill="none" stroke="#709B8B" stroke-width="2" x1="43.571" y1="30.619" x2="60.396" y2="30.619"/>
	<line clip-path="url(#SVGID_4_)" fill="none" stroke="#709B8B" stroke-width="2" x1="61.77" y1="29.572" x2="43.571" y2="29.572"/>
	
		<line clip-path="url(#SVGID_4_)" fill="none" stroke="#709B8B" stroke-width="2" x1="44.188" y1="28.425" x2="62.113" y2="28.425"/>
	<line clip-path="url(#SVGID_4_)" fill="none" stroke="#709B8B" stroke-width="2" x1="62.39" y1="27.129" x2="45.149" y2="27.129"/>
	<line clip-path="url(#SVGID_4_)" fill="none" stroke="#709B8B" stroke-width="2" x1="47.349" y1="25.883" x2="61.77" y2="25.883"/>
	
		<line clip-path="url(#SVGID_4_)" fill="none" stroke="#709B8B" stroke-width="2" x1="59.573" y1="24.785" x2="49.478" y2="24.785"/>
</g>
<path fill="none" stroke="#03594E" d="M62.41,87.026c-1.783,12.513-5.436,22.788-18.907,24.066
	c-9.516,0.901-15.555-10.604-16.165-23.89c-0.849-18.49,5.349-22.736,16.283-23.797C68.283,61.013,64.499,72.373,62.41,87.026z"/>
<path fill="none" stroke="#03594E" d="M50.723,63.243c0,0,2.967,27.928-5.15,47.479"/>
<path fill="none" stroke="#03594E" d="M51.251,75.352c0,0,7.702,3.293,12.724-2.936"/>
</svg>
