<?xml version="1.0" encoding="utf-8"?>
<!-- Generator: Adobe Illustrator 15.0.0, SVG Export Plug-In . SVG Version: 6.00 Build 0)  -->
<!DOCTYPE svg PUBLIC "-//W3C//DTD SVG 1.0//EN" "http://www.w3.org/TR/2001/REC-SVG-20010904/DTD/svg10.dtd">
<svg version="1.0" id="Layer_1" xmlns="http://www.w3.org/2000/svg" xmlns:xlink="http://www.w3.org/1999/xlink" x="0px" y="0px"
	 width="160px" height="290px" viewBox="0 0 160 290" enable-background="new 0 0 160 290" xml:space="preserve">
<path fill="#7EC4BA" d="M158.573,127.719c0,0,7.433,66.537-11.634,118.086c-1.297,5.495-5.979,11.528-5.816,0
	c0,0-9.438-115.633-2.975-114.735S158.573,127.719,158.573,127.719z"/>
<path fill="#3AA39B" d="M138.762,132.058l11.74-2.319c0,0-3.318,73.905-11.283,86.728
	C135.68,177.344,138.762,132.058,138.762,132.058z"/>
<path fill="#7EC4BA" d="M132.918,237.766c-12.943,56.149-82.845,80.555-112.953,3.467C-0.763,188.162,3.752,115.811,3.752,115.811
	h144.531C148.283,115.811,142.749,195.123,132.918,237.766z"/>
<path fill="#3AA39B" d="M147.752,116.839c-2.6,2.88-32.959,5.627-72.817,5.627c-39.859,0-70.303-2.747-71.523-5.627
	c-1.807-4.264,32.312-8.374,72.17-8.374C115.441,108.465,150.865,113.393,147.752,116.839z"/>
<path fill="#7EC4BA" d="M148.575,67.844c0,37.469-26.063,48.897-67.091,48.897C40.456,116.741,0,105.313,0,67.844
	C0,30.375,33.26,0,74.288,0C115.314,0,148.575,30.375,148.575,67.844z"/>
<path fill="#010101" d="M145.609,74.708c-0.529,20.208-28.035,25.243-53.715,25.243c-25.681,0-51.369-6.707-52.054-26.911
	c-0.814-23.996,24.464-48.08,50.144-48.08C118.84,24.96,146.564,38.371,145.609,74.708z"/>
<ellipse id="BOTTOM_HIGHLIGHT" fill="#7EC4BA" cx="72.972" cy="40.404" rx="4.079" ry="1.488"/>
<path id="TOP_HIGHLIGHT" fill="#7EC4BA" d="M88.416,34.371c0,1.265-3.135,1.781-6.926,2.291c-4.929,0.663-6.924-1.025-6.924-2.291
	s4.128-2.721,7.939-3.033C87.207,30.953,88.416,33.106,88.416,34.371z"/>
<path fill="#7EC4BA" d="M92.391,69.133c-1.543,5.782-9.602,8.686-17.998,6.486c-8.397-2.2-13.953-8.67-12.41-14.452
	c1.542-5.782,9.6-8.686,17.998-6.486C88.377,56.881,93.934,63.352,92.391,69.133z"/>
<g>
	<g>
		<defs>
			<path id="SVGID_1_" d="M92.255,69.133c-1.543,5.782-9.601,8.686-17.998,6.486c-8.397-2.2-13.953-8.67-12.41-14.452
				s9.6-8.686,17.998-6.486C88.242,56.881,93.798,63.352,92.255,69.133z"/>
		</defs>
		<clipPath id="SVGID_2_">
			<use xlink:href="#SVGID_1_"  overflow="visible"/>
		</clipPath>
		
			<line clip-path="url(#SVGID_2_)" fill="none" stroke="#709B8B" stroke-width="2" x1="90.314" y1="74.325" x2="68.052" y2="74.325"/>
	</g>
	<g>
		<defs>
			<path id="SVGID_3_" d="M92.255,69.133c-1.543,5.782-9.601,8.686-17.998,6.486c-8.397-2.2-13.953-8.67-12.41-14.452
				s9.6-8.686,17.998-6.486C88.242,56.881,93.798,63.352,92.255,69.133z"/>
		</defs>
		<clipPath id="SVGID_4_">
			<use xlink:href="#SVGID_3_"  overflow="visible"/>
		</clipPath>
		
			<line clip-path="url(#SVGID_4_)" fill="none" stroke="#709B8B" stroke-width="2" x1="63.258" y1="71.767" x2="96.188" y2="71.767"/>
	</g>
	<g>
		<defs>
			<path id="SVGID_5_" d="M92.255,69.133c-1.543,5.782-9.601,8.686-17.998,6.486c-8.397-2.2-13.953-8.67-12.41-14.452
				s9.6-8.686,17.998-6.486C88.242,56.881,93.798,63.352,92.255,69.133z"/>
		</defs>
		<clipPath id="SVGID_6_">
			<use xlink:href="#SVGID_5_"  overflow="visible"/>
		</clipPath>
		
			<line clip-path="url(#SVGID_6_)" fill="none" stroke="#709B8B" stroke-width="2" x1="98.198" y1="68.987" x2="60.32" y2="68.987"/>
	</g>
	<g>
		<defs>
			<path id="SVGID_7_" d="M92.255,69.133c-1.543,5.782-9.601,8.686-17.998,6.486c-8.397-2.2-13.953-8.67-12.41-14.452
				s9.6-8.686,17.998-6.486C88.242,56.881,93.798,63.352,92.255,69.133z"/>
		</defs>
		<clipPath id="SVGID_8_">
			<use xlink:href="#SVGID_7_"  overflow="visible"/>
		</clipPath>
		
			<line clip-path="url(#SVGID_8_)" fill="none" stroke="#709B8B" stroke-width="2" x1="57.229" y1="66.652" x2="98.198" y2="66.652"/>
	</g>
	<g>
		<defs>
			<path id="SVGID_9_" d="M92.255,69.133c-1.543,5.782-9.601,8.686-17.998,6.486c-8.397-2.2-13.953-8.67-12.41-14.452
				s9.6-8.686,17.998-6.486C88.242,56.881,93.798,63.352,92.255,69.133z"/>
		</defs>
		<clipPath id="SVGID_10_">
			<use xlink:href="#SVGID_9_"  overflow="visible"/>
		</clipPath>
		
			<line clip-path="url(#SVGID_10_)" fill="none" stroke="#709B8B" stroke-width="2" x1="96.805" y1="64.093" x2="56.455" y2="64.093"/>
	</g>
	<g>
		<defs>
			<path id="SVGID_11_" d="M92.255,69.133c-1.543,5.782-9.601,8.686-17.998,6.486c-8.397-2.2-13.953-8.67-12.41-14.452
				s9.6-8.686,17.998-6.486C88.242,56.881,93.798,63.352,92.255,69.133z"/>
		</defs>
		<clipPath id="SVGID_12_">
			<use xlink:href="#SVGID_11_"  overflow="visible"/>
		</clipPath>
		
			<line clip-path="url(#SVGID_12_)" fill="none" stroke="#709B8B" stroke-width="2" x1="55.837" y1="61.203" x2="94.643" y2="61.203"/>
	</g>
	<g>
		<defs>
			<path id="SVGID_13_" d="M92.255,69.133c-1.543,5.782-9.601,8.686-17.998,6.486c-8.397-2.2-13.953-8.67-12.41-14.452
				s9.6-8.686,17.998-6.486C88.242,56.881,93.798,63.352,92.255,69.133z"/>
		</defs>
		<clipPath id="SVGID_14_">
			<use xlink:href="#SVGID_13_"  overflow="visible"/>
		</clipPath>
		
			<line clip-path="url(#SVGID_14_)" fill="none" stroke="#709B8B" stroke-width="2" x1="89.695" y1="58.423" x2="57.229" y2="58.423"/>
	</g>
	<g>
		<defs>
			<path id="SVGID_15_" d="M92.255,69.133c-1.543,5.782-9.601,8.686-17.998,6.486c-8.397-2.2-13.953-8.67-12.41-14.452
				s9.6-8.686,17.998-6.486C88.242,56.881,93.798,63.352,92.255,69.133z"/>
		</defs>
		<clipPath id="SVGID_16_">
			<use xlink:href="#SVGID_15_"  overflow="visible"/>
		</clipPath>
		
			<line clip-path="url(#SVGID_16_)" fill="none" stroke="#709B8B" stroke-width="2" x1="62.176" y1="55.976" x2="84.9" y2="55.976"/>
	</g>
</g>
<path fill="#7EC4BA" d="M106.166,68.03c1.4,5.251,8.719,7.888,16.344,5.891c7.627-1.998,12.674-7.874,11.271-13.125
	c-1.4-5.251-8.719-7.889-16.346-5.891C109.811,56.902,104.766,62.779,106.166,68.03z"/>
<g>
	<g>
		<defs>
			<path id="SVGID_17_" d="M106.166,68.03c1.4,5.251,8.719,7.888,16.344,5.891c7.627-1.998,12.674-7.874,11.271-13.125
				c-1.4-5.251-8.719-7.889-16.346-5.891C109.811,56.902,104.766,62.779,106.166,68.03z"/>
		</defs>
		<clipPath id="SVGID_18_">
			<use xlink:href="#SVGID_17_"  overflow="visible"/>
		</clipPath>
		<path clip-path="url(#SVGID_18_)" fill="none" stroke="#709B8B" stroke-width="2" d="M97.971,68.711"/>
	</g>
	<g>
		<defs>
			<path id="SVGID_19_" d="M106.166,68.03c1.4,5.251,8.719,7.888,16.344,5.891c7.627-1.998,12.674-7.874,11.271-13.125
				c-1.4-5.251-8.719-7.889-16.346-5.891C109.811,56.902,104.766,62.779,106.166,68.03z"/>
		</defs>
		<clipPath id="SVGID_20_">
			<use xlink:href="#SVGID_19_"  overflow="visible"/>
		</clipPath>
		<path clip-path="url(#SVGID_20_)" fill="none" stroke="#709B8B" stroke-width="2" d="M97.971,66.375"/>
	</g>
	<g>
		<defs>
			<path id="SVGID_21_" d="M106.166,68.03c1.4,5.251,8.719,7.888,16.344,5.891c7.627-1.998,12.674-7.874,11.271-13.125
				c-1.4-5.251-8.719-7.889-16.346-5.891C109.811,56.902,104.766,62.779,106.166,68.03z"/>
		</defs>
		<clipPath id="SVGID_22_">
			<use xlink:href="#SVGID_21_"  overflow="visible"/>
		</clipPath>
		
			<line clip-path="url(#SVGID_22_)" fill="none" stroke="#709B8B" stroke-width="2" x1="105.962" y1="73.627" x2="128.225" y2="73.627"/>
	</g>
	<g>
		<defs>
			<path id="SVGID_23_" d="M106.166,68.03c1.4,5.251,8.719,7.888,16.344,5.891c7.627-1.998,12.674-7.874,11.271-13.125
				c-1.4-5.251-8.719-7.889-16.346-5.891C109.811,56.902,104.766,62.779,106.166,68.03z"/>
		</defs>
		<clipPath id="SVGID_24_">
			<use xlink:href="#SVGID_23_"  overflow="visible"/>
		</clipPath>
		
			<line clip-path="url(#SVGID_24_)" fill="none" stroke="#709B8B" stroke-width="2" x1="133.02" y1="71.07" x2="100.089" y2="71.07"/>
	</g>
	<g>
		<defs>
			<path id="SVGID_25_" d="M106.166,68.03c1.4,5.251,8.719,7.888,16.344,5.891c7.627-1.998,12.674-7.874,11.271-13.125
				c-1.4-5.251-8.719-7.889-16.346-5.891C109.811,56.902,104.766,62.779,106.166,68.03z"/>
		</defs>
		<clipPath id="SVGID_26_">
			<use xlink:href="#SVGID_25_"  overflow="visible"/>
		</clipPath>
		
			<line clip-path="url(#SVGID_26_)" fill="none" stroke="#709B8B" stroke-width="2" x1="98.08" y1="68.29" x2="135.957" y2="68.29"/>
	</g>
	<g>
		<defs>
			<path id="SVGID_27_" d="M106.166,68.03c1.4,5.251,8.719,7.888,16.344,5.891c7.627-1.998,12.674-7.874,11.271-13.125
				c-1.4-5.251-8.719-7.889-16.346-5.891C109.811,56.902,104.766,62.779,106.166,68.03z"/>
		</defs>
		<clipPath id="SVGID_28_">
			<use xlink:href="#SVGID_27_"  overflow="visible"/>
		</clipPath>
		
			<line clip-path="url(#SVGID_28_)" fill="none" stroke="#709B8B" stroke-width="2" x1="139.048" y1="65.955" x2="98.08" y2="65.955"/>
	</g>
	<g>
		<defs>
			<path id="SVGID_29_" d="M106.166,68.03c1.4,5.251,8.719,7.888,16.344,5.891c7.627-1.998,12.674-7.874,11.271-13.125
				c-1.4-5.251-8.719-7.889-16.346-5.891C109.811,56.902,104.766,62.779,106.166,68.03z"/>
		</defs>
		<clipPath id="SVGID_30_">
			<use xlink:href="#SVGID_29_"  overflow="visible"/>
		</clipPath>
		
			<line clip-path="url(#SVGID_30_)" fill="none" stroke="#709B8B" stroke-width="2" x1="99.473" y1="63.396" x2="139.822" y2="63.396"/>
	</g>
	<g>
		<defs>
			<path id="SVGID_31_" d="M106.166,68.03c1.4,5.251,8.719,7.888,16.344,5.891c7.627-1.998,12.674-7.874,11.271-13.125
				c-1.4-5.251-8.719-7.889-16.346-5.891C109.811,56.902,104.766,62.779,106.166,68.03z"/>
		</defs>
		<clipPath id="SVGID_32_">
			<use xlink:href="#SVGID_31_"  overflow="visible"/>
		</clipPath>
		
			<line clip-path="url(#SVGID_32_)" fill="none" stroke="#709B8B" stroke-width="2" x1="140.439" y1="60.506" x2="101.635" y2="60.506"/>
	</g>
	<g>
		<defs>
			<path id="SVGID_33_" d="M106.166,68.03c1.4,5.251,8.719,7.888,16.344,5.891c7.627-1.998,12.674-7.874,11.271-13.125
				c-1.4-5.251-8.719-7.889-16.346-5.891C109.811,56.902,104.766,62.779,106.166,68.03z"/>
		</defs>
		<clipPath id="SVGID_34_">
			<use xlink:href="#SVGID_33_"  overflow="visible"/>
		</clipPath>
		
			<line clip-path="url(#SVGID_34_)" fill="none" stroke="#709B8B" stroke-width="2" x1="106.582" y1="57.726" x2="139.048" y2="57.726"/>
	</g>
	<g>
		<defs>
			<path id="SVGID_35_" d="M106.166,68.03c1.4,5.251,8.719,7.888,16.344,5.891c7.627-1.998,12.674-7.874,11.271-13.125
				c-1.4-5.251-8.719-7.889-16.346-5.891C109.811,56.902,104.766,62.779,106.166,68.03z"/>
		</defs>
		<clipPath id="SVGID_36_">
			<use xlink:href="#SVGID_35_"  overflow="visible"/>
		</clipPath>
		
			<line clip-path="url(#SVGID_36_)" fill="none" stroke="#709B8B" stroke-width="2" x1="134.102" y1="55.279" x2="111.376" y2="55.279"/>
	</g>
</g>
<path fill="none" stroke="#3AA39B" d="M140.486,194.098c-4.014,27.904-12.232,50.82-42.563,53.67
	c-21.417,2.012-35.012-23.646-36.385-53.277c-1.912-41.239,12.042-50.71,36.654-53.076
	C153.709,136.077,145.189,161.412,140.486,194.098z"/>
<path fill="none" stroke="#3AA39B" d="M114.18,141.053c0,0,6.678,62.285-11.594,105.891"/>
<path fill="none" stroke="#3AA39B" d="M115.37,168.057c0,0,17.333,7.344,28.64-6.547"/>
</svg>
