<?xml version="1.0" encoding="utf-8"?>
<!-- Generator: Adobe Illustrator 15.0.0, SVG Export Plug-In . SVG Version: 6.00 Build 0)  -->
<!DOCTYPE svg PUBLIC "-//W3C//DTD SVG 1.0//EN" "http://www.w3.org/TR/2001/REC-SVG-20010904/DTD/svg10.dtd">
<svg version="1.0" id="Layer_1" xmlns="http://www.w3.org/2000/svg" xmlns:xlink="http://www.w3.org/1999/xlink" x="0px" y="0px"
	 width="380px" height="688px" viewBox="0 0 380 688" enable-background="new 0 0 380 688" xml:space="preserve">
<path fill="#F6EFCB" d="M372.783,303.079c0,0,17.468,157.82-27.341,280.095c-3.048,13.033-14.052,27.344-13.67,0
	c0,0-22.178-274.275-6.988-272.146C339.974,313.158,372.783,303.079,372.783,303.079z"/>
<path fill="#C6D9B6" d="M326.224,313.369l27.59-5.501c0,0-7.799,175.3-26.515,205.713
	C318.982,420.785,326.224,313.369,326.224,313.369z"/>
<path fill="#F6EFCB" d="M312.491,564.101c-30.421,133.186-194.694,191.073-265.451,8.227
	C-1.671,446.445,8.938,274.832,8.938,274.832h339.664C348.602,274.832,335.594,462.958,312.491,564.101z"/>
<path fill="#CDDDBF" d="M347.353,277.271c-6.11,6.831-77.456,13.347-171.128,13.347S11.005,284.102,8.138,277.271
	c-4.247-10.114,75.936-19.862,169.608-19.862C271.418,257.409,354.668,269.096,347.353,277.271z"/>
<path fill="#F6EFCB" d="M349.286,161.058c0,88.875-61.252,115.982-157.671,115.982c-96.419,0-191.495-27.106-191.495-115.982
	c0-88.875,78.165-160.922,174.584-160.922C271.123,0.136,349.286,72.184,349.286,161.058z"/>
<path fill-rule="evenodd" clip-rule="evenodd" fill="#010101" d="M342.318,177.34c-1.247,47.933-65.887,59.875-126.237,59.875
	c-60.35,0-120.721-15.91-122.33-63.833C91.839,116.465,151.244,59.34,211.593,59.34C279.406,59.34,344.56,91.15,342.318,177.34z"/>
<ellipse id="BOTTOM_HIGHLIGHT" fill-rule="evenodd" clip-rule="evenodd" fill="#F6EFCB" cx="171.611" cy="95.972" rx="9.586" ry="3.529"/>
<path id="TOP_HIGHLIGHT" fill-rule="evenodd" clip-rule="evenodd" fill="#F6EFCB" d="M207.906,81.662
	c0,3.001-7.367,4.226-16.274,5.434c-11.585,1.571-16.273-2.433-16.273-5.434c0-3,9.703-6.454,18.659-7.194
	C205.066,73.555,207.906,78.662,207.906,81.662z"/>
<ellipse transform="matrix(0.9668 0.2556 -0.2556 0.9668 45.5665 -41.2601)" fill="#F6EFCB" cx="181.515" cy="154.669" rx="36.959" ry="25.686"/>
<g>
	<defs>
		
			<ellipse id="SVGID_1_" transform="matrix(0.9668 0.2556 -0.2556 0.9668 45.5569 -41.1796)" cx="181.198" cy="154.669" rx="36.958" ry="25.686"/>
	</defs>
	<clipPath id="SVGID_2_">
		<use xlink:href="#SVGID_1_"  overflow="visible"/>
	</clipPath>
	
		<line clip-path="url(#SVGID_2_)" fill="none" stroke="#709B8B" stroke-width="2" x1="212.37" y1="176.43" x2="160.05" y2="176.43"/>
	
		<line clip-path="url(#SVGID_2_)" fill="none" stroke="#709B8B" stroke-width="2" x1="148.783" y1="170.363" x2="226.171" y2="170.363"/>
	
		<line clip-path="url(#SVGID_2_)" fill="none" stroke="#709B8B" stroke-width="2" x1="230.896" y1="163.77" x2="141.879" y2="163.77"/>
	
		<line clip-path="url(#SVGID_2_)" fill="none" stroke="#709B8B" stroke-width="2" x1="134.613" y1="158.23" x2="230.896" y2="158.23"/>
	
		<line clip-path="url(#SVGID_2_)" fill="none" stroke="#709B8B" stroke-width="2" x1="227.622" y1="152.162" x2="132.794" y2="152.162"/>
	
		<line clip-path="url(#SVGID_2_)" fill="none" stroke="#709B8B" stroke-width="2" x1="131.344" y1="145.306" x2="222.537" y2="145.306"/>
	
		<line clip-path="url(#SVGID_2_)" fill="none" stroke="#709B8B" stroke-width="2" x1="210.912" y1="138.711" x2="134.613" y2="138.711"/>
	
		<line clip-path="url(#SVGID_2_)" fill="none" stroke="#709B8B" stroke-width="2" x1="146.239" y1="132.908" x2="199.646" y2="132.908"/>
</g>
<ellipse transform="matrix(-0.9668 0.2556 -0.2556 -0.9668 593.8597 228.6561)" fill="#F6EFCB" cx="282.071" cy="152.92" rx="33.565" ry="23.327"/>
<g>
	<defs>
		
			<ellipse id="SVGID_3_" transform="matrix(-0.9668 0.2556 -0.2556 -0.9668 593.8597 228.6561)" cx="282.071" cy="152.92" rx="33.565" ry="23.327"/>
	</defs>
	<clipPath id="SVGID_4_">
		<use xlink:href="#SVGID_3_"  overflow="visible"/>
	</clipPath>
	<path clip-path="url(#SVGID_4_)" fill="none" stroke="#709B8B" stroke-width="2" d="M230.361,163.114"/>
	<path clip-path="url(#SVGID_4_)" fill="none" stroke="#709B8B" stroke-width="2" d="M230.361,157.574"/>
	
		<line clip-path="url(#SVGID_4_)" fill="none" stroke="#709B8B" stroke-width="2" x1="249.141" y1="174.775" x2="301.461" y2="174.775"/>
	
		<line clip-path="url(#SVGID_4_)" fill="none" stroke="#709B8B" stroke-width="2" x1="312.728" y1="168.71" x2="235.339" y2="168.71"/>
	
		<line clip-path="url(#SVGID_4_)" fill="none" stroke="#709B8B" stroke-width="2" x1="230.617" y1="162.116" x2="319.632" y2="162.116"/>
	
		<line clip-path="url(#SVGID_4_)" fill="none" stroke="#709B8B" stroke-width="2" x1="326.896" y1="156.576" x2="230.617" y2="156.576"/>
	
		<line clip-path="url(#SVGID_4_)" fill="none" stroke="#709B8B" stroke-width="2" x1="233.889" y1="150.509" x2="328.717" y2="150.509"/>
	
		<line clip-path="url(#SVGID_4_)" fill="none" stroke="#709B8B" stroke-width="2" x1="330.168" y1="143.652" x2="238.973" y2="143.652"/>
	
		<line clip-path="url(#SVGID_4_)" fill="none" stroke="#709B8B" stroke-width="2" x1="250.6" y1="137.058" x2="326.896" y2="137.058"/>
	
		<line clip-path="url(#SVGID_4_)" fill="none" stroke="#709B8B" stroke-width="2" x1="315.272" y1="131.255" x2="261.864" y2="131.255"/>
</g>
<path fill="none" stroke="#C6D9B6" d="M330.279,460.523c-9.435,66.188-28.751,120.546-100.028,127.304
	c-50.333,4.77-82.282-56.09-85.509-126.374c-4.493-97.817,28.302-120.28,86.14-125.892
	C361.352,322.903,341.33,382.998,330.279,460.523z"/>
<path fill="none" stroke="#C6D9B6" d="M268.454,334.705c0,0,15.693,147.736-27.247,251.165"/>
<path fill="none" stroke="#C6D9B6" d="M271.251,398.755c0,0,40.733,17.419,67.306-15.525"/>
</svg>
