<?xml version="1.0" standalone="no"?>
<!DOCTYPE svg PUBLIC "-//W3C//DTD SVG 1.1//EN" "http://www.w3.org/Graphics/SVG/1.1/DTD/svg11.dtd" >
<svg xmlns="http://www.w3.org/2000/svg">
<metadata>
This is a custom SVG webfont generated by Font Squirrel.
Copyright   : 4.1 (c)1986-92 by Richard A. Ware. All Rights Reserved.
</metadata>
<defs>
<font id="webfont" horiz-adv-x="220" >
<font-face units-per-em="1000" ascent="800" descent="-200" />
<missing-glyph horiz-adv-x="180" />
<glyph unicode=" "  horiz-adv-x="180" />
<glyph unicode="&#x09;" horiz-adv-x="180" />
<glyph unicode="&#xa0;" horiz-adv-x="180" />
<glyph unicode="!" horiz-adv-x="128" d="M81 150v659l-30 -1v-658h30zM102 34q0 15 -10.5 25.5t-25.5 10.5t-25.5 -10.5t-10.5 -25.5t10.5 -25.5t25.5 -10.5t25.5 10.5t10.5 25.5z" />
<glyph unicode="&#x22;" horiz-adv-x="232" d="M102 818h-31l6 -168h19zM167 818h-31l6 -168h19z" />
<glyph unicode="#" horiz-adv-x="302" d="M171 758h-24l-29 -124h-64l-6 -24h64l-28 -112h-52l-8 -24h55l-30 -124h24l30 124h55l-30 -124h24l30 124h64l8 24h-66l27 112h61l6 24h-61l29 124h-24l-29 -124h-55zM136 610h55l-27 -112h-56z" />
<glyph unicode="$" d="M104 780v-292q-17 0 -27 7.5t-10 24.5v219q0 41 37 41zM104 458v-431h-4q-33 0 -33 41v88h-30v-94q0 -35 20 -50t46 -15h1v-42h27v42h3q31 0 48.5 18.5t17.5 44.5v360q0 34 -19 51t-50 17v292q21 0 30 -9t9 -32v-88h30v92q0 34 -20 50.5t-49 16.5v31h-26v-31 q-30 0 -49 -17.5t-19 -46.5v-226q0 -31 19 -46.5t48 -15.5zM131 27v431q39 0 39 -41v-346q0 -23 -10.5 -33.5t-24.5 -10.5h-4z" />
<glyph unicode="%" horiz-adv-x="390" d="M54 -27h30l247 851h-30zM54 486v273q0 17 7 27t27 10h22q14 0 24 -8t10 -28v-272q0 -23 -8.5 -32t-25.5 -9h-22q-18 0 -26 11t-8 28zM174 482v282q0 24 -17 43t-46 19h-25q-31 0 -46.5 -18.5t-15.5 -43.5v-282q0 -32 18 -48.5t47 -16.5h20q33 0 49 18t16 47zM249 63v273 q0 17 7 27t27 10h22q14 0 24 -8t10 -28v-272q0 -23 -8.5 -32t-25.5 -9h-22q-18 0 -26 11t-8 28zM369 59v282q0 24 -17 43t-46 19h-25q-31 0 -46.5 -18.5t-15.5 -43.5v-282q0 -32 18 -48.5t47 -16.5h20q33 0 49 18t16 47z" />
<glyph unicode="&#x26;" d="M126 71h12q29 0 45.5 16t16.5 43v100h-30v-95q0 -34 -34 -34h-44q-18 0 -26 9t-8 24v240q0 41 34 41h61v30h-61q-18 0 -26 10.5t-8 25.5v166q0 23 8.5 32t25.5 9h46q16 0 24 -9t8 -32v-88h30v101q0 27 -16.5 42.5t-45.5 15.5h-12v80h-26v-80h-10q-32 0 -47 -16t-15 -42 v-187q0 -19 9 -28.5t21 -14.5q-12 -6 -21 -17.5t-9 -37.5v-246q0 -58 62 -58h10v-73h26v73z" />
<glyph unicode="'" horiz-adv-x="176" d="M100 818h-32l6 -168h20z" />
<glyph unicode="(" horiz-adv-x="135" d="M27 746v-713q0 -43 16.5 -68.5t52.5 -25.5h28v28h-30q-18 0 -27.5 14.5t-9.5 49.5v717q0 35 9.5 49.5t27.5 14.5h30v28h-28q-36 0 -52.5 -25.5t-16.5 -68.5z" />
<glyph unicode=")" horiz-adv-x="135" d="M46 -61q36 0 52.5 25.5t16.5 68.5v713q0 43 -16.5 68.5t-52.5 25.5h-28v-28h30q18 0 27.5 -14.5t9.5 -49.5v-717q0 -35 -9.5 -49.5t-27.5 -14.5h-30v-28h28z" />
<glyph unicode="*" horiz-adv-x="230" d="M181 691l-58 20l58 19q18 6 23.5 13.5t5.5 12.5q0 7 -5 11t-11 4q-8 0 -15.5 -5t-12.5 -10l-46 -40l12 60q2 7 2 10v7q0 11 -5.5 17t-11.5 6t-11.5 -5.5t-5.5 -17.5v-6q0 -3 2 -11l12 -60l-46 41q-15 14 -28 14q-16 0 -16 -15q0 -10 8 -15t21 -10l58 -20l-58 -19 q-17 -5 -23 -12t-6 -14q0 -15 16 -15q9 -1 16 5l12 10l46 40l-12 -60q-2 -7 -2 -11v-6q0 -11 5.5 -17t11.5 -6t11.5 5.5t5.5 17.5v5q0 4 -2 12l-12 60l46 -41q17 -14 28 -14q16 0 16 15q0 11 -9.5 16.5t-19.5 8.5z" />
<glyph unicode="+" horiz-adv-x="188" d="M31 458h51v-51h30v51h50v30h-50v50h-30v-50h-51v-30z" />
<glyph unicode="," horiz-adv-x="216" d="M154 75h-48l-40 -168h16z" />
<glyph unicode="-" horiz-adv-x="188" d="M146 488h-96v-30h96v30z" />
<glyph unicode="." horiz-adv-x="216" d="M141 34q0 15 -10.5 25.5t-25.5 10.5t-25.5 -10.5t-10.5 -25.5t10.5 -25.5t25.5 -10.5t25.5 10.5t10.5 25.5z" />
<glyph unicode="/" horiz-adv-x="207" d="M28 -27h30l131 851h-30z" />
<glyph unicode="0" horiz-adv-x="230" d="M67 89v631q0 29 12 44.5t35 15.5h10q21 0 33.5 -16t12.5 -43v-633q0 -27 -12.5 -43t-33.5 -16h-10q-23 0 -35 15.5t-12 44.5zM114 810q-29 0 -53 -22.5t-24 -68.5v-629q0 -46 24 -68.5t53 -22.5h12q33 0 53.5 24.5t20.5 66.5v629q0 42 -20.5 66.5t-53.5 24.5h-12z" />
<glyph unicode="1" horiz-adv-x="184" d="M90 0h30v810h-30l-52 -95l23 -13l29 54v-756z" />
<glyph unicode="2" d="M99 488q-29 0 -46 -17t-17 -49v-422h164v30h-134v387q0 41 34 41h36q33 0 48 16.5t15 47.5v230q0 26 -17.5 42t-45.5 16h-37q-29 0 -46 -16t-17 -46v-97h30v88q0 24 9 32.5t25 8.5h35q34 0 34 -41v-210q0 -18 -8.5 -29.5t-25.5 -11.5h-36z" />
<glyph unicode="3" d="M132 810h-50q-24 0 -42 -16t-18 -47v-96h30v95q0 34 30 34h50q33 0 33 -33v-219q0 -19 -6.5 -29.5t-27.5 -10.5h-61v-30h61q34 0 34 -38v-349q0 -41 -35 -41h-42q-17 0 -26.5 8.5t-9.5 25.5v95h-30v-101q0 -24 17.5 -41t45.5 -17h47q32 0 47.5 16t15.5 42v368 q0 17 -8.5 30.5t-21.5 16.5q30 6 30 43v236q0 27 -17 42.5t-46 15.5z" />
<glyph unicode="4" horiz-adv-x="202" d="M128 328h-72l72 330v-330zM158 328v482h-20l-118 -512h108v-298h30v298h32v30h-32z" />
<glyph unicode="5" d="M33 810v-354h98q34 0 34 -35v-357q0 -17 -10 -25.5t-24 -8.5h-35q-34 0 -34 34v95h-30v-97q0 -27 17 -44.5t45 -17.5h38q25 0 44 16.5t19 45.5v365q0 27 -18 43t-45 16h-69v294h133v30h-163z" />
<glyph unicode="6" d="M159 714h30v38q0 26 -19 42t-46 16h-35q-28 0 -45.5 -18t-17.5 -42v-694q0 -24 17 -41.5t47 -17.5h36q32 0 47.5 18t15.5 41v372q0 26 -17 42t-46 16h-37q-12 0 -19.5 -3t-13.5 -9v270q0 15 8.5 25.5t25.5 10.5h32q18 0 27.5 -10t9.5 -25v-31zM125 456q17 0 25.5 -11 t8.5 -29v-352q0 -37 -34 -37h-34q-15 0 -25 10t-10 27v352q0 23 9 31.5t25 8.5h35z" />
<glyph unicode="7" horiz-adv-x="170" d="M52 0l98 780v30h-120v-30h90l-100 -780h32z" />
<glyph unicode="8" horiz-adv-x="222" d="M55 512v234q0 16 9 25t24 9h46q15 0 24.5 -8.5t9.5 -25.5v-234q0 -41 -34 -41h-45q-34 0 -34 41zM25 408v-343q0 -32 16.5 -48.5t46.5 -16.5h47q30 0 46.5 17t16.5 49v341q0 20 -10.5 32.5t-19.5 16.5q10 5 20 14t10 29v251q0 28 -16 44t-47 16h-47q-31 0 -47 -16 t-16 -44v-251q0 -20 10 -29t20 -14q-10 -5 -20 -16.5t-10 -31.5zM55 71v329q0 23 9 32t25 9h45q14 0 24 -8.5t10 -32.5v-329q0 -41 -34 -41h-45q-19 0 -26.5 11t-7.5 30z" />
<glyph unicode="9" d="M66 95h-30v-37q0 -27 18 -42.5t44 -15.5h38q26 0 44 16t18 42v694q0 26 -17.5 42t-44.5 16h-40q-27 0 -43.5 -16t-16.5 -41v-256q0 -26 15.5 -44.5t46.5 -18.5h38q14 0 21 4t11 9v-383q0 -16 -6.5 -25t-27.5 -9h-34q-34 0 -34 34v31zM100 464q-14 0 -24 8.5t-10 23.5v251 q0 17 9.5 25t24.5 8h32q20 0 28 -10t8 -24v-248q0 -34 -34 -34h-34z" />
<glyph unicode=":" horiz-adv-x="216" d="M141 34q0 15 -10.5 25.5t-25.5 10.5t-25.5 -10.5t-10.5 -25.5t10.5 -25.5t25.5 -10.5t25.5 10.5t10.5 25.5zM141 626q0 15 -10.5 25.5t-25.5 10.5t-25.5 -10.5t-10.5 -25.5t10.5 -25.5t25.5 -10.5t25.5 10.5t10.5 25.5z" />
<glyph unicode=";" horiz-adv-x="216" d="M144 75h-56l-40 -168h24zM141 626q0 15 -10.5 25.5t-25.5 10.5t-25.5 -10.5t-10.5 -25.5t10.5 -25.5t25.5 -10.5t25.5 10.5t10.5 25.5z" />
<glyph unicode="&#x3c;" horiz-adv-x="166" d="M108 628l-77 -155l77 -155h28l-75 155l75 155h-28z" />
<glyph unicode="=" horiz-adv-x="188" d="M146 525h-96v-30h96v30zM146 450h-96v-30h96v30z" />
<glyph unicode="&#x3e;" horiz-adv-x="166" d="M63 318l77 155l-77 155h-28l75 -155l-75 -155h28z" />
<glyph unicode="?" d="M93 447q-15 -11 -20 -24t-5 -31v-242h30v238q0 17 6 26t18 18l58 44q19 14 19 46v226q0 29 -17.5 45.5t-49.5 16.5h-30q-32 0 -49 -18.5t-17 -47.5v-93h30v88q0 41 34 41h33q20 0 28 -10.5t8 -30.5v-210q0 -14 -3.5 -21.5t-11.5 -14.5zM120 34q0 15 -10.5 25.5 t-25.5 10.5t-25.5 -10.5t-10.5 -25.5t10.5 -25.5t25.5 -10.5t25.5 10.5t10.5 25.5z" />
<glyph unicode="@" horiz-adv-x="344" d="M160 219q-34 0 -34 39v128q0 21 10 31t24 10h14q34 0 34 -34v-174h-48zM218 68q31 0 51.5 8t32.5 21t17 29.5t5 33.5v11h-30v-13q0 -62 -74 -62h-94q-34 0 -53 21t-19 53v482q0 76 72 76h94q35 0 54 -21t19 -55v-387q0 -46 -37 -46h-18v366q0 9 -3.5 19t-11 19t-19 15 t-28.5 6h-18q-17 0 -28.5 -6t-19 -15t-11 -19t-3.5 -19v-37h30v24q0 21 9.5 31.5t24.5 10.5h14q16 0 25 -9.5t9 -32.5v-128q-9 13 -32 13h-18q-31 0 -46.5 -20t-15.5 -49v-130q0 -35 19 -52t45 -17h78q48 0 66.5 20t18.5 65v377q0 50 -29 77.5t-76 27.5h-89q-51 0 -78 -29.5 t-27 -75.5v-478q0 -47 25.5 -76t79.5 -29h89z" />
<glyph unicode="A" d="M32 752v-752h30v458h96v-458h30v752q0 24 -17.5 41t-46.5 17h-28q-29 0 -46.5 -17t-17.5 -41zM158 488h-96v251q0 41 36 41h24q20 0 28 -11t8 -30v-251z" />
<glyph unicode="B" d="M125 0q35 0 49 17.5t14 40.5v362q0 21 -8.5 34.5t-21.5 19.5q14 5 22 15.5t8 34.5v228q0 28 -17 43t-46 15h-93v-810h93zM124 781q18 0 26 -9.5t8 -25.5v-217q0 -41 -34 -41h-62v293h62zM124 458q34 0 34 -41v-355q0 -15 -8.5 -24.5t-25.5 -9.5h-62v430h62z" />
<glyph unicode="C" horiz-adv-x="228" d="M100 810q-27 0 -45 -17.5t-18 -44.5v-692q0 -27 17 -43t46 -16h37q35 0 49 19t14 40v100h-30v-88q0 -18 -7.5 -29.5t-26.5 -11.5h-35q-17 0 -25.5 11t-8.5 28v680q0 17 9.5 25.5t24.5 8.5h35q15 0 24.5 -8.5t9.5 -25.5v-95h30v97q0 29 -19 45.5t-44 16.5h-37z" />
<glyph unicode="D" d="M120 0q34 0 48 17t14 41v694q0 25 -16 41.5t-46 16.5h-85v-810h85zM118 780q17 0 25.5 -9t8.5 -22v-687q0 -17 -9.5 -24.5t-24.5 -7.5h-53v750h53z" />
<glyph unicode="E" horiz-adv-x="188" d="M62 780h96v30h-126v-810h126v30h-96v428h96v30h-96v292z" />
<glyph unicode="F" horiz-adv-x="180" d="M62 780h96v30h-126v-810h30v458h96v30h-96v292z" />
<glyph unicode="G" horiz-adv-x="234" d="M100 810q-30 0 -46.5 -19t-16.5 -47v-688q0 -29 18.5 -44t44.5 -15h37q28 0 45.5 16t17.5 43v432h-86v-32h56v-390q0 -39 -34 -39h-35q-34 0 -34 39v673q0 19 8.5 30t25.5 11h35q34 0 34 -41v-88h30v101q0 26 -18.5 42t-44.5 16h-37z" />
<glyph unicode="H" horiz-adv-x="202" d="M142 488h-80v322h-30v-810h30v458h80v-458h30v810h-30v-322z" />
<glyph unicode="I" horiz-adv-x="105" d="M38 0h30v810h-30v-810z" />
<glyph unicode="J" horiz-adv-x="228" d="M136 -3q36 0 49 20t13 49v743h-30v-740q0 -25 -9 -34.5t-25 -9.5h-34q-34 0 -34 41v90h-30v-90q0 -69 62 -69h38z" />
<glyph unicode="K" horiz-adv-x="212" d="M64 384l103 -384h33l-129 467l123 343h-34l-96 -280v280h-30v-810h30v384z" />
<glyph unicode="L" horiz-adv-x="188" d="M62 30v780h-30v-810h126v30h-96z" />
<glyph unicode="M" horiz-adv-x="345" d="M71 783l83 -783h44l82 783v-783h30v810h-54l-80 -786l-80 786h-55v-810h30v783z" />
<glyph unicode="N" horiz-adv-x="258" d="M66 752l120 -752h46v810h-30v-730l-116 730h-50v-810h30v752z" />
<glyph unicode="O" horiz-adv-x="244" d="M142 781q34 0 34 -41v-673q0 -41 -34 -41h-35q-16 0 -25 11t-9 29v674q0 20 9.5 30.5t24.5 10.5h35zM143 -3q35 0 49 19.5t14 45.5v684q0 29 -18.5 46.5t-47.5 17.5h-30q-34 0 -50.5 -18t-16.5 -44v-686q0 -28 17 -46.5t46 -18.5h37z" />
<glyph unicode="P" d="M124 780q15 0 24.5 -9t9.5 -27v-216q0 -20 -7.5 -30t-26.5 -10h-62v292h62zM62 458h62q31 0 47.5 18.5t16.5 51.5v224q0 27 -16 42.5t-47 15.5h-93v-810h30v458z" />
<glyph unicode="Q" horiz-adv-x="244" d="M111 51v-25h-4q-16 0 -25 11t-9 29v674q0 20 9.5 30.5t24.5 10.5h35q34 0 34 -41v-673q0 -41 -34 -41h-5v26q0 20 -6 29t-14 14l-18 -16q8 -5 10 -12t2 -16zM137 -27v24h6q35 0 49 19.5t14 45.5v684q0 29 -18.5 46.5t-47.5 17.5h-30q-34 0 -50.5 -18t-16.5 -44v-686 q0 -28 17 -46.5t46 -18.5h5v-25q0 -18 5.5 -26.5t13.5 -16.5l19 16q-6 8 -9 12.5t-3 15.5z" />
<glyph unicode="R" d="M124 780q34 0 34 -39v-213q0 -22 -8.5 -31t-25.5 -9h-62v292h62zM158 416v-416h30v418q0 26 -9.5 37.5t-20.5 17.5q11 4 20.5 14.5t9.5 28.5v228q0 66 -67 66h-89v-810h30v458h62q34 0 34 -42z" />
<glyph unicode="S" d="M134 -3q32 0 49 18t17 45v360q0 35 -18.5 51.5t-53.5 16.5h-24q-19 0 -28 10.5t-9 27.5v213q0 41 34 41h35q19 0 26.5 -11t7.5 -30v-88h30v92q0 34 -19.5 50.5t-46.5 16.5h-31q-28 0 -47 -17t-19 -47v-224q0 -32 19 -48t48 -16h28q20 0 29 -11t9 -30v-346 q0 -23 -9.5 -33.5t-25.5 -10.5h-35q-34 0 -34 35v94h-30v-94q0 -35 18.5 -50t45.5 -15h34z" />
<glyph unicode="T" horiz-adv-x="192" d="M83 0h30v780h60v30h-150v-30h60v-780z" />
<glyph unicode="U" horiz-adv-x="235" d="M133 -3q37 0 52 19.5t15 45.5v748h-30v-747q0 -17 -8.5 -27t-25.5 -10h-35q-16 0 -25 10.5t-9 27.5v746h-30v-746q0 -32 17.5 -49.5t49.5 -17.5h29z" />
<glyph unicode="V" horiz-adv-x="248" d="M232 810h-32l-74 -673l-72 673h-33l93 -810h25z" />
<glyph unicode="W" horiz-adv-x="425" d="M303 136l-73 674h-34l-72 -673l-72 673h-34l94 -810h24l78 671l76 -671h24l94 810h-32z" />
<glyph unicode="X" horiz-adv-x="188" d="M97 335l50 -335h33l-66 431l55 379h-29l-41 -280l-43 280h-30l56 -373l-68 -437h33z" />
<glyph unicode="Y" horiz-adv-x="219" d="M209 810h-35l-60 -288l-61 288h-35l80 -365v-445h30v445z" />
<glyph unicode="Z" horiz-adv-x="188" d="M72 30l90 750v30h-120v-30h91l-101 -780h126v30h-86z" />
<glyph unicode="[" horiz-adv-x="144" d="M38 -70h84v25h-54v870h54v25h-84v-920z" />
<glyph unicode="\" horiz-adv-x="207" d="M57 824h-30l131 -851h30z" />
<glyph unicode="]" horiz-adv-x="144" d="M86 -45h-55v-25h85v920h-84v-25h54v-870z" />
<glyph unicode="^" horiz-adv-x="216" d="M174 501l-46 265h-40l-46 -265h20l46 247l46 -247h20z" />
<glyph unicode="_" horiz-adv-x="188" d="M196 -30h-196v-30h196v30z" />
<glyph unicode="`" horiz-adv-x="216" d="M130 753h20l-34 119h-44z" />
<glyph unicode="a" horiz-adv-x="230" d="M136 458q14 0 24 -8.5t10 -25.5v-357q0 -20 -10 -28.5t-24 -8.5h-36q-33 0 -33 36v358q0 19 10 26.5t24 7.5h35zM37 62q0 -28 16.5 -45t45.5 -17h35q14 0 22.5 4t13.5 9v-13h30v649q0 23 -17 41t-46 18h-37q-31 0 -47 -18t-16 -41v-37h30v24q0 21 9.5 31.5t24.5 10.5h31 q21 0 29.5 -10.5t8.5 -26.5v-166q-11 13 -33 13h-43q-28 0 -42.5 -18t-14.5 -42v-366z" />
<glyph unicode="b" horiz-adv-x="222" d="M65 13q8 -8 16.5 -10.5t18.5 -2.5h28q19 0 32.5 6.5t21.5 17.5t11.5 25t3.5 28v559q0 12 -3.5 25t-11.5 23.5t-21 17t-31 6.5h-33q-13 0 -20.5 -4.5t-11.5 -9.5v116h-30v-810h30v13zM98 28q-33 0 -33 42v572q0 36 33 36h32q37 0 37 -40v-568q0 -17 -10 -29.5t-25 -12.5 h-34z" />
<glyph unicode="c" horiz-adv-x="215" d="M100 708q-32 0 -47.5 -18.5t-15.5 -46.5v-581q0 -33 18 -49t45 -16h24q32 0 47.5 18.5t15.5 40.5v100h-30v-91q0 -38 -34 -38h-22q-17 0 -25.5 11t-8.5 25v573q0 42 34 42h22q20 0 27 -11.5t7 -30.5v-88h30v101q0 25 -17 42t-46 17h-24z" />
<glyph unicode="d" horiz-adv-x="222" d="M132 678q17 0 25 -10.5t8 -27.5v-569q0 -41 -33 -41h-32q-17 0 -27 11t-10 31v566q0 40 37 40h32zM33 72q0 -35 18.5 -53.5t50.5 -18.5h28q14 0 22 4t13 9v-13h30v810h-30v-116q-11 14 -32 14h-33q-32 0 -49.5 -20t-17.5 -52v-564z" />
<glyph unicode="e" horiz-adv-x="215" d="M67 458h120v183q0 33 -17.5 50t-45.5 17h-24q-28 0 -45.5 -18t-17.5 -50v-574q0 -33 20 -51t49 -18h14q40 0 53.5 21t13.5 48v90h-30v-90q0 -41 -35 -41h-18q-17 0 -27 11t-10 28v394zM123 680q16 0 25 -11.5t9 -30.5v-150h-90v150q0 42 34 42h22z" />
<glyph unicode="f" horiz-adv-x="192" d="M36 747v-39h-17v-30h17v-678h30v678h56v30h-56v35q0 17 8.5 27t25.5 10h12q20 0 27 -10.5t7 -25.5v-15h30v23q0 24 -16.5 41t-45.5 17h-15q-29 0 -46 -18.5t-17 -44.5z" />
<glyph unicode="g" horiz-adv-x="222" d="M132 678q17 0 25 -10t8 -24v-573q0 -19 -7.5 -30t-25.5 -11h-34q-12 0 -23.5 10t-11.5 30v568q0 40 37 40h32zM133 0q20 0 32 12v-86q0 -38 -34 -38h-34q-34 0 -34 36v34h-30v-42q0 -26 18.5 -42t44.5 -16h36q32 0 47.5 17.5t15.5 40.5v794h-30v-16q-6 8 -16 11t-16 3 h-33q-34 0 -50.5 -21.5t-16.5 -50.5v-558q0 -35 18 -56.5t51 -21.5h31z" />
<glyph unicode="h" horiz-adv-x="222" d="M167 638v-638h30v636q0 33 -18.5 52.5t-48.5 19.5h-33q-13 0 -20 -4.5t-12 -9.5v116h-30v-810h30v644q0 16 9 25t24 9h32q20 0 28.5 -11t8.5 -29z" />
<glyph unicode="i" horiz-adv-x="105" d="M38 0h30v708h-30v-708zM27 790q0 -10 6.5 -18t19.5 -8q14 0 20.5 8t6.5 18t-6.5 18t-20.5 8q-13 0 -19.5 -8t-6.5 -18z" />
<glyph unicode="j" horiz-adv-x="105" d="M38 -134h30v842h-30v-842zM27 790q0 -10 6.5 -18t19.5 -8q14 0 20.5 8t6.5 18t-6.5 18t-20.5 8q-13 0 -19.5 -8t-6.5 -18z" />
<glyph unicode="k" horiz-adv-x="222" d="M65 420l119 -421h30l-126 462l116 247h-30l-109 -230v330h-30v-808h30v420z" />
<glyph unicode="l" horiz-adv-x="105" d="M38 0h30v810h-30v-810z" />
<glyph unicode="m" horiz-adv-x="365" d="M262 708h-33q-15 0 -27.5 -6t-19.5 -16q-8 10 -21 16t-31 6h-30q-14 0 -21.5 -3.5t-13.5 -10.5v14h-30v-708h30v642q0 20 9.5 28t23.5 8h32q20 0 28.5 -11t8.5 -30v-637h30v642q0 20 9 28t24 8h32q19 0 28 -11t9 -29v-638h30v636q0 34 -18.5 53t-48.5 19z" />
<glyph unicode="n" horiz-adv-x="222" d="M167 640v-640h30v641q0 31 -20 49t-47 18h-33q-13 0 -20.5 -4.5t-11.5 -9.5v14h-30v-708h30v643q0 17 9 26t24 9h30q18 0 28.5 -10.5t10.5 -27.5z" />
<glyph unicode="o" horiz-adv-x="215" d="M101 27q-34 0 -34 41v574q0 17 9 26.5t23 9.5h24q14 0 24 -9.5t10 -26.5v-574q0 -41 -34 -41h-22zM122 -3q35 0 50 18t15 47v581q0 32 -18.5 48.5t-44.5 16.5h-24q-31 0 -47 -19t-16 -45v-582q0 -30 18 -47.5t47 -17.5h20z" />
<glyph unicode="p" horiz-adv-x="222" d="M92 30q-33 0 -33 36v576q0 36 33 36h32q19 0 28 -10.5t9 -27.5v-570q0 -17 -8.5 -28.5t-28.5 -11.5h-32zM29 -138h30v150q5 -8 13 -10t19 -2h31q39 0 54 22t15 53v561q0 35 -18.5 53.5t-48.5 18.5h-33q-25 0 -32 -14v16h-30v-848z" />
<glyph unicode="q" horiz-adv-x="222" d="M165 642v-576q0 -36 -33 -36h-32q-20 0 -28.5 11.5t-8.5 28.5v570q0 17 9 27.5t28 10.5h32q33 0 33 -36zM165 12v-150h30v848h-30v-16q-7 14 -32 14h-33q-30 0 -48.5 -18.5t-18.5 -53.5v-561q0 -31 15 -53t54 -22h31q11 0 19 2t13 10z" />
<glyph unicode="r" horiz-adv-x="222" d="M167 638v-80h30v84q0 32 -19 49t-48 17h-33q-23 0 -32 -14v14h-30v-708h30v640q0 21 8.5 29.5t24.5 8.5h32q21 0 29 -11t8 -29z" />
<glyph unicode="s" horiz-adv-x="205" d="M114 -3q29 0 47.5 18.5t18.5 52.5v352q0 35 -19 51.5t-44 16.5h-23q-17 0 -25.5 10t-8.5 26v114q0 19 8.5 30t25.5 11h22q34 0 34 -41v-50h30v56q0 30 -18.5 47t-44.5 17h-25q-31 0 -46.5 -18.5t-15.5 -43.5v-121q0 -37 19 -52t45 -15h22q34 0 34 -36v-354 q0 -20 -9.5 -30.5t-25.5 -10.5h-22q-17 0 -25.5 11.5t-8.5 29.5v58h-30v-60q0 -69 67 -69h18z" />
<glyph unicode="t" horiz-adv-x="215" d="M20 708v-30h27v-612q0 -32 16.5 -50t50.5 -18h16q39 0 53 21t14 45v55h-30v-57q0 -16 -7.5 -26t-26.5 -10h-22q-17 0 -25.5 10t-8.5 26v616h79v30h-79v44h-30v-44h-27z" />
<glyph unicode="u" horiz-adv-x="222" d="M62 68v640h-30v-636q0 -38 21 -55.5t47 -17.5h28q17 0 25 4.5t11 8.5v-12h30v708h-30v-642q0 -37 -34 -37h-34q-16 0 -25 11t-9 28z" />
<glyph unicode="v" horiz-adv-x="218" d="M206 708h-31l-63 -571l-62 571h-32l82 -708h24z" />
<glyph unicode="w" horiz-adv-x="365" d="M264 137l-62 571h-28l-62 -571l-64 571h-30l80 -708h24l66 570l66 -570h24l80 708h-30z" />
<glyph unicode="x" horiz-adv-x="188" d="M98 304l49 -304h33l-66 389l55 319h-34l-37 -226l-38 226h-32l54 -310l-68 -398h33z" />
<glyph unicode="y" horiz-adv-x="222" d="M63 73v635h-30v-632q0 -35 17.5 -55.5t51.5 -20.5h31q11 0 18 3t14 9v-84q0 -19 -7.5 -29.5t-26.5 -10.5h-34q-17 0 -25.5 9t-8.5 31v30h-30v-34q0 -35 18 -50.5t48 -15.5h31q35 0 50 19t15 47v784h-30v-637q0 -41 -33 -41h-28q-41 0 -41 43z" />
<glyph unicode="z" horiz-adv-x="188" d="M68 30l94 648v30h-120v-30h90l-100 -678h126v30h-90z" />
<glyph unicode="{" horiz-adv-x="128" d="M110 -34q-15 0 -24.5 11t-9.5 30v335q0 23 -11 36t-25 18q15 2 25.5 15t10.5 30v329q0 20 8.5 31t25.5 11v28q-32 0 -48 -18.5t-16 -43.5v-337q0 -20 -8.5 -30t-22.5 -15q17 -8 24 -22t7 -32v-336q0 -37 20 -53t44 -16v29z" />
<glyph unicode="|" horiz-adv-x="105" d="M38 -50h30v874h-30v-874z" />
<glyph unicode="}" horiz-adv-x="128" d="M56 342v-335q0 -19 -9.5 -30t-24.5 -11v-29q24 0 44 16t20 53v336q0 18 7 32t24 22q-14 5 -22.5 15t-8.5 30v337q0 25 -16 43.5t-48 18.5v-28q17 0 25.5 -11t8.5 -31v-329q0 -17 10.5 -30t25.5 -15q-14 -5 -25 -18t-11 -36z" />
<glyph unicode="~" horiz-adv-x="272" d="M22 445h30q0 5 0.5 12.5t3.5 14t9 11.5t17 5q15 0 26 -6t22 -14q13 -9 26.5 -17t35.5 -8q15 0 26 6.5t18 17t10.5 24t3.5 26.5h-30q0 -16 -6.5 -29.5t-23.5 -13.5q-12 0 -24 7l-26 16q-13 8 -26.5 14.5t-31.5 6.5q-32 0 -46 -22t-14 -51z" />
<glyph unicode="&#xa1;" horiz-adv-x="126" d="M49 557v-659l30 1v658h-30zM28 673q0 -15 10.5 -25.5t25.5 -10.5t25.5 10.5t10.5 25.5t-10.5 25.5t-25.5 10.5t-25.5 -10.5t-10.5 -25.5z" />
<glyph unicode="&#xa2;" d="M101 678h3v-501q-37 0 -37 37v427q0 17 9.5 27t24.5 10zM99 147h5v-41h27v41h3q30 0 48 17t18 50v92h-30v-92q0 -37 -34 -37h-5v501h5q34 0 34 -37v-93h30v92q0 30 -17 49t-49 19h-3v30h-26v-30h-2q-29 0 -47.5 -18t-18.5 -47v-429q0 -33 18.5 -50t43.5 -17z" />
<glyph unicode="&#xa3;" d="M10 406h42v-38h-42v-30h42v-338h143v30h-113v308h59v30h-59v38h59v30h-59v266q0 41 34 41h14q20 0 27 -10.5t7 -30.5v-88h30v96q0 31 -17 47t-45 16h-18q-30 0 -46 -17t-16 -46v-274h-42v-30z" />
<glyph unicode="&#xa5;" horiz-adv-x="219" d="M44 327h50v-327h32v327h50v30h-50v39h50v30h-50v19l80 365h-35l-61 -288l-60 288h-35l79 -364v-20h-50v-30h50v-39h-50v-30z" />
<glyph unicode="&#xa6;" horiz-adv-x="167" d="M114 452v287h-55v-287h55zM114 0v287h-55v-287h55z" />
<glyph unicode="&#xa7;" horiz-adv-x="358" d="M282 440v-91q0 -38 -19.5 -61.5t-60.5 -23.5h-58q-36 0 -55 21.5t-19 56.5v101q0 35 19 60t54 25h67q35 0 53.5 -26t18.5 -62zM71 720v-76q0 -41 10 -61.5t27 -32.5q-9 -3 -21 -10.5t-22.5 -20.5t-17.5 -31.5t-7 -45.5v-104q0 -51 29.5 -77.5t74.5 -26.5h52q13 0 24.5 -9 t20 -22.5t13 -30t4.5 -31.5v-66q0 -40 -16 -61.5t-50 -21.5h-40q-31 0 -46.5 16t-15.5 41v75h-30v-72q0 -36 23.5 -63t66.5 -27h48q40 0 65 27t25 77v77q0 35 -12.5 59.5t-30.5 37.5q28 8 47.5 36.5t19.5 72.5v90q0 57 -29.5 88t-76.5 31h-52q-26 0 -39.5 25.5t-13.5 60.5 v78q0 35 18 56t47 21h36q30 0 48 -19.5t18 -61.5v-51h30v63q0 19 -6 37t-18 31.5t-30 22t-42 8.5h-38q-45 0 -69 -29t-24 -80z" />
<glyph unicode="&#xa8;" horiz-adv-x="194" d="M78 790q0 11 -7.5 18.5t-18.5 7.5t-18.5 -7.5t-7.5 -18.5t7.5 -18.5t18.5 -7.5t18.5 7.5t7.5 18.5zM168 790q0 11 -7.5 18.5t-18.5 7.5t-18.5 -7.5t-7.5 -18.5t7.5 -18.5t18.5 -7.5t18.5 7.5t7.5 18.5z" />
<glyph unicode="&#xa9;" horiz-adv-x="588" d="M300 559q33 0 57.5 -13t39.5 -29v25q-14 14 -38.5 25.5t-56.5 11.5q-33 0 -57.5 -12t-41 -31.5t-24.5 -45t-8 -51.5q0 -27 8 -52.5t24.5 -45.5t41 -32.5t57.5 -12.5q39 0 60.5 11t34.5 25v31q-14 -19 -36 -33t-59 -14q-27 0 -47.5 10.5t-34 27.5t-20 39t-6.5 45t6.5 44.5 t20 38.5t33 27.5t46.5 10.5zM559 442q0 53 -20 100t-55 82t-82 55t-100 20t-100 -20t-82 -55t-55 -82t-20 -100t20 -100t55 -82t82 -55t100 -20t100 20t82 55t55 82t20 100zM66 442q0 49 18.5 92t50.5 75t75 50.5t92 18.5t92 -18.5t75 -50.5t50.5 -75t18.5 -92t-18.5 -92 t-50.5 -75t-75 -50.5t-92 -18.5t-92 18.5t-75 50.5t-50.5 75t-18.5 92z" />
<glyph unicode="&#xaa;" horiz-adv-x="180" d="M164 274h-130v-21h130v21zM47 337q0 -17 10 -27t27 -10h21q15 0 21 8v-8h18v387q0 14 -10 24.5t-27 10.5h-22q-19 0 -28.5 -10.5t-9.5 -24.5v-22h18v14q0 25 20 25h19q22 0 22 -22v-99q-6 8 -19 8h-26q-17 0 -25.5 -11t-8.5 -25v-218zM106 573q8 0 14 -5t6 -15v-213 q0 -12 -6 -17t-14 -5h-21q-20 0 -20 21v214q0 11 6 15.5t14 4.5h21z" />
<glyph unicode="&#xab;" horiz-adv-x="235" d="M112 530l-78 -155l78 -155h6l-46 155l46 155h-6zM192 530l-77 -155l77 -155h8l-48 155l48 155h-8z" />
<glyph unicode="&#xac;" horiz-adv-x="130" d="M118 432h-97v-15h97v15zM68 463h13v364h-13l-23 -43l10 -5l13 24v-340zM30 181v-154q0 -29 29 -29h21q28 0 28 29v154q0 9 -4.5 14.5t-8.5 7.5q4 2 8.5 6t4.5 13v113q0 27 -28 27h-21q-29 0 -29 -27v-113q0 -9 4.5 -13t9.5 -6q-5 -2 -9.5 -7.5t-4.5 -14.5zM44 228v105 q0 16 15 16h20q16 0 16 -16v-105q0 -18 -16 -18h-20q-15 0 -15 18zM44 30v148q0 11 4 14.5t11 3.5h20q6 0 11 -3.5t5 -14.5v-148q0 -19 -16 -19h-20q-15 0 -15 19z" />
<glyph unicode="&#xad;" horiz-adv-x="188" d="M146 488h-96v-30h96v30z" />
<glyph unicode="&#xae;" horiz-adv-x="333" d="M235 718q0 22 -12.5 35t-29.5 13h-58v-177h13v82h12l58 -82h16l-57 82h16q18 0 30 13t12 34zM222 718q0 -16 -8.5 -25t-20.5 -9h-44v68h43q12 0 21 -8.5t9 -25.5zM328 678q0 31 -11.5 57.5t-31.5 46.5t-46.5 31.5t-57.5 11.5t-57.5 -11.5t-46.5 -31.5t-31.5 -46.5 t-11.5 -57.5t11.5 -57.5t31.5 -46.5t46.5 -31.5t57.5 -11.5t57.5 11.5t46.5 31.5t31.5 46.5t11.5 57.5zM48 678q0 27 10.5 51.5t28.5 42.5t42.5 28.5t51.5 10.5t51.5 -10.5t42.5 -28.5t28.5 -42.5t10.5 -51.5t-10.5 -51.5t-28.5 -42.5t-42.5 -28.5t-51.5 -10.5t-51.5 10.5 t-42.5 28.5t-28.5 42.5t-10.5 51.5z" />
<glyph unicode="&#xaf;" horiz-adv-x="248" d="M222 820h-188v-30h188v30z" />
<glyph unicode="&#xb0;" horiz-adv-x="178" d="M148 770q0 24 -17 41t-41 17t-41 -17t-17 -41t17 -41t41 -17t41 17t17 41zM50 770q0 17 11.5 28.5t28.5 11.5t28.5 -11.5t11.5 -28.5t-11.5 -28.5t-28.5 -11.5t-28.5 11.5t-11.5 28.5z" />
<glyph unicode="&#xb2;" horiz-adv-x="130" d="M60 681q-28 0 -28 -29v-190h74v13h-60v174q0 19 15 19h16q28 0 28 29v103q0 26 -28 26h-17q-28 0 -28 -28v-43h14v39q0 11 3.5 15t11.5 4h16q15 0 15 -19v-94q0 -19 -15 -19h-17z" />
<glyph unicode="&#xb3;" horiz-adv-x="130" d="M79 827h-23q-11 0 -19 -7t-8 -21v-43h14v42q0 16 13 16h23q15 0 15 -15v-99q0 -8 -3 -13t-13 -5h-27v-13h27q16 0 16 -17v-157q0 -19 -16 -19h-19q-16 0 -16 16v42h-14v-45q0 -11 8 -18.5t21 -7.5h21q28 0 28 26v165q0 8 -4 14t-9 8q7 1 10 6t3 13v106q0 26 -28 26z" />
<glyph unicode="&#xb4;" horiz-adv-x="216" d="M152 872h-44l-34 -119h19z" />
<glyph unicode="&#xb5;" horiz-adv-x="130" d="M118 432h-97v-15h97v15zM60 217q-28 0 -28 -29v-190h74v13h-60v174q0 19 15 19h16q28 0 28 29v103q0 26 -28 26h-17q-28 0 -28 -28v-43h14v39q0 11 3.5 15t11.5 4h16q15 0 15 -19v-94q0 -19 -15 -19h-17zM68 463h13v364h-13l-23 -43l10 -5l13 24v-340z" />
<glyph unicode="&#xb6;" horiz-adv-x="285" d="M224 -50h30v860h-30v-860zM119 810q-44 0 -65.5 -27t-21.5 -60v-177q0 -44 26 -66t61 -22h39v-508h30v860h-69z" />
<glyph unicode="&#xb7;" horiz-adv-x="200" d="M141 516q0 15 -10.5 25.5t-25.5 10.5t-25.5 -10.5t-10.5 -25.5t10.5 -25.5t25.5 -10.5t25.5 10.5t10.5 25.5z" />
<glyph unicode="&#xb8;" horiz-adv-x="127" d="M90 0h-30v-30q0 -21 -18 -21h-5v-26h6q26 0 36.5 13t10.5 33v31z" />
<glyph unicode="&#xb9;" horiz-adv-x="130" d="M68 463h13v364h-13l-23 -43l10 -5l13 24v-340z" />
<glyph unicode="&#xba;" horiz-adv-x="158" d="M146 274h-130v-21h130v21zM87 299q21 0 30 11t9 28v349q0 20 -11 29.5t-27 9.5h-14q-19 0 -28.5 -11.5t-9.5 -26.5v-350q0 -18 11 -28.5t28 -10.5h12zM75 317q-21 0 -21 25v345q0 10 5.5 15.5t13.5 5.5h15q8 0 14 -5.5t6 -15.5v-345q0 -25 -20 -25h-13z" />
<glyph unicode="&#xbb;" horiz-adv-x="235" d="M114 220h8l77 155l-77 155h-8l48 -155zM34 220h6l78 155l-78 155h-6l46 -155z" />
<glyph unicode="&#xbc;" horiz-adv-x="130" d="M118 432h-97v-15h97v15zM92 147v217h-9l-53 -230h48v-134h14v134h14v13h-14zM68 463h13v364h-13l-23 -43l10 -5l13 24v-340zM78 147h-32l32 149v-149z" />
<glyph unicode="&#xbd;" horiz-adv-x="130" d="M118 432h-97v-15h97v15zM60 217q-28 0 -28 -29v-190h74v13h-60v174q0 19 15 19h16q28 0 28 29v103q0 26 -28 26h-17q-28 0 -28 -28v-43h14v39q0 11 3.5 15t11.5 4h16q15 0 15 -19v-94q0 -19 -15 -19h-17zM68 463h13v364h-13l-23 -43l10 -5l13 24v-340z" />
<glyph unicode="&#xbe;" horiz-adv-x="130" d="M118 432h-97v-15h97v15zM79 827h-23q-11 0 -19 -7t-8 -21v-43h14v42q0 16 13 16h23q15 0 15 -15v-99q0 -8 -3 -13t-13 -5h-27v-13h27q16 0 16 -17v-157q0 -19 -16 -19h-19q-16 0 -16 16v42h-14v-45q0 -11 8 -18.5t21 -7.5h21q28 0 28 26v165q0 8 -4 14t-9 8q7 1 10 6 t3 13v106q0 26 -28 26zM92 147v217h-9l-53 -230h48v-134h14v134h14v13h-14zM78 147h-32l32 149v-149z" />
<glyph unicode="&#xbf;" horiz-adv-x="230" d="M141 262q15 11 20 24t5 31v242h-30v-238q0 -17 -6 -26t-18 -18l-58 -44q-19 -14 -19 -46v-226q0 -29 17.5 -45.5t49.5 -16.5h30q32 0 49 18.5t17 47.5v93h-30v-88q0 -41 -34 -41h-33q-20 0 -28 10.5t-8 30.5v210q0 14 3.5 21.5t11.5 14.5zM114 675q0 -15 10.5 -25.5 t25.5 -10.5t25.5 10.5t10.5 25.5t-10.5 25.5t-25.5 10.5t-25.5 -10.5t-10.5 -25.5z" />
<glyph unicode="&#xc0;" d="M105 818h14l-25 86h-31zM32 752v-752h30v458h96v-458h30v752q0 24 -17.5 41t-46.5 17h-28q-29 0 -46.5 -17t-17.5 -41zM158 488h-96v251q0 41 36 41h24q20 0 28 -11t8 -30v-251z" />
<glyph unicode="&#xc1;" d="M158 904h-31l-25 -86h14zM32 752v-752h30v458h96v-458h30v752q0 24 -17.5 41t-46.5 17h-28q-29 0 -46.5 -17t-17.5 -41zM158 488h-96v251q0 41 36 41h24q20 0 28 -11t8 -30v-251z" />
<glyph unicode="&#xc2;" d="M152 820l-28 77h-24l-28 -77h11l29 62l30 -62h10zM32 752v-752h30v458h96v-458h30v752q0 24 -17.5 41t-46.5 17h-28q-29 0 -46.5 -17t-17.5 -41zM158 488h-96v251q0 41 36 41h24q20 0 28 -11t8 -30v-251z" />
<glyph unicode="&#xc3;" d="M19 828h24q0 4 0.5 9.5t3 11t7.5 9.5t13 4q13 0 19 -4t14 -12t18 -14t28 -6q24 0 35.5 19.5t11.5 40.5h-24q0 -12 -5.5 -23t-18.5 -11q-11 0 -18.5 4t-18.5 14q-10 8 -18 12.5t-23 4.5q-25 0 -36.5 -18t-11.5 -41zM32 752v-752h30v458h96v-458h30v752q0 24 -17.5 41 t-46.5 17h-28q-29 0 -46.5 -17t-17.5 -41zM158 488h-96v251q0 41 36 41h24q20 0 28 -11t8 -30v-251z" />
<glyph unicode="&#xc4;" d="M92 854q0 10 -7 16.5t-16 6.5q-10 0 -17 -6.5t-7 -16.5t7 -16.5t17 -6.5q9 0 16 6.5t7 16.5zM173 854q0 10 -7 16.5t-17 6.5q-9 0 -16 -6.5t-7 -16.5t7 -16.5t16 -6.5q10 0 17 6.5t7 16.5zM32 752v-752h30v458h96v-458h30v752q0 24 -17.5 41t-46.5 17h-28 q-29 0 -46.5 -17t-17.5 -41zM158 488h-96v251q0 41 36 41h24q20 0 28 -11t8 -30v-251z" />
<glyph unicode="&#xc5;" d="M155 862q0 20 -13 33t-33 13t-33 -13t-13 -33t13 -33t33 -13t33 13t13 33zM75 862q0 14 10 24t24 10t24 -10t10 -24t-10 -24t-24 -10t-24 10t-10 24zM32 752v-752h30v458h96v-458h30v752q0 24 -17.5 41t-46.5 17h-28q-29 0 -46.5 -17t-17.5 -41zM158 488h-96v251 q0 41 36 41h24q20 0 28 -11t8 -30v-251z" />
<glyph unicode="&#xc6;" horiz-adv-x="305" d="M158 747v-259h-96v251q0 41 36 41h24q18 0 27 -9.5t9 -23.5zM62 0v458h96v-458h126v30h-96v428h96v30h-96v292h96v30h-126v-9q-6 5 -14.5 7t-19.5 2h-28q-32 0 -48 -18.5t-16 -45.5v-746h30z" />
<glyph unicode="&#xc7;" horiz-adv-x="228" d="M100 -3h6v-34q0 -11 -7 -16t-18 -5v-26q32 0 41.5 11.5t9.5 34.5v35h5q35 0 49 19t14 40v100h-30v-88q0 -18 -7.5 -29.5t-26.5 -11.5h-35q-17 0 -25.5 11t-8.5 28v680q0 17 9.5 25.5t24.5 8.5h35q15 0 24.5 -8.5t9.5 -25.5v-95h30v97q0 29 -19 45.5t-44 16.5h-37 q-27 0 -45 -17.5t-18 -44.5v-692q0 -27 17 -43t46 -16z" />
<glyph unicode="&#xc8;" horiz-adv-x="188" d="M96 818h14l-24 86h-32zM62 780h96v30h-126v-810h126v30h-96v428h96v30h-96v292z" />
<glyph unicode="&#xc9;" horiz-adv-x="188" d="M136 904h-32l-24 -86h14zM62 780h96v30h-126v-810h126v30h-96v428h96v30h-96v292z" />
<glyph unicode="&#xca;" horiz-adv-x="188" d="M136 820l-30 77h-22l-30 -77h12l30 62l29 -62h11zM62 780h96v30h-126v-810h126v30h-96v428h96v30h-96v292z" />
<glyph unicode="&#xcb;" horiz-adv-x="188" d="M80 854q0 10 -7 16.5t-16 6.5q-10 0 -17 -6.5t-7 -16.5t7 -16.5t17 -6.5q9 0 16 6.5t7 16.5zM161 854q0 10 -7 16.5t-17 6.5q-9 0 -16 -6.5t-7 -16.5t7 -16.5t16 -6.5q10 0 17 6.5t7 16.5zM62 780h96v30h-126v-810h126v30h-96v428h96v30h-96v292z" />
<glyph unicode="&#xcc;" horiz-adv-x="105" d="M44 818h14l-25 86h-31zM38 0h30v810h-30v-810z" />
<glyph unicode="&#xcd;" horiz-adv-x="105" d="M103 904h-31l-25 -86h14zM38 0h30v810h-30v-810z" />
<glyph unicode="&#xce;" horiz-adv-x="105" d="M92 820l-29 77h-23l-29 -77h11l30 62l30 -62h10zM38 0h30v810h-30v-810z" />
<glyph unicode="&#xcf;" horiz-adv-x="105" d="M37 854q0 10 -7 16.5t-16 6.5q-10 0 -17 -6.5t-7 -16.5t7 -16.5t17 -6.5q9 0 16 6.5t7 16.5zM118 854q0 10 -7 16.5t-17 6.5q-9 0 -16 -6.5t-7 -16.5t7 -16.5t16 -6.5q10 0 17 6.5t7 16.5zM38 0h30v810h-30v-810z" />
<glyph unicode="&#xd0;" d="M65 483v297h53q17 0 25.5 -9t8.5 -22v-687q0 -17 -9.5 -24.5t-24.5 -7.5h-53v423h36v30h-36zM35 453v-453h85q34 0 48 17t14 41v694q0 25 -16 41.5t-46 16.5h-85v-327h-30v-30h30z" />
<glyph unicode="&#xd1;" horiz-adv-x="258" d="M45 828h24q0 4 0.5 9.5t3 11t7.5 9.5t13 4q13 0 19 -4t14 -12t18 -14t28 -6q24 0 35.5 19.5t11.5 40.5h-24q0 -12 -5.5 -23t-18.5 -11q-11 0 -18.5 4t-18.5 14q-10 8 -18 12.5t-23 4.5q-25 0 -36.5 -18t-11.5 -41zM66 752l120 -752h46v810h-30v-730l-116 730h-50v-810h30 v752z" />
<glyph unicode="&#xd2;" horiz-adv-x="244" d="M105 818h14l-25 86h-31zM142 781q34 0 34 -41v-673q0 -41 -34 -41h-35q-16 0 -25 11t-9 29v674q0 20 9.5 30.5t24.5 10.5h35zM143 -3q35 0 49 19.5t14 45.5v684q0 29 -18.5 46.5t-47.5 17.5h-30q-34 0 -50.5 -18t-16.5 -44v-686q0 -28 17 -46.5t46 -18.5h37z" />
<glyph unicode="&#xd3;" horiz-adv-x="244" d="M164 904h-31l-25 -86h14zM142 781q34 0 34 -41v-673q0 -41 -34 -41h-35q-16 0 -25 11t-9 29v674q0 20 9.5 30.5t24.5 10.5h35zM143 -3q35 0 49 19.5t14 45.5v684q0 29 -18.5 46.5t-47.5 17.5h-30q-34 0 -50.5 -18t-16.5 -44v-686q0 -28 17 -46.5t46 -18.5h37z" />
<glyph unicode="&#xd4;" horiz-adv-x="244" d="M164 820l-28 77h-24l-28 -77h11l29 62l30 -62h10zM142 781q34 0 34 -41v-673q0 -41 -34 -41h-35q-16 0 -25 11t-9 29v674q0 20 9.5 30.5t24.5 10.5h35zM143 -3q35 0 49 19.5t14 45.5v684q0 29 -18.5 46.5t-47.5 17.5h-30q-34 0 -50.5 -18t-16.5 -44v-686q0 -28 17 -46.5 t46 -18.5h37z" />
<glyph unicode="&#xd5;" horiz-adv-x="244" d="M34 828h24q0 4 0.5 9.5t3 11t7.5 9.5t13 4q13 0 19 -4t14 -12t18 -14t28 -6q24 0 35.5 19.5t11.5 40.5h-24q0 -12 -5.5 -23t-18.5 -11q-11 0 -18.5 4t-18.5 14q-10 8 -18 12.5t-23 4.5q-25 0 -36.5 -18t-11.5 -41zM142 781q34 0 34 -41v-673q0 -41 -34 -41h-35 q-16 0 -25 11t-9 29v674q0 20 9.5 30.5t24.5 10.5h35zM143 -3q35 0 49 19.5t14 45.5v684q0 29 -18.5 46.5t-47.5 17.5h-30q-34 0 -50.5 -18t-16.5 -44v-686q0 -28 17 -46.5t46 -18.5h37z" />
<glyph unicode="&#xd6;" horiz-adv-x="244" d="M107 854q0 10 -7 16.5t-16 6.5q-10 0 -17 -6.5t-7 -16.5t7 -16.5t17 -6.5q9 0 16 6.5t7 16.5zM188 854q0 10 -7 16.5t-17 6.5q-9 0 -16 -6.5t-7 -16.5t7 -16.5t16 -6.5q10 0 17 6.5t7 16.5zM142 781q34 0 34 -41v-673q0 -41 -34 -41h-35q-16 0 -25 11t-9 29v674 q0 20 9.5 30.5t24.5 10.5h35zM143 -3q35 0 49 19.5t14 45.5v684q0 29 -18.5 46.5t-47.5 17.5h-30q-34 0 -50.5 -18t-16.5 -44v-686q0 -28 17 -46.5t46 -18.5h37z" />
<glyph unicode="&#xd7;" horiz-adv-x="516" d="M128 494l-56 -43l140 -185l-168 -224l59 -42l158 209l159 -209l59 42l-169 225l140 184l-57 43l-132 -177z" />
<glyph unicode="&#xd8;" horiz-adv-x="239" d="M43 62q0 -24 13 -42l-8 -67h28l6 48q9 -4 24 -4h37q35 0 49 19.5t14 45.5v684q0 17 -7 30t-18 21l5 41h-27l-4 -29q-5 1 -15 1h-30q-34 0 -50.5 -18t-16.5 -44v-686zM107 26q-13 0 -21 7l89 717q1 -3 1 -10v-673q0 -41 -34 -41h-35zM152 780l-79 -628v588q0 20 9.5 30.5 t24.5 10.5h35q7 0 10 -1z" />
<glyph unicode="&#xd9;" horiz-adv-x="235" d="M105 818h14l-25 86h-31zM133 -3q37 0 52 19.5t15 45.5v748h-30v-747q0 -17 -8.5 -27t-25.5 -10h-35q-16 0 -25 10.5t-9 27.5v746h-30v-746q0 -32 17.5 -49.5t49.5 -17.5h29z" />
<glyph unicode="&#xda;" horiz-adv-x="235" d="M163 904h-31l-25 -86h14zM133 -3q37 0 52 19.5t15 45.5v748h-30v-747q0 -17 -8.5 -27t-25.5 -10h-35q-16 0 -25 10.5t-9 27.5v746h-30v-746q0 -32 17.5 -49.5t49.5 -17.5h29z" />
<glyph unicode="&#xdb;" horiz-adv-x="235" d="M158 820l-28 77h-24l-28 -77h11l29 62l30 -62h10zM133 -3q37 0 52 19.5t15 45.5v748h-30v-747q0 -17 -8.5 -27t-25.5 -10h-35q-16 0 -25 10.5t-9 27.5v746h-30v-746q0 -32 17.5 -49.5t49.5 -17.5h29z" />
<glyph unicode="&#xdc;" horiz-adv-x="235" d="M100 854q0 10 -7 16.5t-16 6.5q-10 0 -17 -6.5t-7 -16.5t7 -16.5t17 -6.5q9 0 16 6.5t7 16.5zM181 854q0 10 -7 16.5t-17 6.5q-9 0 -16 -6.5t-7 -16.5t7 -16.5t16 -6.5q10 0 17 6.5t7 16.5zM133 -3q37 0 52 19.5t15 45.5v748h-30v-747q0 -17 -8.5 -27t-25.5 -10h-35 q-16 0 -25 10.5t-9 27.5v746h-30v-746q0 -32 17.5 -49.5t49.5 -17.5h29z" />
<glyph unicode="&#xdd;" horiz-adv-x="219" d="M209 810h-35l-60 -288l-61 288h-35l80 -365v-445h30v445zM161 904h-32l-24 -86h14z" />
<glyph unicode="&#xde;" d="M124 580q15 0 24.5 -9t9.5 -27v-216q0 -20 -7.5 -30t-26.5 -10h-62v292h62zM62 258h62q31 0 47.5 18.5t16.5 51.5v224q0 27 -16 42.5t-47 15.5h-63v200h-30v-810h30v258z" />
<glyph unicode="&#xdf;" horiz-adv-x="291" d="M215 744q0 -20 -13.5 -41.5t-39.5 -52.5q-25 -30 -40 -61t-15 -59q0 -37 23 -54.5t47 -17.5h21q19 0 26.5 -10t7.5 -26v-351q0 -44 -34 -44h-22q-34 0 -34 41v58h-30v-60q0 -69 66 -69h18q66 0 66 71v356q0 30 -15 47t-47 17h-24q-11 0 -25 10.5t-14 31.5q0 22 13.5 48.5 t35.5 51.5q31 36 46 62.5t15 50.5q0 12 -4.5 23.5t-12.5 21.5t-21 16t-29 6h-78q-29 0 -45.5 -17.5t-16.5 -43.5v-41h-18v-30h18v-678h30v740q0 40 34 40h74q18 0 27.5 -11t9.5 -25z" />
<glyph unicode="&#xe0;" horiz-adv-x="230" d="M117 753h19l-34 119h-44zM136 458q14 0 24 -8.5t10 -25.5v-357q0 -20 -10 -28.5t-24 -8.5h-36q-33 0 -33 36v358q0 19 10 26.5t24 7.5h35zM37 62q0 -28 16.5 -45t45.5 -17h35q14 0 22.5 4t13.5 9v-13h30v649q0 23 -17 41t-46 18h-37q-31 0 -47 -18t-16 -41v-37h30v24 q0 21 9.5 31.5t24.5 10.5h31q21 0 29.5 -10.5t8.5 -26.5v-166q-11 13 -33 13h-43q-28 0 -42.5 -18t-14.5 -42v-366z" />
<glyph unicode="&#xe1;" horiz-adv-x="230" d="M183 872h-43l-35 -119h19zM136 458q14 0 24 -8.5t10 -25.5v-357q0 -20 -10 -28.5t-24 -8.5h-36q-33 0 -33 36v358q0 19 10 26.5t24 7.5h35zM37 62q0 -28 16.5 -45t45.5 -17h35q14 0 22.5 4t13.5 9v-13h30v649q0 23 -17 41t-46 18h-37q-31 0 -47 -18t-16 -41v-37h30v24 q0 21 9.5 31.5t24.5 10.5h31q21 0 29.5 -10.5t8.5 -26.5v-166q-11 13 -33 13h-43q-28 0 -42.5 -18t-14.5 -42v-366z" />
<glyph unicode="&#xe2;" horiz-adv-x="230" d="M184 753l-46 121h-40l-46 -121h19l47 103l46 -103h20zM136 458q14 0 24 -8.5t10 -25.5v-357q0 -20 -10 -28.5t-24 -8.5h-36q-33 0 -33 36v358q0 19 10 26.5t24 7.5h35zM37 62q0 -28 16.5 -45t45.5 -17h35q14 0 22.5 4t13.5 9v-13h30v649q0 23 -17 41t-46 18h-37 q-31 0 -47 -18t-16 -41v-37h30v24q0 21 9.5 31.5t24.5 10.5h31q21 0 29.5 -10.5t8.5 -26.5v-166q-11 13 -33 13h-43q-28 0 -42.5 -18t-14.5 -42v-366z" />
<glyph unicode="&#xe3;" horiz-adv-x="230" d="M20 766h27q0 4 0.5 10.5t3.5 12.5t8.5 10.5t14.5 4.5q14 0 21 -5t15 -13q9 -9 20 -15.5t31 -6.5q27 0 40 21.5t13 44.5h-27q0 -14 -6.5 -26t-20.5 -12q-12 0 -20.5 4.5t-20.5 15.5q-11 10 -19.5 14.5t-25.5 4.5q-28 0 -41 -19.5t-13 -45.5zM136 458q14 0 24 -8.5 t10 -25.5v-357q0 -20 -10 -28.5t-24 -8.5h-36q-33 0 -33 36v358q0 19 10 26.5t24 7.5h35zM37 62q0 -28 16.5 -45t45.5 -17h35q14 0 22.5 4t13.5 9v-13h30v649q0 23 -17 41t-46 18h-37q-31 0 -47 -18t-16 -41v-37h30v24q0 21 9.5 31.5t24.5 10.5h31q21 0 29.5 -10.5 t8.5 -26.5v-166q-11 13 -33 13h-43q-28 0 -42.5 -18t-14.5 -42v-366z" />
<glyph unicode="&#xe4;" horiz-adv-x="230" d="M99 790q0 11 -7.5 18.5t-18.5 7.5t-18.5 -7.5t-7.5 -18.5t7.5 -18.5t18.5 -7.5t18.5 7.5t7.5 18.5zM189 790q0 11 -7.5 18.5t-18.5 7.5t-18.5 -7.5t-7.5 -18.5t7.5 -18.5t18.5 -7.5t18.5 7.5t7.5 18.5zM136 458q14 0 24 -8.5t10 -25.5v-357q0 -20 -10 -28.5t-24 -8.5h-36 q-33 0 -33 36v358q0 19 10 26.5t24 7.5h35zM37 62q0 -28 16.5 -45t45.5 -17h35q14 0 22.5 4t13.5 9v-13h30v649q0 23 -17 41t-46 18h-37q-31 0 -47 -18t-16 -41v-37h30v24q0 21 9.5 31.5t24.5 10.5h31q21 0 29.5 -10.5t8.5 -26.5v-166q-11 13 -33 13h-43q-28 0 -42.5 -18 t-14.5 -42v-366z" />
<glyph unicode="&#xe5;" horiz-adv-x="230" d="M175 792q0 24 -17 41t-41 17t-41 -17t-17 -41t17 -41t41 -17t41 17t17 41zM75 792q0 17 12.5 29.5t29.5 12.5t29.5 -12.5t12.5 -29.5t-12.5 -29.5t-29.5 -12.5t-29.5 12.5t-12.5 29.5zM136 458q14 0 24 -8.5t10 -25.5v-357q0 -20 -10 -28.5t-24 -8.5h-36q-33 0 -33 36 v358q0 19 10 26.5t24 7.5h35zM37 62q0 -28 16.5 -45t45.5 -17h35q14 0 22.5 4t13.5 9v-13h30v649q0 23 -17 41t-46 18h-37q-31 0 -47 -18t-16 -41v-37h30v24q0 21 9.5 31.5t24.5 10.5h31q21 0 29.5 -10.5t8.5 -26.5v-166q-11 13 -33 13h-43q-28 0 -42.5 -18t-14.5 -42v-366z " />
<glyph unicode="&#xe6;" horiz-adv-x="346" d="M136 458q14 0 24 -8.5t10 -25.5v-357q0 -20 -10 -28.5t-24 -8.5h-36q-33 0 -33 36v358q0 19 10 26.5t24 7.5h35zM233 708q-30 0 -47 -20q-18 20 -49 20h-37q-31 0 -47 -18t-16 -41v-37h30v24q0 21 9.5 31.5t24.5 10.5h31q21 0 29.5 -10.5t8.5 -26.5v-166q-11 13 -33 13 h-43q-28 0 -42.5 -18t-14.5 -42v-366q0 -28 16.5 -45t45.5 -17h35q14 0 22.5 4t13.5 9v-13h30v8q14 -11 39 -11h14q40 0 53.5 21t13.5 48v90h-30v-90q0 -41 -35 -41h-18q-17 0 -27 11t-10 28v394h120v183q0 33 -17.5 50t-45.5 17h-24zM256 680q16 0 25 -11.5t9 -30.5v-150 h-90v150q0 42 34 42h22z" />
<glyph unicode="&#xe7;" horiz-adv-x="215" d="M128 -34v31q30 2 44.5 20t14.5 39v100h-30v-91q0 -38 -34 -38h-22q-17 0 -25.5 11t-8.5 25v573q0 42 34 42h22q20 0 27 -11.5t7 -30.5v-88h30v101q0 25 -17 42t-46 17h-24q-32 0 -47.5 -18.5t-15.5 -46.5v-581q0 -32 17.5 -48t43.5 -17v-30q0 -21 -18 -21h-5v-26h6 q26 0 36.5 13t10.5 33z" />
<glyph unicode="&#xe8;" horiz-adv-x="215" d="M108 753h20l-35 119h-43zM67 458h120v183q0 33 -17.5 50t-45.5 17h-24q-28 0 -45.5 -18t-17.5 -50v-574q0 -33 20 -51t49 -18h14q40 0 53.5 21t13.5 48v90h-30v-90q0 -41 -35 -41h-18q-17 0 -27 11t-10 28v394zM123 680q16 0 25 -11.5t9 -30.5v-150h-90v150q0 42 34 42 h22z" />
<glyph unicode="&#xe9;" horiz-adv-x="215" d="M178 872h-43l-35 -119h20zM67 458h120v183q0 33 -17.5 50t-45.5 17h-24q-28 0 -45.5 -18t-17.5 -50v-574q0 -33 20 -51t49 -18h14q40 0 53.5 21t13.5 48v90h-30v-90q0 -41 -35 -41h-18q-17 0 -27 11t-10 28v394zM123 680q16 0 25 -11.5t9 -30.5v-150h-90v150q0 42 34 42 h22z" />
<glyph unicode="&#xea;" horiz-adv-x="215" d="M176 753l-46 121h-40l-46 -121h20l46 103l47 -103h19zM67 458h120v183q0 33 -17.5 50t-45.5 17h-24q-28 0 -45.5 -18t-17.5 -50v-574q0 -33 20 -51t49 -18h14q40 0 53.5 21t13.5 48v90h-30v-90q0 -41 -35 -41h-18q-17 0 -27 11t-10 28v394zM123 680q16 0 25 -11.5 t9 -30.5v-150h-90v150q0 42 34 42h22z" />
<glyph unicode="&#xeb;" horiz-adv-x="215" d="M93 790q0 11 -7.5 18.5t-18.5 7.5t-18.5 -7.5t-7.5 -18.5t7.5 -18.5t18.5 -7.5t18.5 7.5t7.5 18.5zM183 790q0 11 -7.5 18.5t-18.5 7.5t-18.5 -7.5t-7.5 -18.5t7.5 -18.5t18.5 -7.5t18.5 7.5t7.5 18.5zM67 458h120v183q0 33 -17.5 50t-45.5 17h-24q-28 0 -45.5 -18 t-17.5 -50v-574q0 -33 20 -51t49 -18h14q40 0 53.5 21t13.5 48v90h-30v-90q0 -41 -35 -41h-18q-17 0 -27 11t-10 28v394zM123 680q16 0 25 -11.5t9 -30.5v-150h-90v150q0 42 34 42h22z" />
<glyph unicode="&#xec;" horiz-adv-x="105" d="M51 753h19l-34 119h-44zM38 0h30v708h-30v-708z" />
<glyph unicode="&#xed;" horiz-adv-x="105" d="M126 872h-44l-34 -119h20zM38 0h30v708h-30v-708z" />
<glyph unicode="&#xee;" horiz-adv-x="105" d="M120 753l-46 121h-40l-47 -121h19l48 103l46 -103h20zM38 0h30v708h-30v-708z" />
<glyph unicode="&#xef;" horiz-adv-x="105" d="M38 0h30v708h-30v-708zM35 790q0 11 -7.5 18.5t-18.5 7.5t-18.5 -7.5t-7.5 -18.5t7.5 -18.5t18.5 -7.5t18.5 7.5t7.5 18.5zM125 790q0 11 -7.5 18.5t-18.5 7.5t-18.5 -7.5t-7.5 -18.5t7.5 -18.5t18.5 -7.5t18.5 7.5t7.5 18.5z" />
<glyph unicode="&#xf0;" horiz-adv-x="215" d="M157 68q0 -41 -34 -41h-22q-34 0 -34 41v574q0 17 9 26.5t23 9.5h24q14 0 24 -9.5t10 -26.5v-574zM134 778l-25 -25l19 -19l26 26q3 -8 3 -16v-44q-16 8 -33 8h-24q-31 0 -47 -19t-16 -45v-582q0 -30 18 -47.5t47 -17.5h20q35 0 50 18t15 47v372v316q0 19 -10 33l26 26 l-19 19l-27 -27q-14 9 -33 9h-61v-30h60q5 0 11 -2z" />
<glyph unicode="&#xf1;" horiz-adv-x="222" d="M16 766h27q0 4 0.5 10.5t3.5 12.5t8.5 10.5t14.5 4.5q14 0 21 -5t15 -13q9 -9 20 -15.5t31 -6.5q27 0 40 21.5t13 44.5h-27q0 -14 -6.5 -26t-20.5 -12q-12 0 -20.5 4.5t-20.5 15.5q-11 10 -19.5 14.5t-25.5 4.5q-28 0 -41 -19.5t-13 -45.5zM167 640v-640h30v641 q0 31 -20 49t-47 18h-33q-13 0 -20.5 -4.5t-11.5 -9.5v14h-30v-708h30v643q0 17 9 26t24 9h30q18 0 28.5 -10.5t10.5 -27.5z" />
<glyph unicode="&#xf2;" horiz-adv-x="215" d="M110 753h19l-35 119h-43zM101 27q-34 0 -34 41v574q0 17 9 26.5t23 9.5h24q14 0 24 -9.5t10 -26.5v-574q0 -41 -34 -41h-22zM122 -3q35 0 50 18t15 47v581q0 32 -18.5 48.5t-44.5 16.5h-24q-31 0 -47 -19t-16 -45v-582q0 -30 18 -47.5t47 -17.5h20z" />
<glyph unicode="&#xf3;" horiz-adv-x="215" d="M178 872h-43l-35 -119h20zM101 27q-34 0 -34 41v574q0 17 9 26.5t23 9.5h24q14 0 24 -9.5t10 -26.5v-574q0 -41 -34 -41h-22zM122 -3q35 0 50 18t15 47v581q0 32 -18.5 48.5t-44.5 16.5h-24q-31 0 -47 -19t-16 -45v-582q0 -30 18 -47.5t47 -17.5h20z" />
<glyph unicode="&#xf4;" horiz-adv-x="215" d="M176 753l-46 121h-40l-46 -121h20l46 103l47 -103h19zM101 27q-34 0 -34 41v574q0 17 9 26.5t23 9.5h24q14 0 24 -9.5t10 -26.5v-574q0 -41 -34 -41h-22zM122 -3q35 0 50 18t15 47v581q0 32 -18.5 48.5t-44.5 16.5h-24q-31 0 -47 -19t-16 -45v-582q0 -30 18 -47.5 t47 -17.5h20z" />
<glyph unicode="&#xf5;" horiz-adv-x="215" d="M13 766h27q0 4 0.5 10.5t3.5 12.5t8.5 10.5t14.5 4.5q14 0 21 -5t15 -13q9 -9 20 -15.5t31 -6.5q27 0 40 21.5t13 44.5h-27q0 -14 -6.5 -26t-20.5 -12q-12 0 -20.5 4.5t-20.5 15.5q-11 10 -19.5 14.5t-25.5 4.5q-28 0 -41 -19.5t-13 -45.5zM101 27q-34 0 -34 41v574 q0 17 9 26.5t23 9.5h24q14 0 24 -9.5t10 -26.5v-574q0 -41 -34 -41h-22zM122 -3q35 0 50 18t15 47v581q0 32 -18.5 48.5t-44.5 16.5h-24q-31 0 -47 -19t-16 -45v-582q0 -30 18 -47.5t47 -17.5h20z" />
<glyph unicode="&#xf6;" horiz-adv-x="215" d="M92 790q0 11 -7.5 18.5t-18.5 7.5t-18.5 -7.5t-7.5 -18.5t7.5 -18.5t18.5 -7.5t18.5 7.5t7.5 18.5zM182 790q0 11 -7.5 18.5t-18.5 7.5t-18.5 -7.5t-7.5 -18.5t7.5 -18.5t18.5 -7.5t18.5 7.5t7.5 18.5zM101 27q-34 0 -34 41v574q0 17 9 26.5t23 9.5h24q14 0 24 -9.5 t10 -26.5v-574q0 -41 -34 -41h-22zM122 -3q35 0 50 18t15 47v581q0 32 -18.5 48.5t-44.5 16.5h-24q-31 0 -47 -19t-16 -45v-582q0 -30 18 -47.5t47 -17.5h20z" />
<glyph unicode="&#xf8;" horiz-adv-x="203" d="M143 706l26 -14l7 59h-27zM169 692l-26 14q-5 1 -9.5 1.5t-9.5 0.5h-24q-31 0 -47 -19t-16 -45v-582q0 -32 20 -49l-8 -60h27l6 47q9 -3 20 -3h20q35 0 50 18t15 47v581q0 31 -18 49zM101 27q-8 0 -15 3l71 569v-531q0 -41 -34 -41h-22zM139 675l-72 -578v545 q0 17 9 26.5t23 9.5h24q8 0 16 -3z" />
<glyph unicode="&#xf9;" horiz-adv-x="222" d="M112 753h20l-34 119h-44zM62 68v640h-30v-636q0 -38 21 -55.5t47 -17.5h28q17 0 25 4.5t11 8.5v-12h30v708h-30v-642q0 -37 -34 -37h-34q-16 0 -25 11t-9 28z" />
<glyph unicode="&#xfa;" horiz-adv-x="222" d="M177 872h-43l-35 -119h19zM62 68v640h-30v-636q0 -38 21 -55.5t47 -17.5h28q17 0 25 4.5t11 8.5v-12h30v708h-30v-642q0 -37 -34 -37h-34q-16 0 -25 11t-9 28z" />
<glyph unicode="&#xfb;" horiz-adv-x="222" d="M178 753l-46 121h-40l-46 -121h19l47 103l46 -103h20zM62 68v640h-30v-636q0 -38 21 -55.5t47 -17.5h28q17 0 25 4.5t11 8.5v-12h30v708h-30v-642q0 -37 -34 -37h-34q-16 0 -25 11t-9 28z" />
<glyph unicode="&#xfc;" horiz-adv-x="222" d="M92 790q0 11 -7.5 18.5t-18.5 7.5t-18.5 -7.5t-7.5 -18.5t7.5 -18.5t18.5 -7.5t18.5 7.5t7.5 18.5zM182 790q0 11 -7.5 18.5t-18.5 7.5t-18.5 -7.5t-7.5 -18.5t7.5 -18.5t18.5 -7.5t18.5 7.5t7.5 18.5zM62 68v640h-30v-636q0 -38 21 -55.5t47 -17.5h28q17 0 25 4.5 t11 8.5v-12h30v708h-30v-642q0 -37 -34 -37h-34q-16 0 -25 11t-9 28z" />
<glyph unicode="&#xfd;" horiz-adv-x="222" d="M63 73v635h-30v-632q0 -35 17.5 -55.5t51.5 -20.5h31q11 0 18 3t14 9v-84q0 -19 -7.5 -29.5t-26.5 -10.5h-34q-17 0 -25.5 9t-8.5 31v30h-30v-34q0 -35 18 -50.5t48 -15.5h31q35 0 50 19t15 47v784h-30v-637q0 -41 -33 -41h-28q-41 0 -41 43zM177 872h-44l-34 -119h19z " />
<glyph unicode="&#xfe;" horiz-adv-x="222" d="M92 30q-33 0 -33 36v576q0 36 33 36h32q19 0 28 -10.5t9 -27.5v-570q0 -17 -8.5 -28.5t-28.5 -11.5h-32zM29 -138h30v150q5 -8 13 -10t19 -2h31q39 0 54 22t15 53v561q0 35 -18.5 53.5t-48.5 18.5h-33q-25 0 -32 -14v116h-30v-948z" />
<glyph unicode="&#xff;" horiz-adv-x="222" d="M93 790q0 11 -7.5 18.5t-18.5 7.5t-18.5 -7.5t-7.5 -18.5t7.5 -18.5t18.5 -7.5t18.5 7.5t7.5 18.5zM183 790q0 11 -7.5 18.5t-18.5 7.5t-18.5 -7.5t-7.5 -18.5t7.5 -18.5t18.5 -7.5t18.5 7.5t7.5 18.5zM63 73v635h-30v-632q0 -35 17.5 -55.5t51.5 -20.5h31q11 0 18 3 t14 9v-84q0 -19 -7.5 -29.5t-26.5 -10.5h-34q-17 0 -25.5 9t-8.5 31v30h-30v-34q0 -35 18 -50.5t48 -15.5h31q35 0 50 19t15 47v784h-30v-637q0 -41 -33 -41h-28q-41 0 -41 43z" />
<glyph unicode="&#x152;" horiz-adv-x="324" d="M142 781q34 0 34 -41v-673q0 -41 -34 -41h-35q-16 0 -25 11t-9 29v674q0 20 9.5 30.5t24.5 10.5h35zM176 810v-10q-14 10 -36 10h-30q-34 0 -50.5 -18t-16.5 -44v-686q0 -28 17 -46.5t46 -18.5h37q19 0 33 6v-3h126v30h-96v428h96v30h-96v292h96v30h-126z" />
<glyph unicode="&#x153;" horiz-adv-x="342" d="M101 27q-34 0 -34 41v574q0 17 9 26.5t23 9.5h24q14 0 24 -9.5t10 -26.5v-574q0 -41 -34 -41h-22zM220 708q-30 0 -48 -20q-17 20 -48 20h-24q-31 0 -47 -19t-16 -45v-582q0 -30 18 -47.5t47 -17.5h20q36 0 52 21q19 -21 52 -21h14q40 0 53.5 21t13.5 48v90h-30v-90 q0 -41 -35 -41h-18q-17 0 -27 11t-10 28v394h120v183q0 33 -17.5 50t-45.5 17h-24zM243 680q16 0 25 -11.5t9 -30.5v-150h-90v150q0 42 34 42h22z" />
<glyph unicode="&#x178;" horiz-adv-x="219" d="M95 854q0 10 -7 16.5t-16 6.5q-10 0 -17 -6.5t-7 -16.5t7 -16.5t17 -6.5q9 0 16 6.5t7 16.5zM176 854q0 10 -7 16.5t-17 6.5q-9 0 -16 -6.5t-7 -16.5t7 -16.5t16 -6.5q10 0 17 6.5t7 16.5zM209 810h-35l-60 -288l-61 288h-35l80 -365v-445h30v445z" />
<glyph unicode="&#x2c6;" horiz-adv-x="216" d="M174 753l-46 121h-40l-47 -121h19l48 103l46 -103h20z" />
<glyph unicode="&#x2dc;" horiz-adv-x="222" d="M20 766h27q0 4 0.5 10.5t3.5 12.5t8.5 10.5t14.5 4.5q14 0 20.5 -5t15.5 -13q10 -8 20.5 -15t30.5 -7q27 0 40 21.5t13 44.5h-27q0 -14 -6.5 -26t-20.5 -12q-12 0 -21 6l-20 14q-11 9 -19.5 14t-25.5 5q-28 0 -41 -19.5t-13 -45.5z" />
<glyph unicode="&#x2000;" horiz-adv-x="454" />
<glyph unicode="&#x2001;" horiz-adv-x="908" />
<glyph unicode="&#x2002;" horiz-adv-x="454" />
<glyph unicode="&#x2003;" horiz-adv-x="908" />
<glyph unicode="&#x2004;" horiz-adv-x="302" />
<glyph unicode="&#x2005;" horiz-adv-x="227" />
<glyph unicode="&#x2006;" horiz-adv-x="151" />
<glyph unicode="&#x2007;" horiz-adv-x="151" />
<glyph unicode="&#x2008;" horiz-adv-x="113" />
<glyph unicode="&#x2009;" horiz-adv-x="181" />
<glyph unicode="&#x200a;" horiz-adv-x="50" />
<glyph unicode="&#x2010;" horiz-adv-x="188" d="M146 488h-96v-30h96v30z" />
<glyph unicode="&#x2011;" horiz-adv-x="188" d="M146 488h-96v-30h96v30z" />
<glyph unicode="&#x2013;" horiz-adv-x="258" d="M208 488h-158v-30h158v30z" />
<glyph unicode="&#x2014;" horiz-adv-x="418" d="M375 488h-325v-30h325v30z" />
<glyph unicode="&#x2018;" horiz-adv-x="166" d="M126 658l-40 168h-50l72 -168h18z" />
<glyph unicode="&#x2019;" horiz-adv-x="166" d="M134 826h-49l-40 -168h18z" />
<glyph unicode="&#x201a;" horiz-adv-x="166" d="M134 143h-49l-40 -168h18z" />
<glyph unicode="&#x201c;" horiz-adv-x="252" d="M195 658h18l-40 168h-49zM108 658h18l-40 168h-50z" />
<glyph unicode="&#x201d;" horiz-adv-x="271" d="M134 826h-50l-40 -168h18zM221 826h-49l-40 -168h18z" />
<glyph unicode="&#x201e;" horiz-adv-x="271" d="M134 143h-50l-40 -168h18zM221 143h-49l-40 -168h18z" />
<glyph unicode="&#x2022;" horiz-adv-x="216" d="M188 451q0 31 -22 53t-53 22t-53 -22t-22 -53t22 -53t53 -22t53 22t22 53z" />
<glyph unicode="&#x2026;" horiz-adv-x="403" d="M114 34q0 15 -10.5 25.5t-25.5 10.5t-25.5 -10.5t-10.5 -25.5t10.5 -25.5t25.5 -10.5t25.5 10.5t10.5 25.5zM245 34q0 15 -10.5 25.5t-25.5 10.5t-25.5 -10.5t-10.5 -25.5t10.5 -25.5t25.5 -10.5t25.5 10.5t10.5 25.5zM376 34q0 15 -10.5 25.5t-25.5 10.5t-25.5 -10.5 t-10.5 -25.5t10.5 -25.5t25.5 -10.5t25.5 10.5t10.5 25.5z" />
<glyph unicode="&#x202f;" horiz-adv-x="181" />
<glyph unicode="&#x2039;" horiz-adv-x="166" d="M112 530l-78 -155l78 -155h6l-46 155l46 155h-6z" />
<glyph unicode="&#x203a;" horiz-adv-x="166" d="M54 220h7l77 155l-77 155h-7l47 -155z" />
<glyph unicode="&#x205f;" horiz-adv-x="227" />
<glyph unicode="&#x2122;" horiz-adv-x="368" d="M160 778h-114v-12h51v-148h12v148h51v12zM191 780l-36 -160h13l26 120l48 -128l48 128l26 -120h12l-34 160l-52 -135z" />
</font>
</defs>
</svg>
