<?xml version="1.0" standalone="no"?>
<!DOCTYPE svg PUBLIC "-//W3C//DTD SVG 1.1//EN" "http://www.w3.org/Graphics/SVG/1.1/DTD/svg11.dtd" >
<svg xmlns="http://www.w3.org/2000/svg">
<metadata>
This is a custom SVG webfont generated by Font Squirrel.
Copyright   : 4.1 (c)1986-92 by Richard A. Ware. All Rights Reserved.
</metadata>
<defs>
<font id="webfont" horiz-adv-x="220" >
<font-face units-per-em="1000" ascent="800" descent="-200" />
<missing-glyph horiz-adv-x="180" />
<glyph unicode=" "  horiz-adv-x="180" />
<glyph unicode="&#x09;" horiz-adv-x="180" />
<glyph unicode="&#xa0;" horiz-adv-x="180" />
<glyph unicode="!" horiz-adv-x="162" d="M113 190v619h-63v-619h63zM133 42q0 20 -14 34t-34 14t-34 -14t-14 -34t14 -34t34 -14t34 14t14 34z" />
<glyph unicode="&#x22;" horiz-adv-x="232" d="M101 818h-39l8 -168h24zM170 818h-39l7 -168h24z" />
<glyph unicode="#" horiz-adv-x="302" d="M172 758h-24l-30 -124h-62l-8 -24h64l-26 -112h-54l-8 -24h56l-30 -124h24l30 124h54l-30 -128h24l30 128h64l8 24h-66l28 112h58l8 24h-61l29 124h-24l-29 -124h-55zM136 610h55l-27 -112h-54z" />
<glyph unicode="$" d="M118 94q-21 0 -21 24v100h-60v-102q0 -79 67 -79v-42h30v42q35 0 50.5 21t15.5 56v274q0 29 -11 42t-35 20q-30 9 -43.5 17t-13.5 33v180q0 22 21 22q8 0 15 -4.5t7 -17.5v-76h60v92q0 34 -20 50t-46 16v32h-30v-32q-30 0 -48.5 -18.5t-18.5 -45.5v-214q0 -33 14 -46 t41 -21q27 -7 37.5 -19.5t10.5 -30.5v-249q0 -24 -22 -24z" />
<glyph unicode="%" horiz-adv-x="428" d="M54 -27h50l247 851h-50zM174 491v267q0 26 -17 47t-51 21h-18q-33 0 -48.5 -19.5t-15.5 -47.5v-269q0 -35 18 -54t47 -19h20q33 0 49 20t16 54zM114 742v-228q0 -7 -4 -13t-12 -6t-11 6t-3 13v228q0 8 3 13.5t11 5.5t12 -6t4 -13zM390 68v267q0 26 -17 47t-51 21h-18 q-33 0 -48.5 -19.5t-15.5 -47.5v-269q0 -35 18 -54t47 -19h20q33 0 49 20t16 54zM330 319v-228q0 -7 -4 -13t-12 -6t-11 6t-3 13v228q0 8 3 13.5t11 5.5t12 -6t4 -13z" />
<glyph unicode="&#x26;" d="M138 230v-71q0 -28 -24 -28t-24 28v199q0 20 8 31t26 11h29v60h-29q-18 0 -26 11t-8 27v132q0 12 5 20t19 8q13 0 18.5 -8t5.5 -20v-71h62v101q0 23 -16.5 40.5t-45.5 17.5v80h-46v-80q-35 0 -49.5 -17t-14.5 -41v-176q0 -27 12 -38t23 -16q-11 -6 -23 -21.5t-12 -44.5 v-218q0 -35 17.5 -55t46.5 -20v-73h46v73q30 0 46 21t16 48v90h-62z" />
<glyph unicode="'" horiz-adv-x="176" d="M106 818h-40l8 -168h24z" />
<glyph unicode="(" horiz-adv-x="170" d="M157 840q-28 0 -52 -6.5t-41 -21.5t-27 -40t-10 -62v-644q0 -38 10 -63t27 -40t41 -21t52 -6v60q-37 0 -52 15.5t-15 59.5v634q0 44 15 59.5t52 15.5v60z" />
<glyph unicode=")" horiz-adv-x="170" d="M148 66v644q0 37 -10 62t-27 40t-41 21.5t-52 6.5v-60q37 0 52 -15.5t15 -59.5v-634q0 -44 -15 -59.5t-52 -15.5v-60q28 0 52 6t41 21t27 40t10 63z" />
<glyph unicode="*" horiz-adv-x="276" d="M134 711q-6 7 -16 17.5t-21 20.5t-22.5 17.5t-20.5 7.5q-8 0 -13 -5.5t-5 -11.5q0 -11 11 -20t26 -16t31 -12l26 -8q-11 -3 -27 -6.5t-30.5 -9t-24.5 -13t-10 -17.5q0 -7 5.5 -13.5t15.5 -6.5t20.5 6t20.5 15q10 8 18 18l16 18q-5 -18 -10.5 -34t-5.5 -39 q0 -14 4.5 -23.5t17.5 -9.5q12 0 16.5 9t4.5 23q1 18 -5 36l-12 38l16 -17q10 -10 21.5 -19.5t23 -16t21.5 -6.5q8 0 13 5.5t5 12.5q0 11 -11.5 19.5t-27 14.5t-31.5 10t-25 7q10 3 26 8.5t31 13t25.5 16.5t10.5 20q0 15 -17 15q-8 0 -19 -7.5t-22.5 -17.5t-21.5 -21 l-18 -18q5 19 11 38.5t6 40.5q0 14 -4.5 23t-16.5 9t-17 -9t-5 -23q0 -20 5.5 -41t10.5 -38z" />
<glyph unicode="+" horiz-adv-x="222" d="M22 428h60v-76h60v76h60v60h-60v74h-60v-74h-60v-60z" />
<glyph unicode="," horiz-adv-x="216" d="M154 75h-48l-40 -168h16z" />
<glyph unicode="-" horiz-adv-x="225" d="M22 488v-60h180v60h-180z" />
<glyph unicode="." horiz-adv-x="216" d="M141 34q0 15 -10.5 25.5t-25.5 10.5t-25.5 -10.5t-10.5 -25.5t10.5 -25.5t25.5 -10.5t25.5 10.5t10.5 25.5z" />
<glyph unicode="/" horiz-adv-x="230" d="M28 -27h46l130 851h-45z" />
<glyph unicode="0" horiz-adv-x="230" d="M137 726v-650q0 -8 -4.5 -16t-16.5 -8t-17 8t-5 16v650q0 11 5 19.5t17 8.5t16.5 -8.5t4.5 -19.5zM31 715v-624q0 -52 23.5 -76t53.5 -24h16q30 0 53 23.5t23 74.5v626q0 52 -23 76t-53 24h-16q-30 0 -53.5 -24t-23.5 -76z" />
<glyph unicode="1" horiz-adv-x="207" d="M95 0h60v810h-60l-73 -112l44 -29l29 45v-714z" />
<glyph unicode="2" d="M195 60h-107v336q0 31 15 44.5t44 24.5q13 4 22.5 9t16 13.5t9.5 21.5t3 34v195q0 44 -24 60t-54 16h-14q-15 0 -29 -3.5t-25 -12.5t-17.5 -24t-6.5 -38v-140h60v131q0 13 7 20t18 7t18 -6.5t7 -20.5v-171q0 -21 -10 -30t-43 -23q-27 -11 -42 -27.5t-15 -51.5v-424h167 v60z" />
<glyph unicode="3" d="M195 70v356q0 26 -9.5 37t-20.5 16q14 5 22 14t8 35v210q0 41 -20.5 58.5t-58.5 17.5h-15q-37 0 -58 -23t-21 -54v-131h61v124q0 11 7.5 17.5t18.5 6.5t18.5 -6t7.5 -18v-192q0 -17 -5.5 -23t-18.5 -6h-41v-60h42q23 0 23 -31v-340q0 -11 -7.5 -17.5t-18.5 -6.5 t-18.5 6.5t-7.5 17.5v134h-61v-140q0 -42 22 -60t57 -18h15q38 0 58.5 18.5t20.5 57.5z" />
<glyph unicode="4" horiz-adv-x="231" d="M128 328h-49l49 232v-232zM188 328v482h-55l-126 -542h121v-268h60v268h35v60h-35z" />
<glyph unicode="5" d="M37 456h66q17 0 26 -7t9 -27v-342q0 -11 -7.5 -17.5t-18.5 -6.5t-19 6.5t-8 17.5v132h-60v-138q0 -38 22.5 -58t56.5 -20h16q34 0 56 20t22 56v378q0 30 -19 48t-49 18h-33v234h95v60h-155v-354z" />
<glyph unicode="6" d="M132 420v-340q0 -24 -20 -24t-20 24v340q0 10 5 17.5t15 7.5t15 -8t5 -17zM192 80v348q0 40 -21 60t-51 20q-13 0 -19.5 -4t-8.5 -6v233q0 11 4.5 18.5t15.5 7.5t15.5 -8t4.5 -17v-72h60v74q0 38 -18.5 60.5t-61.5 22.5t-61.5 -24t-18.5 -61v-651q0 -42 21 -64.5 t59 -22.5t59 22.5t21 63.5z" />
<glyph unicode="7" horiz-adv-x="198" d="M80 0l96 750v60h-151v-60h92l-98 -750h61z" />
<glyph unicode="8" horiz-adv-x="222" d="M198 92v306q0 23 -9.5 36.5t-20.5 21.5q11 6 20.5 17t9.5 34v211q0 51 -24 74.5t-60 23.5h-8q-34 0 -57.5 -25.5t-23.5 -74.5v-209q0 -23 10 -34.5t20 -16.5q-10 -8 -20 -20t-10 -38v-304q0 -53 24.5 -76.5t56.5 -23.5h14q32 0 55 23.5t23 74.5zM135 726v-200 q0 -28 -24 -28q-23 0 -23 28v200q0 12 5.5 21t17.5 9q13 0 18.5 -9t5.5 -21zM111 418q12 0 18 -9t6 -21v-309q0 -12 -6.5 -18.5t-16.5 -6.5q-11 0 -17.5 6.5t-6.5 18.5v309q0 12 6 21t17 9z" />
<glyph unicode="9" horiz-adv-x="230" d="M141 722v-206q0 -27 -23 -27q-11 0 -18 6.5t-7 20.5v206q0 12 6 21t18 9q13 0 18.5 -9t5.5 -21zM140 440v-361q0 -26 -22 -26q-11 0 -17.5 6.5t-6.5 20.5v64h-63v-52q0 -51 23 -75t58 -24h11q37 0 59 27t22 70v628q0 42 -22.5 70t-60.5 28h-11q-38 0 -59 -29t-21 -71 v-206q0 -40 21.5 -60t54.5 -20h12q8 0 14 3t8 7z" />
<glyph unicode=":" horiz-adv-x="216" d="M144 34q0 15 -10.5 25.5t-25.5 10.5t-25.5 -10.5t-10.5 -25.5t10.5 -25.5t25.5 -10.5t25.5 10.5t10.5 25.5zM144 626q0 15 -10.5 25.5t-25.5 10.5t-25.5 -10.5t-10.5 -25.5t10.5 -25.5t25.5 -10.5t25.5 10.5t10.5 25.5z" />
<glyph unicode=";" horiz-adv-x="216" d="M144 75h-56l-40 -168h24zM144 626q0 15 -10.5 25.5t-25.5 10.5t-25.5 -10.5t-10.5 -25.5t10.5 -25.5t25.5 -10.5t25.5 10.5t10.5 25.5z" />
<glyph unicode="&#x3c;" horiz-adv-x="176" d="M108 628l-77 -155l77 -155h38l-75 155l75 155h-38z" />
<glyph unicode="=" horiz-adv-x="225" d="M24 555v-60h180v60h-180zM24 420v-60h180v60h-180z" />
<glyph unicode="&#x3e;" horiz-adv-x="176" d="M78 318l77 155l-77 155h-38l75 -155l-75 -155h38z" />
<glyph unicode="?" d="M138 190v181q0 19 5 31.5t13 26.5l31 48q12 19 12 53v215q0 30 -17.5 47.5t-49.5 17.5h-30q-33 0 -49.5 -18.5t-16.5 -47.5v-104h60v76q0 14 3.5 21t14.5 7h6q11 0 14.5 -7t3.5 -21v-166q0 -14 -2 -28.5t-10 -25.5l-28 -42q-11 -17 -16.5 -29.5t-5.5 -32.5v-202h62z M155 42q0 20 -14 34t-34 14t-34 -14t-14 -34t14 -34t34 -14t34 14t14 34z" />
<glyph unicode="@" horiz-adv-x="370" d="M182 242q-22 0 -22 25v119q0 23 17 23t17 -23v-144h-12zM160 548v30q0 8 3 14t13 6q9 0 12.5 -6t3.5 -14v-130q-11 8 -32 8q-26 0 -39 -19t-13 -45v-129q0 -37 23 -55.5t56 -18.5h64q27 0 44 5.5t26 16.5t12 27.5t3 39.5v373q0 47 -27 76t-84 29h-83q-54 0 -80 -30 t-26 -75v-472q0 -47 29 -79t77 -32h96q29 0 48 7t30 18t15.5 24.5t4.5 26.5v20h-44v-6q0 -25 -14 -35.5t-44 -10.5h-81q-73 0 -73 76v456q0 32 19 50t55 18h62q36 0 56 -21t20 -55v-356q0 -24 -12 -31t-24 -7h-5v340q0 30 -20 46t-49 16h-12q-29 0 -45.5 -19t-16.5 -43v-34 h52z" />
<glyph unicode="A" d="M32 752v-752h63v428h30v-428h63v752q0 30 -22 44t-46 14h-22q-29 0 -47.5 -14.5t-18.5 -43.5zM125 488h-30v246q0 16 13 16h4q13 0 13 -16v-246z" />
<glyph unicode="B" d="M110 750q12 0 17 -7t5 -18v-213q0 -25 -22 -25h-12v263h12zM110 427q22 0 22 -27v-316q0 -24 -22 -24h-12v367h12zM35 810v-810h78q40 0 61 21.5t21 56.5v310q0 26 -8.5 43.5t-20.5 25.5q29 15 29 61v214q0 34 -22 56t-60 22h-78z" />
<glyph unicode="C" horiz-adv-x="228" d="M120 -6q39 0 59.5 22.5t20.5 62.5v128h-63v-133q0 -11 -5.5 -15.5t-13.5 -4.5t-13 5t-5 15v660q0 8 4.5 14t14.5 6q8 0 13 -6t5 -14v-131h63v135q0 36 -22.5 56t-57.5 20h-4q-36 0 -57.5 -21t-21.5 -56v-657q0 -42 22 -64t57 -22h4z" />
<glyph unicode="D" d="M102 750q15 0 22.5 -9.5t7.5 -24.5v-622q0 -15 -6.5 -24.5t-23.5 -9.5h-4v690h4zM35 810v-810h78q42 0 62 21.5t20 56.5v654q0 32 -21 55t-61 23h-78z" />
<glyph unicode="E" horiz-adv-x="188" d="M95 750h63v60h-126v-810h126v60h-63v368h63v60h-63v262z" />
<glyph unicode="F" horiz-adv-x="180" d="M95 750h63v60h-126v-810h63v428h63v60h-63v262z" />
<glyph unicode="G" horiz-adv-x="234" d="M200 739q0 39 -24 58t-56 19h-4q-37 0 -58 -21t-21 -57v-664q0 -40 24 -58.5t55 -18.5h4q35 0 57.5 18t22.5 59v414h-80v-60h17v-350q0 -21 -19 -21q-8 0 -13 4.5t-5 16.5v656q0 9 4 15.5t14 6.5q11 0 15 -6.5t4 -14.5v-132h63v136z" />
<glyph unicode="H" horiz-adv-x="230" d="M137 488h-42v322h-63v-810h63v428h42v-428h63v810h-63v-322z" />
<glyph unicode="I" horiz-adv-x="140" d="M38 0h62v810h-62v-810z" />
<glyph unicode="J" horiz-adv-x="228" d="M36 210v-140q0 -40 22.5 -59t57.5 -19h4q37 0 57.5 19.5t20.5 58.5v739h-62v-739q0 -9 -5 -13.5t-13 -4.5q-20 0 -20 18v140h-62z" />
<glyph unicode="K" horiz-adv-x="245" d="M96 353l74 -353h62l-97 467l91 343h-62l-68 -258v258h-62v-810h62v353z" />
<glyph unicode="L" horiz-adv-x="188" d="M95 60v750h-63v-810h126v60h-63z" />
<glyph unicode="M" horiz-adv-x="345" d="M88 703l68 -593h40l68 593v-703h62v810h-102l-48 -456l-48 456h-102v-810h62v703z" />
<glyph unicode="N" horiz-adv-x="272" d="M94 514l98 -514h49v810h-63v-456l-82 456h-64v-810h62v514z" />
<glyph unicode="O" horiz-adv-x="230" d="M137 731v-647q0 -12 -4 -19.5t-15 -7.5t-14.5 8t-3.5 19v646q0 11 4 17.5t14 6.5q11 0 15 -6.5t4 -16.5zM37 737v-667q0 -34 21.5 -55.5t57.5 -21.5h4q38 0 59 21.5t21 55.5v668q0 32 -20 54t-60 22h-4q-39 0 -59 -23t-20 -54z" />
<glyph unicode="P" d="M105 750q8 0 14 -7t6 -18v-215q0 -22 -19 -22h-11v262h10zM188 733q0 35 -22 56t-58 21h-76v-810h63v428h18q35 0 55 20t20 55v230z" />
<glyph unicode="Q" horiz-adv-x="230" d="M37 70q0 -29 15.5 -48.5t41.5 -26.5v-26q0 -23 8.5 -38t25.5 -31l33 33q-19 15 -19 37v25q28 6 43 26t15 49v668q0 32 -20 54t-60 22h-4q-39 0 -59 -23t-20 -54v-667zM137 731v-647q0 -12 -4 -19.5t-15 -7.5t-14.5 8t-3.5 19v646q0 11 4 17.5t14 6.5q11 0 15 -6.5 t4 -16.5z" />
<glyph unicode="R" horiz-adv-x="222" d="M132 401v-401h63v396q0 20 -9 37t-25 23q16 6 25 20t9 38v214q0 33 -18 57.5t-60 24.5h-85v-810h63v426h17q9 0 14.5 -7t5.5 -18zM112 750q9 0 14.5 -7.5t5.5 -18.5v-216q0 -11 -5 -16.5t-13 -5.5h-19v264h17z" />
<glyph unicode="S" d="M123 -4q38 0 57.5 22.5t19.5 54.5v354q0 45 -34 61l-38 17q-14 6 -21 16.5t-7 30.5v183q0 10 5.5 14.5t13.5 4.5t13 -4.5t5 -14.5v-83h63v86q0 35 -21 55.5t-59 20.5h-4q-39 0 -59 -20t-20 -56v-212q0 -44 33 -60l46 -22q10 -5 15.5 -17t5.5 -28v-319q0 -23 -19 -23 q-18 0 -18 23v100h-63v-106q0 -35 21.5 -56.5t58.5 -21.5h6z" />
<glyph unicode="T" d="M83 750v-750h63v750h60v60h-183v-60h60z" />
<glyph unicode="U" horiz-adv-x="235" d="M120 -6q42 0 61 22t19 54v740h-63v-732q0 -24 -19 -24q-8 0 -13 6t-5 18v732h-63v-739q0 -33 20 -55t59 -22h4z" />
<glyph unicode="V" horiz-adv-x="248" d="M232 810h-62l-44 -480l-42 480h-63l93 -810h25z" />
<glyph unicode="W" horiz-adv-x="425" d="M306 303l-62 507h-56l-62 -506l-43 506h-63l86 -810h32l78 620l78 -620h32l84 810h-62z" />
<glyph unicode="X" horiz-adv-x="198" d="M100 260l28 -260h66l-63 402l62 408h-63l-31 -250l-31 250h-63l63 -407l-63 -403h66z" />
<glyph unicode="Y" horiz-adv-x="219" d="M206 810h-62l-34 -195l-32 195h-63l65 -292v-518h62v518z" />
<glyph unicode="Z" horiz-adv-x="216" d="M92 60l100 720v30h-154v-60h92l-105 -750h163v60h-96z" />
<glyph unicode="[" horiz-adv-x="162" d="M38 -70h104v40h-42v840h42v40h-104v-920z" />
<glyph unicode="\" horiz-adv-x="230" d="M73 824h-45l130 -851h46z" />
<glyph unicode="]" horiz-adv-x="162" d="M72 -30h-42v-40h105v920h-104v-40h41v-840z" />
<glyph unicode="^" horiz-adv-x="216" d="M174 501l-46 265h-40l-47 -265h19l48 203l46 -203h20z" />
<glyph unicode="_" horiz-adv-x="188" d="M194 -30h-194v-30h194v30z" />
<glyph unicode="`" horiz-adv-x="216" d="M124 753h26l-35 119h-49z" />
<glyph unicode="a" horiz-adv-x="230" d="M118 428q11 0 16.5 -6.5t5.5 -16.5v-327q0 -21 -22 -21q-21 0 -21 21v327q0 10 5 16.5t16 6.5zM37 74q0 -77 62 -77q18 0 26 5t15 13v-15h60v645q0 67 -70 67h-26q-33 0 -50 -19t-17 -45v-56h60v38q0 9 5.5 15.5t16.5 6.5t16 -6.5t5 -15.5v-155q-7 6 -15 9.5t-25 3.5 q-33 0 -48 -20.5t-15 -61.5v-332z" />
<glyph unicode="b" horiz-adv-x="222" d="M94 0v17q7 -8 14.5 -12.5t19.5 -4.5q32 0 50.5 24t18.5 62v550q0 29 -16 50.5t-48 21.5q-13 0 -21.5 -3.5t-16.5 -10.5v116h-60v-810h59zM116 60q-11 0 -16.5 6.5t-5.5 15.5v540q0 11 5.5 18.5t16.5 7.5t16 -7.5t5 -17.5v-541q0 -9 -5 -15.5t-16 -6.5z" />
<glyph unicode="c" horiz-adv-x="230" d="M138 508h60v139q0 27 -19 48t-52 21h-23q-32 0 -49.5 -22t-17.5 -49v-577q0 -33 20.5 -52.5t52.5 -19.5h14q33 0 53.5 19t20.5 49v131h-60v-119q0 -19 -21 -19q-8 0 -14 5t-6 16v549q0 8 5.5 14.5t14.5 6.5t15 -6.5t6 -14.5v-119z" />
<glyph unicode="d" horiz-adv-x="222" d="M114 652q11 0 15.5 -7t4.5 -17v-546q0 -22 -20 -22q-9 0 -15.5 5.5t-6.5 16.5v546q0 11 5.5 17.5t16.5 6.5zM96 712q-29 0 -46.5 -19t-17.5 -57v-551q0 -40 17 -64t47 -24q18 0 25.5 5t12.5 11v-13h60v810h-60v-111q-6 5 -13 9t-25 4z" />
<glyph unicode="e" horiz-adv-x="225" d="M114 648q20 0 20 -22v-164h-40v164q0 11 6 16.5t14 5.5zM94 402h100v239q0 31 -18.5 51t-56.5 20h-10q-42 0 -58.5 -21.5t-16.5 -50.5v-568q0 -38 22.5 -56.5t52.5 -18.5h10q13 0 26.5 4t24 13t17.5 23t7 35v125h-60v-119q0 -21 -20 -21t-20 21v324z" />
<glyph unicode="f" horiz-adv-x="202" d="M36 746v-38h-22v-60h22v-648h60v648h40v60h-40v26q0 16 19 16q8 0 13.5 -4t5.5 -12v-5h60v17q0 30 -21 47t-57 17t-58 -16t-22 -48z" />
<glyph unicode="g" horiz-adv-x="222" d="M100 -4q15 0 22.5 5t12.5 12v-73q0 -22 -21 -22t-21 22v18h-60v-31q0 -37 21.5 -53t52.5 -16h14q35 0 54.5 17t19.5 51v782h-60v-16q-5 8 -12 13t-21 5q-35 0 -52 -20.5t-17 -53.5v-554q0 -38 16.5 -62t50.5 -24zM113 648q11 0 16.5 -8t5.5 -20v-540q0 -24 -20 -24 q-22 0 -22 24v540q0 12 4.5 20t15.5 8z" />
<glyph unicode="h" horiz-adv-x="222" d="M137 614v-614h60v636q0 35 -18.5 53.5t-48.5 18.5q-17 0 -23 -3t-12 -8v113h-60v-810h60v614q0 11 4.5 19t16.5 8t16.5 -8t4.5 -19z" />
<glyph unicode="i" horiz-adv-x="139" d="M39 0h60v708h-60v-708zM104 789q0 14 -10.5 24.5t-24.5 10.5t-24.5 -10.5t-10.5 -24.5t10.5 -24.5t24.5 -10.5t24.5 10.5t10.5 24.5z" />
<glyph unicode="j" horiz-adv-x="136" d="M38 -134h60v842h-60v-842zM104 789q0 14 -10.5 24.5t-24.5 10.5t-24.5 -10.5t-10.5 -24.5t10.5 -24.5t24.5 -10.5t24.5 10.5t10.5 24.5z" />
<glyph unicode="k" horiz-adv-x="244" d="M96 352l72 -352h63l-97 461l65 247h-63l-40 -173v275h-60v-810h60v352z" />
<glyph unicode="l" horiz-adv-x="142" d="M40 0h60v810h-60v-810z" />
<glyph unicode="m" horiz-adv-x="345" d="M304 636q0 34 -18 53t-51 19q-17 0 -29 -5.5t-20 -13.5q-6 8 -16.5 13.5t-31.5 5.5q-14 0 -21.5 -3.5t-12.5 -7.5v11h-60v-708h60v616q0 10 4.5 17.5t15.5 7.5t15.5 -7.5t4.5 -17.5v-616h60v616q0 11 4.5 18t15.5 7t15.5 -7t4.5 -18v-616h60v636z" />
<glyph unicode="n" horiz-adv-x="222" d="M137 616v-616h60v636q0 29 -17.5 50.5t-49.5 21.5q-15 0 -22.5 -3t-12.5 -8v11h-60v-708h60v616q0 11 4.5 18t15.5 7q22 0 22 -25z" />
<glyph unicode="o" horiz-adv-x="228" d="M117 52q-8 0 -14 4.5t-6 15.5v558q0 11 6 16.5t14 5.5t14 -5.5t6 -17.5v-557q0 -20 -20 -20zM117 -6q37 0 58.5 19.5t21.5 50.5v578q0 30 -22.5 50t-57.5 20t-57.5 -19.5t-22.5 -50.5v-578q0 -33 21.5 -51.5t58.5 -18.5z" />
<glyph unicode="p" horiz-adv-x="222" d="M194 623q0 38 -17 62.5t-52 24.5q-13 0 -20 -4t-13 -10v12h-60v-842h60v142q15 -12 38 -12q35 0 49.5 20.5t14.5 49.5v557zM113 58q-10 0 -15.5 6.5t-5.5 17.5v540q0 26 20 26q21 0 21 -26v-540q0 -11 -4.5 -17.5t-15.5 -6.5z" />
<glyph unicode="q" horiz-adv-x="229" d="M137 696q-6 6 -13 10t-20 4q-35 0 -52 -24.5t-17 -62.5v-557q0 -29 14.5 -49.5t49.5 -20.5q23 0 38 12v-142h60v842h-60v-12zM137 622v-540q0 -11 -5.5 -17.5t-15.5 -6.5q-11 0 -15.5 6.5t-4.5 17.5v540q0 26 21 26q20 0 20 -26z" />
<glyph unicode="r" horiz-adv-x="222" d="M142 616v-90h60v110q0 32 -17.5 52t-50.5 20q-14 0 -21.5 -3.5t-12.5 -7.5v11h-60v-708h60v616q0 10 4.5 17.5t15.5 7.5t16.5 -7t5.5 -18z" />
<glyph unicode="s" horiz-adv-x="205" d="M114 -3q30 0 48 18t18 53v344q0 41 -40 57l-24 9q-14 5 -20 10.5t-6 19.5v124q0 16 15 16t15 -16v-82h60v94q0 31 -18.5 47.5t-46.5 16.5h-21q-32 0 -48 -17.5t-16 -44.5v-153q0 -26 8.5 -39.5t25.5 -19.5l32 -12q14 -5 19 -18t5 -36v-290q0 -9 -3 -15t-13 -6t-12.5 6 t-2.5 16v101h-60v-114q0 -36 17.5 -52.5t49.5 -16.5h18z" />
<glyph unicode="t" horiz-adv-x="225" d="M21 648h27v-580q0 -35 21 -56t57 -21q42 0 61 21.5t19 55.5v96h-60v-92q0 -20 -19 -20t-19 20v576h84v60h-84v47h-60v-47h-27v-60z" />
<glyph unicode="u" horiz-adv-x="222" d="M92 92v616h-60v-623q0 -48 18.5 -68t49.5 -20q14 0 21 3.5t13 9.5v-10h60v708h-60v-617q0 -25 -20 -25q-12 0 -17 7.5t-5 18.5z" />
<glyph unicode="v" horiz-adv-x="218" d="M206 708h-63l-31 -408l-32 408h-62l74 -708h40z" />
<glyph unicode="w" horiz-adv-x="365" d="M266 322l-42 386h-70l-42 -386l-32 386h-63l75 -708h40l57 557l57 -557h40l75 708h-64z" />
<glyph unicode="x" d="M111 226l35 -226h64l-67 389l55 319h-62l-26 -172l-22 172h-63l56 -318l-67 -390h62z" />
<glyph unicode="y" horiz-adv-x="222" d="M195 -76v784h-60v-622q0 -26 -21 -26q-20 0 -20 26v622h-61v-622q0 -39 16.5 -62.5t50.5 -23.5q14 0 21 3.5t14 8.5v-71q0 -23 -21 -23q-9 0 -15 6t-6 17v17h-60v-32q0 -32 19 -50t51 -18h22q38 0 54 20t16 46z" />
<glyph unicode="z" d="M102 60l92 595v53h-152v-60h89l-99 -648h157v60h-87z" />
<glyph unicode="{" horiz-adv-x="165" d="M51 334v-328q0 -34 17 -52.5t62 -18.5h24v50h-13q-15 0 -21 8t-6 23v325q0 26 -11 36.5t-26 18.5q16 5 26.5 15.5t10.5 39.5v309q0 15 6 23t21 8h13v50h-24q-45 0 -62 -18.5t-17 -50.5v-314q0 -25 -8.5 -41t-31.5 -21q23 -5 31.5 -21t8.5 -41z" />
<glyph unicode="|" horiz-adv-x="117" d="M38 -50h44v874h-44v-874z" />
<glyph unicode="}" horiz-adv-x="168" d="M42 -65q45 0 62 18.5t17 52.5v328q0 25 8.5 41t31.5 21q-23 5 -31.5 21t-8.5 41v314q0 32 -17 50.5t-62 18.5h-24v-50h13q15 0 21 -8t6 -23v-309q0 -29 10.5 -39.5t26.5 -15.5q-15 -8 -26 -18.5t-11 -36.5v-325q0 -15 -6 -23t-21 -8h-13v-50h24z" />
<glyph unicode="~" horiz-adv-x="279" d="M17 438h33q0 6 1 14t4 15.5t9.5 13t18.5 5.5q17 0 29 -7t23 -15q14 -11 29.5 -19.5t39.5 -8.5q16 0 28 7.5t20 19t11.5 26t3.5 29.5h-33q0 -18 -7 -33t-26 -15q-14 0 -27 7.5t-28 18.5q-14 9 -28.5 16t-34.5 7q-35 0 -50.5 -24.5t-15.5 -56.5z" />
<glyph unicode="&#xa1;" horiz-adv-x="142" d="M40 518v-619h63v619h-63zM20 666q0 -20 14 -34t34 -14t34 14t14 34t-14 34t-34 14t-34 -14t-14 -34z" />
<glyph unicode="&#xa2;" horiz-adv-x="248" d="M156 192h-57q-7 0 -9.5 5t-2.5 13v436q0 16 13 16h53q15 0 15 -16v-98h50v92q0 35 -17.5 51.5t-46.5 16.5h-4v30h-45v-30h-4q-23 0 -43.5 -16.5t-20.5 -48.5v-429q0 -35 19 -51t43 -16h5v-41h46v41h6q28 0 45 16t17 51v92h-50v-96q0 -18 -12 -18z" />
<glyph unicode="&#xa3;" horiz-adv-x="250" d="M162 614h60v62q0 49 -22.5 73t-60.5 24h-7q-41 0 -61 -26.5t-20 -67.5v-223h-42v-50h42v-38h-42v-50h42l1 -318h175v60h-116v258h62v50h-62v38h62v50h-62v228q0 13 6.5 21t19.5 8t19 -8t6 -21v-70z" />
<glyph unicode="&#xa5;" horiz-adv-x="219" d="M30 312h50v-312h62v312h50v45h-50v39h50v45h-50v76l64 293h-60l-36 -193l-35 193h-60l65 -293v-76h-50v-45h50v-39h-50v-45z" />
<glyph unicode="&#xa6;" horiz-adv-x="167" d="M114 452v287h-55v-287h55zM114 0v287h-55v-287h55z" />
<glyph unicode="&#xa7;" horiz-adv-x="324" d="M226 417v-39q0 -50 -14 -69t-40 -19h-12q-30 0 -45 19t-15 69v35q0 47 14.5 68t43.5 21h11q57 0 57 -85zM255 84v64q0 41 -10 60.5t-25 31.5q27 8 46.5 39t19.5 89v62q0 63 -29 95.5t-76 32.5q-23 0 -37 19.5t-14 51.5v89q0 23 10 37t30 14t31 -14t11 -37v-51h60v51 q0 46 -23 78.5t-73 32.5h-14q-43 0 -67.5 -30.5t-24.5 -80.5v-74q0 -23 3 -38t8.5 -25.5t12 -17.5t14.5 -13l-18 -10q-12 -6 -23 -21t-19 -39.5t-8 -63.5v-52q0 -40 9 -65.5t24 -39.5t33.5 -19.5t37.5 -5.5q21 0 36 -22.5t15 -73.5v-64q0 -21 -10.5 -36t-30.5 -15 t-30.5 13.5t-10.5 36.5v51h-60v-43q0 -52 24 -85t72 -33h13q44 0 68.5 32t24.5 89z" />
<glyph unicode="&#xa8;" horiz-adv-x="194" d="M88 789q0 14 -10.5 24.5t-24.5 10.5t-24.5 -10.5t-10.5 -24.5t10.5 -24.5t24.5 -10.5t24.5 10.5t10.5 24.5zM179 789q0 14 -10.5 24.5t-24.5 10.5t-24.5 -10.5t-10.5 -24.5t10.5 -24.5t24.5 -10.5t24.5 10.5t10.5 24.5z" />
<glyph unicode="&#xa9;" horiz-adv-x="587" d="M300 559q33 0 57.5 -13t39.5 -29v25q-14 14 -38.5 25.5t-56.5 11.5q-33 0 -57.5 -12t-41 -31.5t-24.5 -45t-8 -51.5q0 -27 8 -52.5t24.5 -45.5t41 -32.5t57.5 -12.5q39 0 60.5 11t34.5 25v31q-14 -19 -36 -33t-59 -14q-27 0 -47.5 10.5t-34.5 28t-21 39.5t-7 45t7 44.5 t20.5 38.5t33.5 27t47 10zM559 442q0 53 -20 100t-55 82t-82 55t-100 20t-100 -20t-82 -55t-55 -82t-20 -100t20 -100t55 -82t82 -55t100 -20t100 20t82 55t55 82t20 100zM66 442q0 49 18.5 92t50.5 75t75 50.5t92 18.5t92 -18.5t75 -50.5t50.5 -75t18.5 -92t-18.5 -92 t-50.5 -75t-75 -50.5t-92 -18.5t-92 18.5t-75 50.5t-50.5 75t-18.5 92z" />
<glyph unicode="&#xaa;" horiz-adv-x="180" d="M164 282h-130v-31h130v31zM47 361q0 -46 37 -46q11 0 15.5 3t9.5 8v-9h35v386q0 40 -41 40h-16q-20 0 -30 -11.5t-10 -27.5v-33h36v23q0 13 13 13t13 -13v-93q-5 4 -9.5 6t-14.5 2q-38 0 -38 -49v-199zM95 573q14 0 14 -14v-195q0 -13 -14 -13q-12 0 -12 13v195 q0 14 12 14z" />
<glyph unicode="&#xab;" horiz-adv-x="235" d="M112 530l-78 -155l78 -155h18l-46 155l46 155h-18zM192 530l-77 -155l77 -155h20l-48 155l48 155h-20z" />
<glyph unicode="&#xac;" horiz-adv-x="218" d="M182 425h-144v-27h144v27zM107 452h27v364h-27l-33 -50l20 -13l13 20v-321zM156 44v138q0 10 -4 16t-9 10q5 3 9 7.5t4 15.5v95q0 23 -10.5 33.5t-27.5 10.5h-3q-15 0 -26 -11.5t-11 -33.5v-94q0 -11 4.5 -16t9.5 -7q-5 -4 -9.5 -9.5t-4.5 -16.5v-137q0 -23 11 -34 t26 -11h6q14 0 24.5 10.5t10.5 33.5zM128 329v-90q0 -12 -11 -12q-10 0 -10 12v90q0 14 10 14q11 0 11 -14zM117 191q11 0 11 -14v-139q0 -11 -11 -11q-10 0 -10 11v139q0 14 10 14z" />
<glyph unicode="&#xad;" horiz-adv-x="225" d="M22 488v-60h180v60h-180z" />
<glyph unicode="&#xae;" horiz-adv-x="321" d="M217 718q0 22 -12.5 35t-29.5 13h-58v-177h13v82h12l58 -82h16l-57 82h16q18 0 30 13t12 34zM204 718q0 -16 -8.5 -25t-20.5 -9h-44v68h43q12 0 21 -8.5t9 -25.5zM310 678q0 31 -11.5 57.5t-31.5 46.5t-46.5 31.5t-57.5 11.5t-57.5 -11.5t-46.5 -31.5t-31.5 -46.5 t-11.5 -57.5t11.5 -57.5t31.5 -46.5t46.5 -31.5t57.5 -11.5t57.5 11.5t46.5 31.5t31.5 46.5t11.5 57.5zM30 678q0 27 10.5 51.5t28.5 42.5t42.5 28.5t51.5 10.5t51.5 -10.5t42.5 -28.5t28.5 -42.5t10.5 -51.5t-10.5 -51.5t-28.5 -42.5t-42.5 -28.5t-51.5 -10.5t-51.5 10.5 t-42.5 28.5t-28.5 42.5t-10.5 51.5z" />
<glyph unicode="&#xaf;" horiz-adv-x="248" d="M222 820h-188v-30h188v30z" />
<glyph unicode="&#xb0;" horiz-adv-x="178" d="M148 770q0 24 -17 41t-41 17t-41 -17t-17 -41t17 -41t41 -17t41 17t17 41zM46 770q0 18 13 31t31 13t31 -13t13 -31t-13 -31t-31 -13t-31 13t-13 31z" />
<glyph unicode="&#xb2;" horiz-adv-x="218" d="M153 481h-48v151q0 14 6.5 20t19.5 11q12 4 17.5 10t5.5 25v88q0 20 -10.5 27t-24.5 7h-6q-14 0 -24.5 -7.5t-10.5 -27.5v-63h27v59q0 12 11 12t11 -12v-77q0 -10 -4.5 -13.5t-19.5 -10.5q-12 -5 -18.5 -12.5t-6.5 -22.5v-191h75v27z" />
<glyph unicode="&#xb3;" horiz-adv-x="218" d="M153 484v160q0 11 -4 16.5t-9 7.5q6 2 9.5 6t3.5 16v94q0 19 -9 26.5t-26 7.5h-7q-17 0 -26.5 -10t-9.5 -24v-59h28v56q0 10 11 10q12 0 12 -10v-87q0 -13 -11 -13h-18v-27h19q10 0 10 -14v-153q0 -10 -12 -10q-11 0 -11 10v61h-28v-63q0 -20 10 -27.5t26 -7.5h7 q35 0 35 34z" />
<glyph unicode="&#xb4;" horiz-adv-x="216" d="M152 872h-50l-34 -119h25z" />
<glyph unicode="&#xb5;" horiz-adv-x="218" d="M182 425h-144v-27h144v27zM151 26h-48v151q0 14 6.5 20t19.5 11q12 4 17.5 10t5.5 25v88q0 20 -10.5 27t-24.5 7h-6q-14 0 -24.5 -7.5t-10.5 -27.5v-63h27v59q0 12 11 12t11 -12v-77q0 -10 -4.5 -13.5t-19.5 -10.5q-12 -5 -18.5 -12.5t-6.5 -22.5v-191h75v27zM107 452h27 v364h-27l-33 -50l20 -13l13 20v-321z" />
<glyph unicode="&#xb6;" horiz-adv-x="324" d="M240 -50h44v860h-44v-860zM119 810q-45 0 -66 -23t-21 -64v-177q0 -43 22.5 -65.5t64.5 -22.5h39v-508h44v860h-83z" />
<glyph unicode="&#xb7;" horiz-adv-x="200" d="M141 516q0 15 -10.5 25.5t-25.5 10.5t-25.5 -10.5t-10.5 -25.5t10.5 -25.5t25.5 -10.5t25.5 10.5t10.5 25.5z" />
<glyph unicode="&#xb8;" horiz-adv-x="127" d="M89 0h-27v-37q0 -8 -4.5 -14.5t-15.5 -6.5h-5v-26h6q46 0 46 46v38z" />
<glyph unicode="&#xb9;" horiz-adv-x="218" d="M107 452h27v364h-27l-33 -50l20 -13l13 20v-321z" />
<glyph unicode="&#xba;" horiz-adv-x="158" d="M146 282h-130v-29h130v29zM81 315q23 0 35.5 12t12.5 30v347q0 18 -13.5 30t-34.5 12t-34.5 -11.5t-13.5 -30.5v-347q0 -20 13 -31t35 -11zM81 350q-5 0 -8.5 3t-3.5 9v335q0 7 3.5 10t8.5 3t8.5 -3t3.5 -10v-335q0 -12 -12 -12z" />
<glyph unicode="&#xbb;" horiz-adv-x="235" d="M110 220h19l77 155l-77 155h-19l47 -155zM29 220h19l78 155l-78 155h-19l47 -155z" />
<glyph unicode="&#xbc;" horiz-adv-x="218" d="M182 425h-144v-27h144v27zM138 145v217h-25l-57 -244h55v-120h27v120h16v27h-16zM107 452h27v364h-27l-33 -50l20 -13l13 20v-321zM111 145h-22l22 105v-105z" />
<glyph unicode="&#xbd;" horiz-adv-x="218" d="M182 425h-144v-27h144v27zM151 26h-48v151q0 14 6.5 20t19.5 11q12 4 17.5 10t5.5 25v88q0 20 -10.5 27t-24.5 7h-6q-14 0 -24.5 -7.5t-10.5 -27.5v-63h27v59q0 12 11 12t11 -12v-77q0 -10 -4.5 -13.5t-19.5 -10.5q-12 -5 -18.5 -12.5t-6.5 -22.5v-191h75v27zM107 452h27 v364h-27l-33 -50l20 -13l13 20v-321z" />
<glyph unicode="&#xbe;" horiz-adv-x="218" d="M182 425h-144v-27h144v27zM153 484v160q0 11 -4 16.5t-9 7.5q6 2 9.5 6t3.5 16v94q0 19 -9 26.5t-26 7.5h-7q-17 0 -26.5 -10t-9.5 -24v-59h28v56q0 10 11 10q12 0 12 -10v-87q0 -13 -11 -13h-18v-27h19q10 0 10 -14v-153q0 -10 -12 -10q-11 0 -11 10v61h-28v-63 q0 -20 10 -27.5t26 -7.5h7q35 0 35 34zM139 145v217h-25l-57 -244h55v-120h27v120h16v27h-16zM112 145h-22l22 105v-105z" />
<glyph unicode="&#xbf;" horiz-adv-x="230" d="M97 520v-181q0 -19 -5 -31.5t-13 -26.5l-31 -48q-12 -20 -12 -53v-215q0 -30 17.5 -47.5t49.5 -17.5h30q33 0 49.5 18.5t16.5 47.5v104h-60v-76q0 -14 -3.5 -21t-14.5 -7h-6q-11 0 -14.5 7t-3.5 21v166q0 14 2 28.5t10 25.5l28 42q11 17 16.5 29.5t5.5 32.5v202h-62z M80 668q0 -20 14 -34t34 -14t34 14t14 34t-14 34t-34 14t-34 -14t-14 -34z" />
<glyph unicode="&#xc0;" d="M103 819h17l-24 82h-34zM32 752v-752h63v428h30v-428h63v752q0 30 -22 44t-46 14h-22q-29 0 -47.5 -14.5t-18.5 -43.5zM125 488h-30v246q0 16 13 16h4q13 0 13 -16v-246z" />
<glyph unicode="&#xc1;" d="M155 899h-32l-24 -80h17zM32 752v-752h63v428h30v-428h63v752q0 30 -22 44t-46 14h-22q-29 0 -47.5 -14.5t-18.5 -43.5zM125 488h-30v246q0 16 13 16h4q13 0 13 -16v-246z" />
<glyph unicode="&#xc2;" d="M148 823l-27 73h-24l-28 -73h12l28 53l28 -53h11zM32 752v-752h63v428h30v-428h63v752q0 30 -22 44t-46 14h-22q-29 0 -47.5 -14.5t-18.5 -43.5zM125 488h-30v246q0 16 13 16h4q13 0 13 -16v-246z" />
<glyph unicode="&#xc3;" horiz-adv-x="210" d="M13 831h32q2 14 9 24t20 10q9 0 15 -5t14 -11t17 -11.5t26 -5.5t29 6t19 15t10 20t3 22h-31q0 -17 -8 -24.5t-22 -7.5q-9 0 -15.5 4.5t-13.5 10.5q-8 6 -17.5 11.5t-25.5 5.5t-27 -6t-18 -15.5t-11 -21t-5 -21.5zM32 752v-752h63v428h30v-428h63v752q0 30 -22 44t-46 14 h-22q-29 0 -47.5 -14.5t-18.5 -43.5zM125 488h-30v246q0 16 13 16h4q13 0 13 -16v-246z" />
<glyph unicode="&#xc4;" d="M98 852q0 13 -9 22.5t-22 9.5q-14 0 -23 -9.5t-9 -22.5t9 -22.5t23 -9.5q13 0 22 9.5t9 22.5zM184 852q0 13 -9.5 22.5t-22.5 9.5t-22 -9.5t-9 -22.5t9 -22.5t22 -9.5t22.5 9.5t9.5 22.5zM32 752v-752h63v428h30v-428h63v752q0 30 -22 44t-46 14h-22q-29 0 -47.5 -14.5 t-18.5 -43.5zM125 488h-30v246q0 16 13 16h4q13 0 13 -16v-246z" />
<glyph unicode="&#xc5;" d="M155 869q0 20 -13 33t-33 13t-33 -13t-13 -33t13 -33t33 -13t33 13t13 33zM74 869q0 14 10.5 24.5t24.5 10.5t24.5 -10.5t10.5 -24.5t-10.5 -24.5t-24.5 -10.5t-24.5 10.5t-10.5 24.5zM32 752v-752h63v428h30v-428h63v752q0 30 -22 44t-46 14h-22q-29 0 -47.5 -14.5 t-18.5 -43.5zM125 488h-30v246q0 16 13 16h4q13 0 13 -16v-246z" />
<glyph unicode="&#xc6;" horiz-adv-x="278" d="M95 0v428h31v-428h125v60h-63v368h63v60h-63v262h63v60h-93v-9q-11 9 -34 9h-28q-29 0 -46.5 -17.5t-17.5 -40.5v-752h63zM125 488h-30v246q0 16 13 16h4q13 0 13 -16v-246z" />
<glyph unicode="&#xc7;" horiz-adv-x="228" d="M37 80q0 -36 16.5 -57.5t43.5 -26.5v-40q0 -22 -20 -22h-4v-36h6q35 0 48 16t13 42v40q29 5 44.5 26.5t15.5 56.5v128h-63v-133q0 -11 -5.5 -15.5t-13.5 -4.5t-13 5t-5 15v660q0 8 4.5 14t14.5 6q8 0 13 -6t5 -14v-131h63v135q0 36 -22.5 56t-57.5 20h-4q-36 0 -57.5 -21 t-21.5 -56v-657z" />
<glyph unicode="&#xc8;" horiz-adv-x="188" d="M92 819h17l-23 82h-34zM95 750h63v60h-126v-810h126v60h-63v368h63v60h-63v262z" />
<glyph unicode="&#xc9;" horiz-adv-x="188" d="M131 899h-32l-24 -80h17zM95 750h63v60h-126v-810h126v60h-63v368h63v60h-63v262z" />
<glyph unicode="&#xca;" horiz-adv-x="188" d="M134 823l-28 73h-24l-28 -73h12l28 53l28 -53h12zM95 750h63v60h-126v-810h126v60h-63v368h63v60h-63v262z" />
<glyph unicode="&#xcb;" horiz-adv-x="185" d="M84 852q0 13 -9 22.5t-22 9.5q-14 0 -23 -9.5t-9 -22.5t9 -22.5t23 -9.5q13 0 22 9.5t9 22.5zM170 852q0 13 -9.5 22.5t-22.5 9.5t-22 -9.5t-9 -22.5t9 -22.5t22 -9.5t22.5 9.5t9.5 22.5zM95 750h63v60h-126v-810h126v60h-63v368h63v60h-63v262z" />
<glyph unicode="&#xcc;" horiz-adv-x="140" d="M50 819h17l-23 82h-34zM38 0h62v810h-62v-810z" />
<glyph unicode="&#xcd;" horiz-adv-x="140" d="M118 899h-32l-24 -80h17zM38 0h62v810h-62v-810z" />
<glyph unicode="&#xce;" horiz-adv-x="140" d="M108 823l-28 73h-24l-28 -73h12l28 53l28 -53h12zM38 0h62v810h-62v-810z" />
<glyph unicode="&#xcf;" horiz-adv-x="139" d="M58 852q0 13 -9 22.5t-22 9.5q-14 0 -23 -9.5t-9 -22.5t9 -22.5t23 -9.5q13 0 22 9.5t9 22.5zM144 852q0 13 -9.5 22.5t-22.5 9.5t-22 -9.5t-9 -22.5t9 -22.5t22 -9.5t22.5 9.5t9.5 22.5zM38 0h62v810h-62v-810z" />
<glyph unicode="&#xd0;" d="M98 485v265h4q15 0 22.5 -9.5t7.5 -24.5v-622q0 -15 -6.5 -24.5t-23.5 -9.5h-4v365h20v60h-20zM35 425v-425h78q42 0 62 21.5t20 56.5v654q0 32 -21 55t-61 23h-78v-325h-19v-60h19z" />
<glyph unicode="&#xd1;" horiz-adv-x="272" d="M40 831h32q2 14 9 24t20 10q9 0 15 -5t14 -11t17 -11.5t26 -5.5t29 6t19 15t10 20t3 22h-31q0 -17 -8 -24.5t-22 -7.5q-9 0 -15.5 4.5t-13.5 10.5q-8 6 -17.5 11.5t-25.5 5.5t-27 -6t-18 -15.5t-11 -21t-5 -21.5zM94 514l98 -514h49v810h-63v-456l-82 456h-64v-810h62 v514z" />
<glyph unicode="&#xd2;" horiz-adv-x="230" d="M103 819h17l-24 82h-34zM137 731v-647q0 -12 -4 -19.5t-15 -7.5t-14.5 8t-3.5 19v646q0 11 4 17.5t14 6.5q11 0 15 -6.5t4 -16.5zM37 737v-667q0 -34 21.5 -55.5t57.5 -21.5h4q38 0 59 21.5t21 55.5v668q0 32 -20 54t-60 22h-4q-39 0 -59 -23t-20 -54z" />
<glyph unicode="&#xd3;" horiz-adv-x="230" d="M167 899h-32l-21 -68h20zM137 731v-647q0 -12 -4 -19.5t-15 -7.5t-14.5 8t-3.5 19v646q0 11 4 17.5t14 6.5q11 0 15 -6.5t4 -16.5zM37 737v-667q0 -34 21.5 -55.5t57.5 -21.5h4q38 0 59 21.5t21 55.5v668q0 32 -20 54t-60 22h-4q-39 0 -59 -23t-20 -54z" />
<glyph unicode="&#xd4;" horiz-adv-x="230" d="M159 823l-27 73h-24l-28 -73h12l28 53l28 -53h11zM137 731v-647q0 -12 -4 -19.5t-15 -7.5t-14.5 8t-3.5 19v646q0 11 4 17.5t14 6.5q11 0 15 -6.5t4 -16.5zM37 737v-667q0 -34 21.5 -55.5t57.5 -21.5h4q38 0 59 21.5t21 55.5v668q0 32 -20 54t-60 22h-4q-39 0 -59 -23 t-20 -54z" />
<glyph unicode="&#xd5;" d="M22 831h32q2 14 9 24t20 10q9 0 15 -5t14 -11t17 -11.5t26 -5.5t29 6t19 15t10 20t3 22h-31q0 -17 -8 -24.5t-22 -7.5q-9 0 -15.5 4.5t-13.5 10.5q-8 6 -17.5 11.5t-25.5 5.5t-27 -6t-18 -15.5t-11 -21t-5 -21.5zM137 731v-647q0 -12 -4 -19.5t-15 -7.5t-14.5 8t-3.5 19 v646q0 11 4 17.5t14 6.5q11 0 15 -6.5t4 -16.5zM37 737v-667q0 -34 21.5 -55.5t57.5 -21.5h4q38 0 59 21.5t21 55.5v668q0 32 -20 54t-60 22h-4q-39 0 -59 -23t-20 -54z" />
<glyph unicode="&#xd6;" horiz-adv-x="230" d="M106 852q0 13 -9 22.5t-22 9.5q-14 0 -23 -9.5t-9 -22.5t9 -22.5t23 -9.5q13 0 22 9.5t9 22.5zM192 852q0 13 -9.5 22.5t-22.5 9.5t-22 -9.5t-9 -22.5t9 -22.5t22 -9.5t22.5 9.5t9.5 22.5zM137 731v-647q0 -12 -4 -19.5t-15 -7.5t-14.5 8t-3.5 19v646q0 11 4 17.5t14 6.5 q11 0 15 -6.5t4 -16.5zM37 737v-667q0 -34 21.5 -55.5t57.5 -21.5h4q38 0 59 21.5t21 55.5v668q0 32 -20 54t-60 22h-4q-39 0 -59 -23t-20 -54z" />
<glyph unicode="&#xd7;" horiz-adv-x="516" d="M128 494l-56 -43l140 -185l-168 -224l59 -42l158 209l159 -209l59 42l-169 225l140 184l-57 43l-132 -177z" />
<glyph unicode="&#xd8;" horiz-adv-x="230" d="M37 70q0 -39 28 -61l-9 -86h28l8 73q10 -3 24 -3h4q38 0 59 21.5t21 55.5v668q0 36 -23 57l5 51h-27l-4 -37q-15 5 -31 5h-4q-39 0 -59 -23t-20 -54v-667zM137 731v-647q0 -12 -4 -19.5t-15 -7.5t-14.5 8t-3.5 19v646q0 11 4 17.5t14 6.5q11 0 15 -6.5t4 -16.5z" />
<glyph unicode="&#xd9;" horiz-adv-x="235" d="M103 819h17l-24 82h-34zM120 -6q42 0 61 22t19 54v740h-63v-732q0 -24 -19 -24q-8 0 -13 6t-5 18v732h-63v-739q0 -33 20 -55t59 -22h4z" />
<glyph unicode="&#xda;" horiz-adv-x="235" d="M167 899h-32l-25 -80h18zM120 -6q42 0 61 22t19 54v740h-63v-732q0 -24 -19 -24q-8 0 -13 6t-5 18v732h-63v-739q0 -33 20 -55t59 -22h4z" />
<glyph unicode="&#xdb;" horiz-adv-x="235" d="M158 823l-28 73h-24l-28 -73h12l28 53l28 -53h12zM120 -6q42 0 61 22t19 54v740h-63v-732q0 -24 -19 -24q-8 0 -13 6t-5 18v732h-63v-739q0 -33 20 -55t59 -22h4z" />
<glyph unicode="&#xdc;" horiz-adv-x="235" d="M107 852q0 13 -9 22.5t-22 9.5q-14 0 -23 -9.5t-9 -22.5t9 -22.5t23 -9.5q13 0 22 9.5t9 22.5zM193 852q0 13 -9.5 22.5t-22.5 9.5t-22 -9.5t-9 -22.5t9 -22.5t22 -9.5t22.5 9.5t9.5 22.5zM120 -6q42 0 61 22t19 54v740h-63v-732q0 -24 -19 -24q-8 0 -13 6t-5 18v732h-63 v-739q0 -33 20 -55t59 -22h4z" />
<glyph unicode="&#xdd;" horiz-adv-x="219" d="M206 810h-62l-34 -195l-32 195h-63l65 -292v-518h62v518zM161 899h-32l-24 -80h17z" />
<glyph unicode="&#xde;" d="M105 568q8 0 14 -7t6 -18v-215q0 -22 -19 -22h-11v262h10zM188 551q0 35 -22 56t-58 21h-13v182h-63v-810h63v246h18q35 0 55 20t20 55v230z" />
<glyph unicode="&#xdf;" horiz-adv-x="315" d="M196 499v5q0 3 2 10l52 199q4 13 4 27q0 18 -8.5 31t-23.5 22t-35 13t-42 4q-45 0 -75.5 -14.5t-30.5 -49.5v-38h-23v-60h23v-648h60v721q0 17 12 23t33 6q47 0 47 -22q0 -8 -3 -17l-51 -202q-2 -6 -3 -11.5t-1 -12.5q0 -12 6 -22.5t21 -17.5l42 -18q16 -8 21 -20.5 t5 -32.5v-296q0 -8 -4 -14.5t-14 -6.5q-11 0 -15 7t-4 15v101h-57v-114q0 -34 19 -51.5t49 -17.5h16q37 0 53.5 18.5t16.5 52.5v339q0 17 -6.5 32.5t-28.5 24.5l-33 14q-13 5 -18.5 9t-5.5 12z" />
<glyph unicode="&#xe0;" horiz-adv-x="230" d="M110 753h26l-34 119h-50zM118 428q11 0 16.5 -6.5t5.5 -16.5v-327q0 -21 -22 -21q-21 0 -21 21v327q0 10 5 16.5t16 6.5zM37 74q0 -77 62 -77q18 0 26 5t15 13v-15h60v645q0 67 -70 67h-26q-33 0 -50 -19t-17 -45v-56h60v38q0 9 5.5 15.5t16.5 6.5t16 -6.5t5 -15.5v-155 q-7 6 -15 9.5t-25 3.5q-33 0 -48 -20.5t-15 -61.5v-332z" />
<glyph unicode="&#xe1;" horiz-adv-x="230" d="M183 872h-49l-35 -119h25zM118 428q11 0 16.5 -6.5t5.5 -16.5v-327q0 -21 -22 -21q-21 0 -21 21v327q0 10 5 16.5t16 6.5zM37 74q0 -77 62 -77q18 0 26 5t15 13v-15h60v645q0 67 -70 67h-26q-33 0 -50 -19t-17 -45v-56h60v38q0 9 5.5 15.5t16.5 6.5t16 -6.5t5 -15.5v-155 q-7 6 -15 9.5t-25 3.5q-33 0 -48 -20.5t-15 -61.5v-332z" />
<glyph unicode="&#xe2;" horiz-adv-x="230" d="M184 753l-46 121h-40l-46 -121h19l47 89l46 -89h20zM118 428q11 0 16.5 -6.5t5.5 -16.5v-327q0 -21 -22 -21q-21 0 -21 21v327q0 10 5 16.5t16 6.5zM37 74q0 -77 62 -77q18 0 26 5t15 13v-15h60v645q0 67 -70 67h-26q-33 0 -50 -19t-17 -45v-56h60v38q0 9 5.5 15.5 t16.5 6.5t16 -6.5t5 -15.5v-155q-7 6 -15 9.5t-25 3.5q-33 0 -48 -20.5t-15 -61.5v-332z" />
<glyph unicode="&#xe3;" horiz-adv-x="231" d="M10 760h36q2 15 10 26.5t22 11.5q10 0 17 -6l15 -11q8 -8 19 -13.5t29 -5.5q19 0 32 6.5t21 16.5t11.5 22.5t3.5 24.5h-35q0 -20 -9 -28t-24 -8q-10 0 -17 5t-15 12q-9 7 -20 13t-28 6q-18 0 -30 -7t-20.5 -17.5t-12.5 -23t-5 -24.5zM118 428q11 0 16.5 -6.5t5.5 -16.5 v-327q0 -21 -22 -21q-21 0 -21 21v327q0 10 5 16.5t16 6.5zM37 74q0 -77 62 -77q18 0 26 5t15 13v-15h60v645q0 67 -70 67h-26q-33 0 -50 -19t-17 -45v-56h60v38q0 9 5.5 15.5t16.5 6.5t16 -6.5t5 -15.5v-155q-7 6 -15 9.5t-25 3.5q-33 0 -48 -20.5t-15 -61.5v-332z" />
<glyph unicode="&#xe4;" horiz-adv-x="230" d="M107 789q0 14 -10.5 24.5t-24.5 10.5t-24.5 -10.5t-10.5 -24.5t10.5 -24.5t24.5 -10.5t24.5 10.5t10.5 24.5zM198 789q0 14 -10.5 24.5t-24.5 10.5t-24.5 -10.5t-10.5 -24.5t10.5 -24.5t24.5 -10.5t24.5 10.5t10.5 24.5zM118 428q11 0 16.5 -6.5t5.5 -16.5v-327 q0 -21 -22 -21q-21 0 -21 21v327q0 10 5 16.5t16 6.5zM37 74q0 -77 62 -77q18 0 26 5t15 13v-15h60v645q0 67 -70 67h-26q-33 0 -50 -19t-17 -45v-56h60v38q0 9 5.5 15.5t16.5 6.5t16 -6.5t5 -15.5v-155q-7 6 -15 9.5t-25 3.5q-33 0 -48 -20.5t-15 -61.5v-332z" />
<glyph unicode="&#xe5;" horiz-adv-x="230" d="M178 792q0 24 -17 41t-41 17t-41 -17t-17 -41t17 -41t41 -17t41 17t17 41zM76 792q0 18 13 31t31 13t31 -13t13 -31t-13 -31t-31 -13t-31 13t-13 31zM118 428q11 0 16.5 -6.5t5.5 -16.5v-327q0 -21 -22 -21q-21 0 -21 21v327q0 10 5 16.5t16 6.5zM37 74q0 -77 62 -77 q18 0 26 5t15 13v-15h60v645q0 67 -70 67h-26q-33 0 -50 -19t-17 -45v-56h60v38q0 9 5.5 15.5t16.5 6.5t16 -6.5t5 -15.5v-155q-7 6 -15 9.5t-25 3.5q-33 0 -48 -20.5t-15 -61.5v-332z" />
<glyph unicode="&#xe6;" horiz-adv-x="322" d="M118 428q11 0 16.5 -6.5t5.5 -16.5v-327q0 -21 -22 -21q-21 0 -21 21v327q0 10 5 16.5t16 6.5zM215 712q-14 0 -25.5 -1t-19.5 -7q-16 8 -40 8h-26q-33 0 -50 -19t-17 -45v-56h60v38q0 9 5.5 15.5t16.5 6.5t16 -6.5t5 -15.5v-155q-7 6 -15 9.5t-25 3.5q-33 0 -48 -20.5 t-15 -61.5v-332q0 -77 62 -77q18 0 26 5t15 13v-15h50q12 -3 25 -3h10q13 0 26.5 4t24 13t17.5 23t7 35v125h-60v-119q0 -21 -20 -21t-20 21v324h100v239q0 31 -18.5 51t-56.5 20h-10zM220 648q20 0 20 -22v-164h-40v164q0 11 6 16.5t14 5.5z" />
<glyph unicode="&#xe7;" horiz-adv-x="230" d="M37 68q0 -32 19 -51t48 -21v-39q0 -8 -4.5 -14.5t-15.5 -6.5h-5v-26h6q46 0 46 46v40q30 2 48.5 20.5t18.5 47.5v131h-60v-119q0 -19 -21 -19q-8 0 -14 5t-6 16v549q0 8 5.5 14.5t14.5 6.5t15 -6.5t6 -14.5v-119h60v139q0 27 -19 48t-52 21h-23q-32 0 -49.5 -22 t-17.5 -49v-577z" />
<glyph unicode="&#xe8;" horiz-adv-x="228" d="M102 753h25l-35 119h-49zM114 648q20 0 20 -22v-164h-40v164q0 11 6 16.5t14 5.5zM94 402h100v239q0 31 -18.5 51t-56.5 20h-10q-42 0 -58.5 -21.5t-16.5 -50.5v-568q0 -38 22.5 -56.5t52.5 -18.5h10q13 0 26.5 4t24 13t17.5 23t7 35v125h-60v-119q0 -21 -20 -21t-20 21 v324z" />
<glyph unicode="&#xe9;" horiz-adv-x="228" d="M178 872h-49l-35 -119h26zM114 648q20 0 20 -22v-164h-40v164q0 11 6 16.5t14 5.5zM94 402h100v239q0 31 -18.5 51t-56.5 20h-10q-42 0 -58.5 -21.5t-16.5 -50.5v-568q0 -38 22.5 -56.5t52.5 -18.5h10q13 0 26.5 4t24 13t17.5 23t7 35v125h-60v-119q0 -21 -20 -21t-20 21 v324z" />
<glyph unicode="&#xea;" horiz-adv-x="228" d="M175 753l-46 121h-40l-47 -121h20l47 89l47 -89h19zM114 648q20 0 20 -22v-164h-40v164q0 11 6 16.5t14 5.5zM94 402h100v239q0 31 -18.5 51t-56.5 20h-10q-42 0 -58.5 -21.5t-16.5 -50.5v-568q0 -38 22.5 -56.5t52.5 -18.5h10q13 0 26.5 4t24 13t17.5 23t7 35v125h-60 v-119q0 -21 -20 -21t-20 21v324z" />
<glyph unicode="&#xeb;" horiz-adv-x="228" d="M107 789q0 14 -10.5 24.5t-24.5 10.5t-24.5 -10.5t-10.5 -24.5t10.5 -24.5t24.5 -10.5t24.5 10.5t10.5 24.5zM198 789q0 14 -10.5 24.5t-24.5 10.5t-24.5 -10.5t-10.5 -24.5t10.5 -24.5t24.5 -10.5t24.5 10.5t10.5 24.5zM114 648q20 0 20 -22v-164h-40v164q0 11 6 16.5 t14 5.5zM94 402h100v239q0 31 -18.5 51t-56.5 20h-10q-42 0 -58.5 -21.5t-16.5 -50.5v-568q0 -38 22.5 -56.5t52.5 -18.5h10q13 0 26.5 4t24 13t17.5 23t7 35v125h-60v-119q0 -21 -20 -21t-20 21v324z" />
<glyph unicode="&#xec;" horiz-adv-x="138" d="M48 753h25l-35 119h-49zM38 2l62 -1v707h-62v-706z" />
<glyph unicode="&#xed;" horiz-adv-x="138" d="M138 872h-50l-34 -119h26zM38 2l62 -1v707h-62v-706z" />
<glyph unicode="&#xee;" horiz-adv-x="138" d="M136 753l-46 121h-40l-46 -121h19l47 89l46 -89h20zM38 2l62 -1v707h-62v-706z" />
<glyph unicode="&#xef;" horiz-adv-x="136" d="M38 2l62 -1v707h-62v-706zM58 789q0 14 -10.5 24.5t-24.5 10.5t-24.5 -10.5t-10.5 -24.5t10.5 -24.5t24.5 -10.5t24.5 10.5t10.5 24.5zM149 789q0 14 -10.5 24.5t-24.5 10.5t-24.5 -10.5t-10.5 -24.5t10.5 -24.5t24.5 -10.5t24.5 10.5t10.5 24.5z" />
<glyph unicode="&#xf0;" horiz-adv-x="228" d="M117 52q-8 0 -14 4.5t-6 15.5v558q0 11 6 16.5t14 5.5t14 -5.5t6 -17.5v-557q0 -20 -20 -20zM105 774l-15 -15l31 -31l16 16v-6v-28q-5 1 -10 1.5t-10 0.5q-35 0 -57.5 -19.5t-22.5 -50.5v-578q0 -33 21.5 -51.5t58.5 -18.5t58.5 19.5t21.5 50.5v392v316q0 15 -6 26 l19 19l-31 31l-20 -20q-6 2 -12 3t-13 1h-79v-58h48h2z" />
<glyph unicode="&#xf1;" horiz-adv-x="223" d="M4 760h36q2 15 10 26.5t22 11.5q10 0 17 -6l15 -11q8 -8 19 -13.5t29 -5.5q19 0 32 6.5t21 16.5t11.5 22.5t3.5 24.5h-35q0 -20 -9 -28t-24 -8q-10 0 -17 5t-15 12q-9 7 -20 13t-28 6q-18 0 -30 -7t-20.5 -17.5t-12.5 -23t-5 -24.5zM137 616v-616h60v636q0 29 -17.5 50.5 t-49.5 21.5q-15 0 -22.5 -3t-12.5 -8v11h-60v-708h60v616q0 11 4.5 18t15.5 7q22 0 22 -25z" />
<glyph unicode="&#xf2;" horiz-adv-x="228" d="M102 753h25l-35 119h-49zM117 52q-8 0 -14 4.5t-6 15.5v558q0 11 6 16.5t14 5.5t14 -5.5t6 -17.5v-557q0 -20 -20 -20zM117 -6q37 0 58.5 19.5t21.5 50.5v578q0 30 -22.5 50t-57.5 20t-57.5 -19.5t-22.5 -50.5v-578q0 -33 21.5 -51.5t58.5 -18.5z" />
<glyph unicode="&#xf3;" horiz-adv-x="228" d="M183 872h-49l-35 -119h25zM117 52q-8 0 -14 4.5t-6 15.5v558q0 11 6 16.5t14 5.5t14 -5.5t6 -17.5v-557q0 -20 -20 -20zM117 -6q37 0 58.5 19.5t21.5 50.5v578q0 30 -22.5 50t-57.5 20t-57.5 -19.5t-22.5 -50.5v-578q0 -33 21.5 -51.5t58.5 -18.5z" />
<glyph unicode="&#xf4;" horiz-adv-x="228" d="M176 753l-46 121h-40l-46 -121h20l46 89l47 -89h19zM117 52q-8 0 -14 4.5t-6 15.5v558q0 11 6 16.5t14 5.5t14 -5.5t6 -17.5v-557q0 -20 -20 -20zM117 -6q37 0 58.5 19.5t21.5 50.5v578q0 30 -22.5 50t-57.5 20t-57.5 -19.5t-22.5 -50.5v-578q0 -33 21.5 -51.5 t58.5 -18.5z" />
<glyph unicode="&#xf5;" horiz-adv-x="232" d="M6 760h36q2 15 10 26.5t22 11.5q10 0 17 -6l15 -11q8 -8 19 -13.5t29 -5.5q19 0 32 6.5t21 16.5t11.5 22.5t3.5 24.5h-35q0 -20 -9 -28t-24 -8q-10 0 -17 5t-15 12q-9 7 -20 13t-28 6q-18 0 -30 -7t-20.5 -17.5t-12.5 -23t-5 -24.5zM117 52q-8 0 -14 4.5t-6 15.5v558 q0 11 6 16.5t14 5.5t14 -5.5t6 -17.5v-557q0 -20 -20 -20zM117 -6q37 0 58.5 19.5t21.5 50.5v578q0 30 -22.5 50t-57.5 20t-57.5 -19.5t-22.5 -50.5v-578q0 -33 21.5 -51.5t58.5 -18.5z" />
<glyph unicode="&#xf6;" horiz-adv-x="228" d="M100 789q0 14 -10.5 24.5t-24.5 10.5t-24.5 -10.5t-10.5 -24.5t10.5 -24.5t24.5 -10.5t24.5 10.5t10.5 24.5zM191 789q0 14 -10.5 24.5t-24.5 10.5t-24.5 -10.5t-10.5 -24.5t10.5 -24.5t24.5 -10.5t24.5 10.5t10.5 24.5zM117 52q-8 0 -14 4.5t-6 15.5v558q0 11 6 16.5 t14 5.5t14 -5.5t6 -17.5v-557q0 -20 -20 -20zM117 -6q37 0 58.5 19.5t21.5 50.5v578q0 30 -22.5 50t-57.5 20t-57.5 -19.5t-22.5 -50.5v-578q0 -33 21.5 -51.5t58.5 -18.5z" />
<glyph unicode="&#xf8;" horiz-adv-x="215" d="M37 64q0 -36 27 -55l-8 -77h28l7 65q12 -3 26 -3q37 0 58.5 19.5t21.5 50.5v578q0 38 -32 57l7 69h-28l-6 -58q-5 1 -10 1.5t-11 0.5q-35 0 -57.5 -19.5t-22.5 -50.5v-578zM117 52q-8 0 -14 4.5t-6 15.5v558q0 11 6 16.5t14 5.5t14 -5.5t6 -17.5v-557q0 -20 -20 -20z" />
<glyph unicode="&#xf9;" horiz-adv-x="222" d="M107 753h25l-35 119h-49zM92 92v616h-60v-623q0 -48 18.5 -68t49.5 -20q14 0 21 3.5t13 9.5v-10h60v708h-60v-617q0 -25 -20 -25q-12 0 -17 7.5t-5 18.5z" />
<glyph unicode="&#xfa;" horiz-adv-x="222" d="M178 872h-49l-35 -119h26zM92 92v616h-60v-623q0 -48 18.5 -68t49.5 -20q14 0 21 3.5t13 9.5v-10h60v708h-60v-617q0 -25 -20 -25q-12 0 -17 7.5t-5 18.5z" />
<glyph unicode="&#xfb;" horiz-adv-x="222" d="M178 753l-46 121h-40l-46 -121h19l47 89l46 -89h20zM92 92v616h-60v-623q0 -48 18.5 -68t49.5 -20q14 0 21 3.5t13 9.5v-10h60v708h-60v-617q0 -25 -20 -25q-12 0 -17 7.5t-5 18.5z" />
<glyph unicode="&#xfc;" d="M100 789q0 14 -10.5 24.5t-24.5 10.5t-24.5 -10.5t-10.5 -24.5t10.5 -24.5t24.5 -10.5t24.5 10.5t10.5 24.5zM191 789q0 14 -10.5 24.5t-24.5 10.5t-24.5 -10.5t-10.5 -24.5t10.5 -24.5t24.5 -10.5t24.5 10.5t10.5 24.5zM92 92v616h-60v-623q0 -48 18.5 -68t49.5 -20 q14 0 21 3.5t13 9.5v-10h60v708h-60v-617q0 -25 -20 -25q-12 0 -17 7.5t-5 18.5z" />
<glyph unicode="&#xfd;" horiz-adv-x="222" d="M195 -76v784h-60v-622q0 -26 -21 -26q-20 0 -20 26v622h-61v-622q0 -39 16.5 -62.5t50.5 -23.5q14 0 21 3.5t14 8.5v-71q0 -23 -21 -23q-9 0 -15 6t-6 17v17h-60v-32q0 -32 19 -50t51 -18h22q38 0 54 20t16 46zM182 872h-50l-34 -119h25z" />
<glyph unicode="&#xfe;" horiz-adv-x="222" d="M194 623q0 38 -17 62.5t-52 24.5q-13 0 -20 -4t-13 -10v114h-60v-944h60v142q15 -12 38 -12q35 0 49.5 20.5t14.5 49.5v557zM113 58q-10 0 -15.5 6.5t-5.5 17.5v540q0 26 20 26q21 0 21 -26v-540q0 -11 -4.5 -17.5t-15.5 -6.5z" />
<glyph unicode="&#xff;" horiz-adv-x="221" d="M102 789q0 14 -10.5 24.5t-24.5 10.5t-24.5 -10.5t-10.5 -24.5t10.5 -24.5t24.5 -10.5t24.5 10.5t10.5 24.5zM193 789q0 14 -10.5 24.5t-24.5 10.5t-24.5 -10.5t-10.5 -24.5t10.5 -24.5t24.5 -10.5t24.5 10.5t10.5 24.5zM195 -76v784h-60v-622q0 -26 -21 -26 q-20 0 -20 26v622h-61v-622q0 -39 16.5 -62.5t50.5 -23.5q14 0 21 3.5t14 8.5v-71q0 -23 -21 -23q-9 0 -15 6t-6 17v17h-60v-32q0 -32 19 -50t51 -18h22q38 0 54 20t16 46z" />
<glyph unicode="&#x152;" horiz-adv-x="324" d="M106 -3h31q11 0 19.5 4t13.5 9v-10h94v60h-63v368h63v60h-63v262h63v60h-94v-9q-6 3 -15 6t-23 3h-26q-31 0 -49.5 -17t-18.5 -50v-674q0 -37 19.5 -54.5t48.5 -17.5zM120 754q11 0 14.5 -7t3.5 -16v-649q0 -11 -3.5 -18t-14.5 -7t-15 6.5t-4 18.5v649q0 9 4 16t15 7z " />
<glyph unicode="&#x153;" horiz-adv-x="333" d="M117 52q-8 0 -14 4.5t-6 15.5v558q0 11 6 16.5t14 5.5t14 -5.5t6 -17.5v-557q0 -20 -20 -20zM212 712q-30 0 -48 -12q-20 12 -47 12q-35 0 -57.5 -19.5t-22.5 -50.5v-578q0 -33 21.5 -51.5t58.5 -18.5q32 0 52 14q19 -11 43 -11h10q13 0 26.5 4t24 13t17.5 23t7 35v125 h-60v-119q0 -21 -20 -21t-20 21v324h100v239q0 31 -18.5 51t-56.5 20h-10zM217 648q20 0 20 -22v-164h-40v164q0 11 6 16.5t14 5.5z" />
<glyph unicode="&#x178;" horiz-adv-x="219" d="M99 852q0 13 -9 22.5t-22 9.5q-14 0 -23 -9.5t-9 -22.5t9 -22.5t23 -9.5q13 0 22 9.5t9 22.5zM185 852q0 13 -9.5 22.5t-22.5 9.5t-22 -9.5t-9 -22.5t9 -22.5t22 -9.5t22.5 9.5t9.5 22.5zM206 810h-62l-34 -195l-32 195h-63l65 -292v-518h62v518z" />
<glyph unicode="&#x2c6;" horiz-adv-x="216" d="M174 753l-46 121h-40l-47 -121h19l48 89l46 -89h20z" />
<glyph unicode="&#x2dc;" horiz-adv-x="236" d="M10 760h36q2 15 10 26.5t22 11.5q10 0 17 -6l15 -11q8 -8 19 -13.5t29 -5.5q19 0 32 6.5t21 16.5t11.5 22.5t3.5 24.5h-35q0 -20 -9 -28t-24 -8q-10 0 -17 5t-15 12q-9 7 -20 13t-28 6q-18 0 -30 -7t-20.5 -17.5t-12.5 -23t-5 -24.5z" />
<glyph unicode="&#x2000;" horiz-adv-x="457" />
<glyph unicode="&#x2001;" horiz-adv-x="915" />
<glyph unicode="&#x2002;" horiz-adv-x="457" />
<glyph unicode="&#x2003;" horiz-adv-x="915" />
<glyph unicode="&#x2004;" horiz-adv-x="305" />
<glyph unicode="&#x2005;" horiz-adv-x="228" />
<glyph unicode="&#x2006;" horiz-adv-x="152" />
<glyph unicode="&#x2007;" horiz-adv-x="152" />
<glyph unicode="&#x2008;" horiz-adv-x="114" />
<glyph unicode="&#x2009;" horiz-adv-x="183" />
<glyph unicode="&#x200a;" horiz-adv-x="50" />
<glyph unicode="&#x2010;" horiz-adv-x="225" d="M22 488v-60h180v60h-180z" />
<glyph unicode="&#x2011;" horiz-adv-x="225" d="M22 488v-60h180v60h-180z" />
<glyph unicode="&#x2013;" horiz-adv-x="324" d="M38 488v-60h250v60h-250z" />
<glyph unicode="&#x2014;" horiz-adv-x="482" d="M50 488v-60h386v60h-386z" />
<glyph unicode="&#x2018;" horiz-adv-x="166" d="M106 658h22l-40 168h-54z" />
<glyph unicode="&#x2019;" horiz-adv-x="166" d="M134 826h-54l-40 -168h22z" />
<glyph unicode="&#x201a;" horiz-adv-x="166" d="M134 142h-54l-40 -168h22z" />
<glyph unicode="&#x201c;" horiz-adv-x="252" d="M190 658h22l-40 168h-54zM103 658h23l-40 168h-54z" />
<glyph unicode="&#x201d;" horiz-adv-x="271" d="M134 826h-54l-40 -168h22zM221 826h-54l-40 -168h23z" />
<glyph unicode="&#x201e;" horiz-adv-x="271" d="M138 143h-54l-40 -168h23zM226 143h-54l-40 -168h22z" />
<glyph unicode="&#x2022;" horiz-adv-x="213" d="M187 450q0 32 -22 54t-54 22t-54 -22t-22 -54t22 -54t54 -22t54 22t22 54z" />
<glyph unicode="&#x2026;" horiz-adv-x="415" d="M105 34q0 15 -10.5 25.5t-25.5 10.5t-25.5 -10.5t-10.5 -25.5t10.5 -25.5t25.5 -10.5t25.5 10.5t10.5 25.5zM239 34q0 15 -10.5 25.5t-25.5 10.5t-25.5 -10.5t-10.5 -25.5t10.5 -25.5t25.5 -10.5t25.5 10.5t10.5 25.5zM373 34q0 15 -10.5 25.5t-25.5 10.5t-25.5 -10.5 t-10.5 -25.5t10.5 -25.5t25.5 -10.5t25.5 10.5t10.5 25.5z" />
<glyph unicode="&#x202f;" horiz-adv-x="183" />
<glyph unicode="&#x2039;" horiz-adv-x="166" d="M112 530l-78 -155l78 -155h18l-46 155l46 155h-18z" />
<glyph unicode="&#x203a;" horiz-adv-x="166" d="M42 220h20l77 155l-77 155h-20l48 -155z" />
<glyph unicode="&#x205f;" horiz-adv-x="228" />
<glyph unicode="&#x2122;" horiz-adv-x="368" d="M160 778h-114v-12h51v-148h12v148h51v12zM191 780l-36 -160h13l26 120l48 -128l48 128l26 -120h12l-34 160l-52 -135z" />
</font>
</defs>
</svg>
